<ttFont>
<head>
    <!-- Most of this table will be recalculated by the compiler -->
    <tableVersion value="1.0"/>
    <fontRevision value="1.0"/>
    <checkSumAdjustment value="0x32238f7"/>
    <magicNumber value="0x5f0f3cf5"/>
    <flags value="00000000 00000011"/>
    <unitsPerEm value="2048"/>
    <created value="Thu Aug 15 19:13:40 2019"/>
    <modified value="Fri Aug 16 02:19:07 2019"/>
    <xMin value="-579"/>
    <yMin value="-497"/>
    <xMax value="3978"/>
    <yMax value="2089"/>
<macStyle value="00000000 00000010"/>
    <lowestRecPPEM value="3"/>
    <fontDirectionHint value="2"/>
    <indexToLocFormat value="0"/>
    <glyphDataFormat value="0"/>
  </head>
          <CharString index="0">
            -314 -365 -464 -10 return
          </CharString>
          <CharString index="1">
            374 -249 299 -461 -511 return
          </CharString>
          <CharString index="2">
            164 128 98 168 return
          </CharString>
          <CharString index="3">
            60 vhcurveto
            -4 -16 -2 -29 -16 vvcurveto
            -134 -4 74 -65 130 hhcurveto
            return
          </CharString>
          <CharString index="4">
            rmoveto
            -33 callsubr
            38 callsubr
            endchar
          </CharString>
          <CharString index="5">
            rmoveto
            372 287 257 351 286 112 callsubr
            157 callsubr
            endchar
          </CharString>
          <CharString index="6">
            rmoveto
            -9 callsubr
            return
          </CharString>
          <CharString index="7">
            -240 -50 95 -145 222 hhcurveto
            168 139 97 170 81 -29 callgsubr
            76 -65 135 hhcurveto
            return
          </CharString>
          <CharString index="8">
            hvcurveto
            -50 callsubr
            158 callsubr
            endchar
          </CharString>
          <CharString index="9">
            rmoveto
            -253 128 -140 181 return
          </CharString>
          <CharString index="10">
            32 callsubr
            endchar
          </CharString>
          <CharString index="11">
            rmoveto
            -1206 hlineto
            -24 -110 120 -23 -42 callsubr
            1249 -35 callsubr
            endchar
          </CharString>
          <CharString index="12">
            1863 rmoveto
            245 callsubr
            return
          </CharString>
          <CharString index="13">
            rmoveto
            111 89 85 104 return
          </CharString>
          <CharString index="14">
            rmoveto
            -574 121 callsubr
            -84 -402 rcurveline
            return
          </CharString>
          <CharString index="15">
            34 callsubr
            endchar
          </CharString>
          <CharString index="16">
            rmoveto
            356 227 213 379 83 hvcurveto
            131 592 30 131 22 25 126 24 rlinecurve
            24 110 -453 0 -24 -110 rlineto
            129 -26 26 callgsubr
            endchar
          </CharString>
          <CharString index="17">
            rmoveto
            66 callsubr
            126 callsubr
            19 callsubr
            -24 -87 callgsubr
            759 0 24 -19 callsubr
            endchar
          </CharString>
          <CharString index="18">
            -163 -763 433 0 return
          </CharString>
          <CharString index="19">
            0 callsubr
            endchar
          </CharString>
          <CharString index="20">
            rmoveto
            -28 callsubr
            36 callsubr
            endchar
          </CharString>
          <CharString index="21">
            -14 callsubr
            137 0 return
          </CharString>
          <CharString index="22">
            750 0 24 110 return
          </CharString>
          <CharString index="23">
            -23 -110 -85 callsubr
            return
          </CharString>
          <CharString index="24">
            1176 rmoveto
            112 return
          </CharString>
          <CharString index="25">
            -88 -428 rlineto
            -199 -40 79 -93 168 hhcurveto
            151 134 64 87 72 hvcurveto
            23 111 rlineto
            -18 -25 -32 -9 -32 hhcurveto
            -52 -19 34 81 17 hvcurveto
            return
          </CharString>
          <CharString index="26">
            -17 -82 rlineto
            1 2 34 1 5 hhcurveto
            67 33 -24 -38 -39 -39 return
          </CharString>
          <CharString index="27">
            rmoveto
            -517 -62 -23 -110 40 -12 190 callsubr
            endchar
          </CharString>
          <CharString index="28">
            1549 rmoveto
            87 71 71 86 return
          </CharString>
          <CharString index="29">
            rmoveto
            -101 -82 -80 -97 -92 71 -74 return
          </CharString>
          <CharString index="30">
            rmoveto
            174 -544 -76 -362 -19 -86 -25 -21 -140 -22 rlinecurve
            -23 -110 779 0 24 110 -129 22 -19 20 19 87 rlinecurve
            76 360 415 558 97 132 32 28 109 17 rlinecurve
            23 110 -450 0 -24 -110 125 -47 callgsubr
            -10 callgsubr
            endchar
          </CharString>
          <CharString index="31">
            hhcurveto
            167 165 112 252 122 hvcurveto
            -75 67 rlineto
            -47 -68 -54 -31 -52 1 -69 1 -64 24 -104 63 rrcurveto
            -50 30 518 507 23 110 return
          </CharString>
          <CharString index="32">
            74 351 rlineto
            240 51 -89 139 -224 hhcurveto
            -174 -137 -95 -171 -73 hvcurveto
            return
          </CharString>
          <CharString index="33">
            79 77 56 79 17 hvcurveto
            80 17 -53 55 -79 hhcurveto
            -20 hlineto
            -79 -76 -55 -80 return
          </CharString>
          <CharString index="34">
            rmoveto
            209 95 80 124 118 -95 71 -116 -91 return
          </CharString>
          <CharString index="35">
            rmoveto
            93 -99 146 160 42 -29 rlineto
            -89 130 return
          </CharString>
          <CharString index="36">
            rmoveto
            -519 -62 -23 -110 40 -12 rlineto
            58 -19 return
          </CharString>
          <CharString index="37">
            96 102 83 80 99 91 -72 73 -97 hvcurveto
            endchar
          </CharString>
          <CharString index="38">
            rmoveto
            253 161 180 -161 return
          </CharString>
          <CharString index="39">
            -121 21 -17 18 19 91 rlinecurve
            205 964 19 90 25 19 130 21 rlinecurve
            72 callsubr
            113 -20 16 -19 -19 -91 rlinecurve
            -85 -401 -407 0 85 -26 callgsubr
            return
          </CharString>
          <CharString index="40">
            0 140 662 rlineto
            120 25 70 63 62 hhcurveto
            58 34 -48 -95 -20 hvcurveto
            return
          </CharString>
          <CharString index="41">
            rmoveto
            -122 -415 184 0 336 403 rlineto
            12 vlineto
            return
          </CharString>
          <CharString index="42">
            rmoveto
            -102 -82 -80 -97 -92 72 -74 -70 callsubr
          </CharString>
          <CharString index="43">
            107 459 rlineto
            -103 hlineto
            -113 -261 -93 -54 return
          </CharString>
          <CharString index="44">
            -279 0 -279 -374 rlineto
            endchar
          </CharString>
          <CharString index="45">
            1539 rmoveto
            240 133 return
          </CharString>
          <CharString index="46">
            790 1052 rmoveto
            -559 -66 return
          </CharString>
          <CharString index="47">
            1587 rmoveto
            652 hlineto
            return
          </CharString>
          <CharString index="48">
            533 403 rlineto
            12 vlineto
            return
          </CharString>
          <CharString index="49">
            532 403 rlineto
            12 vlineto
            return
          </CharString>
          <CharString index="50">
            1163 rmoveto
            119 return
          </CharString>
          <CharString index="51">
            0 -375 -172 rlineto
            return
          </CharString>
          <CharString index="52">
            -577 -63 -22 -106 57 -18 52 -18 9 -19 -13 -63 rlinecurve
            -259 -1220 return
          </CharString>
          <CharString index="53">
            1160 rmoveto
            274 179 192 -179 132 0 return
          </CharString>
          <CharString index="54">
            1868 rmoveto
            -243 -132 -98 callgsubr
            return
          </CharString>
          <CharString index="55">
            rmoveto
            674 hlineto
            43 204 rlineto
            -673 hlineto
            endchar
          </CharString>
          <CharString index="56">
            -23 -106 57 -18 51 -18 10 -19 -13 -62 rlinecurve
            return
          </CharString>
          <CharString index="57">
            -374 -9 257 -299 462 hhcurveto
            return
          </CharString>
          <CharString index="58">
            -1 hvcurveto
            97 -1 -79 78 -105 hhcurveto
            -111 return
          </CharString>
          <CharString index="59">
            1584 rmoveto
            -273 -178 return
          </CharString>
          <CharString index="60">
            181 -105 callsubr
            return
          </CharString>
          <CharString index="61">
            123 0 -127 374 return
          </CharString>
          <CharString index="62">
            rmoveto
            -126 79 -120 185 -53 vhcurveto
            -183 -34 -103 -96 -117 vvcurveto
            -83 50 -68 100 -38 vhcurveto
            -199 -21 -102 -76 -94 vvcurveto
            -140 210 -91 332 374 250 141 225 169 -126 116 -231 33 vhcurveto
            -203 29 rlineto
            -96 14 -31 26 31 vvcurveto
            27 20 18 29 9 vhcurveto
            -7 44 48 -3 53 hhcurveto
            346 -1 205 167 220 vvcurveto
            60 -17 61 -42 52 vhcurveto
            215 -52 33 163 -394 -11 rlineto
            29 -74 -97 17 -126 hhcurveto
            -339 -210 -145 -231 hvcurveto
            410 -49 rmoveto
            124 49 173 95 60 32 -56 -94 -132 -50 -167 -95 -59 -32 59 93 vhcurveto
            -268 -830 rmoveto
            56 33 43 57 20 vhcurveto
            200 -28 rlineto
            148 -22 39 -33 -58 vvcurveto
            -70 -95 -54 -148 -149 -85 60 86 vhcurveto
            endchar
          </CharString>
          <CharString index="63">
            rmoveto
            379 198 423 271 161 90 -129 -231 6 vhcurveto
            102 -3 66 386 rlineto
            68 -104 -192 59 -212 hhcurveto
            -504 -377 -323 -498 -6 hvcurveto
            return
          </CharString>
          <CharString index="64">
            -17 hvcurveto
            -79 -17 52 -56 80 hhcurveto
            427 hmoveto
            77 callsubr
            -53 55 -79 hhcurveto
            -20 hlineto
            -79 -76 -55 -80 -18 hvcurveto
            -79 -16 52 -56 80 hhcurveto
            return
          </CharString>
          <CharString index="65">
            18 -19 -19 -101 callgsubr
            -131 -23 rlinecurve
            -23 -110 return
          </CharString>
          <CharString index="66">
            rmoveto
            229 169 116 195 return
          </CharString>
          <CharString index="67">
            1868 rmoveto
            -242 -132 return
          </CharString>
          <CharString index="68">
            1573 rmoveto
            -445 -13 hlineto
            return
          </CharString>
          <CharString index="69">
            386 -403 rlineto
            133 hlineto
            return
          </CharString>
          <CharString index="70">
            138 0 -58 callsubr
            return
          </CharString>
          <CharString index="71">
            1 hvcurveto
            80 -62 65 -82 -88 return
          </CharString>
          <CharString index="72">
            0 108 459 rlineto
            -102 hlineto
            -115 -258 -82 -56 -235 -11 rrcurveto
            -182 -7 116 545 133 -1 90 -3 20 -35 -5 -167 rlinecurve
            96 hlineto
            113 535 rlineto
            -95 hlineto
            -63 -159 -35 -38 -94 -3 rrcurveto
            -134 57 callgsubr
            return
          </CharString>
          <CharString index="73">
            rmoveto
            -6 -472 355 -210 373 -1 rrcurveto
            186 218 45 82 126 hvcurveto
            86 404 18 82 21 23 114 18 rlinecurve
            23 110 -667 0 -23 -110 rlineto
            117 204 callsubr
            endchar
          </CharString>
          <CharString index="74">
            -141 1125 -382 0 -617 -1114 -98 -175 -32 -29 -111 -18 rlinecurve
            -24 -110 468 0 24 110 -133 23 -16 34 87 165 rlinecurve
            60 115 420 0 12 -123 return
          </CharString>
          <CharString index="75">
            138 callsubr
            442 -12 159 callsubr
            -63 hhcurveto
            -49 -33 44 120 1 hvcurveto
            return
          </CharString>
          <CharString index="76">
            1431 1681 1444 rmoveto
            -1319 hlineto
            -97 callgsubr
            78 callsubr
            105 callsubr
            -81 callgsubr
            return
          </CharString>
          <CharString index="77">
            118 511 rlineto
            -101 hlineto
            -131 -291 -101 -78 -202 -10 rrcurveto
            -124 -5 return
          </CharString>
          <CharString index="78">
            1153 rmoveto
            125 101 -55 callgsubr
            -102 69 callsubr
            return
          </CharString>
          <CharString index="79">
            -576 -66 -22 -106 56 -18 rlineto
            52 -18 9 -19 -13 -62 -104 return
          </CharString>
          <CharString index="80">
            -193 178 -132 0 134 -22 callsubr
            return
          </CharString>
          <CharString index="81">
            1573 rmoveto
            -380 -10 hlineto
            280 -406 rlineto
            return
          </CharString>
          <CharString index="82">
            -287 204 -71 0 -373 -204 rlineto
            return
          </CharString>
          <CharString index="83">
            498 hmoveto
            112 91 89 107 102 -80 82 return
          </CharString>
          <CharString index="84">
            -491 -104 276 -199 345 hhcurveto
            return
          </CharString>
          <CharString index="85">
            -415 300 0 303 415 rlineto
            return
          </CharString>
          <CharString index="86">
            -323 297 0 262 323 rlineto
            return
          </CharString>
          <CharString index="87">
            890 1507 41 callsubr
            return
          </CharString>
          <CharString index="88">
            110 -120 23 -17 19 19 88 rlinecurve
            return
          </CharString>
          <CharString index="89">
            253 callsubr
            80 -77 106 vhcurveto
            endchar
          </CharString>
          <CharString index="90">
            rmoveto
            234 170 98 166 28 hvcurveto
            return
          </CharString>
          <CharString index="91">
            1886 rmoveto
            -115 -81 -35 -60 return
          </CharString>
          <CharString index="92">
            -43 -23 46 101 -3 hvcurveto
            262 -3 return
          </CharString>
          <CharString index="93">
            1574 rmoveto
            -207 -415 return
          </CharString>
          <CharString index="94">
            1528 262 callsubr
            return
          </CharString>
          <CharString index="95">
            1160 rmoveto
            273 179 return
          </CharString>
          <CharString index="96">
            -559 -66 -51 callsubr
            return
          </CharString>
          <CharString index="97">
            -113 22 -16 20 19 88 rlinecurve
            return
          </CharString>
          <CharString index="98">
            510 325 365 464 return
          </CharString>
          <CharString index="99">
            84 hhcurveto
            376 hmoveto
            87 71 71 return
          </CharString>
          <CharString index="100">
            75 72 47 68 14 hvcurveto
            68 return
          </CharString>
          <CharString index="101">
            rmoveto
            89 419 78 0 186 -659 516 0 23 106 -54 28 -21 32 -70 228 rlinecurve
            -183 612 110 94 203 174 66 35 135 25 rlinecurve
            24 110 -531 0 200 callsubr
            endchar
          </CharString>
          <CharString index="102">
            228 1078 18 87 26 18 137 24 rlinecurve
            23 110 -766 0 -23 -110 rlineto
            117 -23 18 -24 -21 -100 -201 -947 rcurveline
            -18 -87 -25 -20 -130 -23 -24 -110 rcurveline
            return
          </CharString>
          <CharString index="103">
            141 661 rlineto
            120 25 69 64 62 hhcurveto
            59 34 -48 -95 -20 hvcurveto
            -82 callsubr
            75 351 rlineto
            240 50 -89 139 -224 hhcurveto
            -175 -136 -96 -170 -73 hvcurveto
            return
          </CharString>
          <CharString index="104">
            122 618 rlineto
            84 51 114 52 136 hhcurveto
            55 46 -7 -15 37 hvcurveto
            11 31 15 55 62 vvcurveto
            108 -40 73 -96 -120 -78 -112 -245 -115 vhcurveto
            return
          </CharString>
          <CharString index="105">
            rmoveto
            103 -1126 364 0 472 948 71 -948 378 0 556 1109 93 185 39 26 109 17 rlinecurve
            23 110 195 callsubr
            endchar
          </CharString>
          <CharString index="106">
            rmoveto
            195 163 85 103 68 hvcurveto
            23 111 rlineto
            140 callsubr
            -320 223 -153 241 vhcurveto
            endchar
          </CharString>
          <CharString index="107">
            140 136 64 87 71 hvcurveto
            24 111 rlineto
            -18 -46 callgsubr
            153 722 -15 callgsubr
            return
          </CharString>
          <CharString index="108">
            240 rmoveto
            72 callgsubr
            return
          </CharString>
          <CharString index="109">
            1556 rmoveto
            103 92 65 256 31 hvcurveto
            -112 hlineto
            -85 -16 -26 -26 -37 hhcurveto
            -25 return
          </CharString>
          <CharString index="110">
            95 115 108 -85 87 -112 -120 -98 -95 -117 -107 85 -86 114 hvcurveto
            return
          </CharString>
          <CharString index="111">
            1168 rmoveto
            241 149 158 259 7 hvcurveto
            -126 hlineto
            -95 return
          </CharString>
          <CharString index="112">
            1285 1228 hmoveto
            -30 callsubr
            -5 callsubr
            return
          </CharString>
          <CharString index="113">
            rmoveto
            142 102 99 167 34 hvcurveto
            -128 hlineto
            -54 -12 -30 -25 return
          </CharString>
          <CharString index="114">
            1539 rmoveto
            241 133 179 -133 119 0 return
          </CharString>
          <CharString index="115">
            1347 169 369 rmoveto
            -253 129 -140 return
          </CharString>
          <CharString index="116">
            1235 rmoveto
            724 hlineto
            49 226 rlineto
            -725 hlineto
            return
          </CharString>
          <CharString index="117">
            -473 -7 354 -210 379 150 callsubr
          </CharString>
          <CharString index="118">
            1384 791 1054 -93 callsubr
            return
          </CharString>
          <CharString index="119">
            -249 -10 rrcurveto
            -187 35 callsubr
            endchar
          </CharString>
          <CharString index="120">
            -134 415 -300 0 -303 -415 rlineto
            return
          </CharString>
          <CharString index="121">
            -133 415 -300 0 -303 -415 rlineto
            return
          </CharString>
          <CharString index="122">
            1528 rmoveto
            101 82 81 97 92 -72 74 return
          </CharString>
          <CharString index="123">
            -57 callsubr
            96 95 115 108 return
          </CharString>
          <CharString index="124">
            1773 822 102 callsubr
            return
          </CharString>
          <CharString index="125">
            170 369 -98 callsubr
            return
          </CharString>
          <CharString index="126">
            -18 -88 rlinecurve
            -205 -964 -19 -88 return
          </CharString>
          <CharString index="127">
            -103 -99 -166 -34 hvcurveto
            128 hlineto
            return
          </CharString>
          <CharString index="128">
            rmoveto
            387 98 345 -98 23 107 return
          </CharString>
          <CharString index="129">
            -13 -62 rlinecurve
            -89 callsubr
            return
          </CharString>
          <CharString index="130">
            -17 hvcurveto
            -79 -17 53 -56 79 hhcurveto
            return
          </CharString>
          <CharString index="131">
            -105 -113 74 callsubr
            return
          </CharString>
          <CharString index="132">
            91 89 107 102 -80 82 -106 return
          </CharString>
          <CharString index="133">
            43 200 rlineto
            -652 hlineto
            return
          </CharString>
          <CharString index="134">
            rmoveto
            -150 -169 -49 -36 -127 -22 rrcurveto
            -24 -110 488 0 23 110 -120 23 -4 39 121 146 rlinecurve
            190 230 96 -247 52 -130 -18 -34 -121 -23 rlinecurve
            -24 -111 798 0 24 111 -93 31 -30 30 -52 135 rlinecurve
            -182 469 289 329 148 169 52 35 126 22 rlinecurve
            24 110 -485 0 -24 -110 121 -23 4 -39 -121 -146 rlinecurve
            -182 -225 -95 245 -53 133 19 33 121 22 rlinecurve
            24 110 -800 0 -24 -110 rlineto
            94 -30 31 -32 53 -135 181 -466 rcurveline
            endchar
          </CharString>
          <CharString index="135">
            485 hlineto
            23 106 rlineto
            -57 21 -32 45 -60 169 -117 333 rcurveline
            194 67 145 125 199 vvcurveto
            246 -221 133 -441 vhcurveto
            -670 hlineto
            -23 -110 125 -18 15 -22 -18 -84 rlinecurve
            -207 -976 -18 -83 -24 -23 -133 -18 rlinecurve
            -24 -110 -85 callsubr
            rlineto
            -108 21 -15 21 19 87 78 371 rcurveline
            110 hlineto
            308 451 rmoveto
            -158 -99 -154 -229 -10 vhcurveto
            -62 -2 121 577 43 -2 rlineto
            146 -5 80 -91 -155 vvcurveto
            return
          </CharString>
          <CharString index="136">
            24 110 rlineto
            -140 20 -18 22 17 83 65 298 rcurveline
            182 hlineto
            456 274 184 294 260 -179 173 -483 hvcurveto
            -675 hlineto
            -24 -110 rlineto
            125 -18 16 -23 -19 -83 -207 -976 rcurveline
            -18 -83 -23 -23 -134 -18 -23 -110 rcurveline
            897 1316 rmoveto
            41 -2 rlineto
            132 -8 87 -89 -164 vvcurveto
            -241 -141 -142 -189 -8 vhcurveto
            -69 -3 rlineto
            endchar
          </CharString>
          <CharString index="137">
            rmoveto
            -287 191 -192 313 372 287 252 345 156 -61 131 -106 87 vhcurveto
            -11 45 52 -7 54 hhcurveto
            214 141 85 148 118 -75 90 -116 46 hvcurveto
            -95 hlineto
            11 -19 7 -33 -36 vvcurveto
            -165 -129 -130 -165 vhcurveto
            -87 -73 29 -120 hhcurveto
            -373 -287 -256 -351 hvcurveto
            426 -153 rmoveto
            100 callsubr
            -59 -33 57 127 vhcurveto
            endchar
          </CharString>
          <CharString index="138">
            rmoveto
            -668 hlineto
            -24 -110 126 -22 13 -38 -28 -118 rlinecurve
            -201 -857 -34 -137 -25 -34 -134 -18 rlinecurve
            -24 -110 465 0 24 110 -128 18 -11 30 30 141 rlinecurve
            163 792 118 -1091 253 0 297 588 264 520 -161 -874 -16 -83 -25 -23 -132 -18 rlinecurve
            -23 -110 752 0 24 110 -14 callgsubr
            endchar
          </CharString>
          <CharString index="139">
            150 130 65 86 72 hvcurveto
            23 111 rlineto
            -18 -25 -31 -9 -33 hhcurveto
            -52 -19 34 81 17 hvcurveto
            151 707 -264 0 -151 -124 rlineto
            78 170 callsubr
            -12 159 callsubr
            -62 hhcurveto
            -50 -33 44 120 1 hvcurveto
            return
          </CharString>
          <CharString index="140">
            rmoveto
            -574 -30 callgsubr
            -13 -62 -102 callgsubr
            222 hhcurveto
            169 138 98 169 81 hvcurveto
            -4 -15 -4 -29 -17 vvcurveto
            -134 -3 76 -66 134 hhcurveto
            136 138 61 83 73 hvcurveto
            24 111 rlineto
            -18 -46 callgsubr
            197 callsubr
            endchar
          </CharString>
          <CharString index="141">
            rmoveto
            193 161 82 106 70 hvcurveto
            24 111 rlineto
            154 callsubr
            -321 226 -152 237 vhcurveto
            160 950 rmoveto
            45 21 -39 -52 -118 -77 -117 -130 -45 hvcurveto
            -37 -13 rlineto
            217 3 71 167 104 hhcurveto
            return
          </CharString>
          <CharString index="142">
            -7 912 1211 23 106 -1140 0 -101 -428 rlineto
            101 hlineto
            112 231 67 53 234 10 rrcurveto
            177 7 -913 -1211 -22 -106 rlineto
            return
          </CharString>
          <CharString index="143">
            -489 rcurveline
            -199 -43 81 -93 169 hhcurveto
            151 134 64 87 72 hvcurveto
            24 111 rlineto
            -18 -25 -32 -9 -33 hhcurveto
            -51 -19 34 81 17 hvcurveto
            return
          </CharString>
          <CharString index="144">
            -76 callgsubr
            48 44 -19 -37 -36 -37 -21 -71 -43 -43 -89 callgsubr
          </CharString>
          <CharString index="145">
            15 -154 -26 -37 -143 -22 rlinecurve
            -24 -111 787 0 -48 callgsubr
            -842 265 rmoveto
            282 537 52 -537 rlineto
            return
          </CharString>
          <CharString index="146">
            rmoveto
            -559 -66 80 callsubr
            22 callsubr
            -3 callsubr
            endchar
          </CharString>
          <CharString index="147">
            179 -133 119 0 -131 -36 callgsubr
            return
          </CharString>
          <CharString index="148">
            rmoveto
            -576 -63 -22 -106 57 -18 rlineto
            51 -18 10 -19 -13 -63 -203 -946 rcurveline
            -19 callgsubr
            return
          </CharString>
          <CharString index="149">
            rmoveto
            -574 -66 -23 -106 56 -18 52 -18 9 -19 -13 -62 -74 callgsubr
            31 -68 callgsubr
          </CharString>
          <CharString index="150">
            -107 -37 -139 hhcurveto
            -139 -91 38 53 4 hvcurveto
            -131 hlineto
            -166 -42 128 -98 234 hhcurveto
            return
          </CharString>
          <CharString index="151">
            rmoveto
            110 90 85 104 -49 callsubr
            -91 -85 -106 1 hvcurveto
            -96 1 79 -77 107 hhcurveto
            endchar
          </CharString>
          <CharString index="152">
            rmoveto
            142 103 99 167 33 hvcurveto
            -128 hlineto
            -54 -12 -30 -25 -50 hhcurveto
            -29 -31 9 return
          </CharString>
          <CharString index="153">
            15 -51 47 -76 hhcurveto
            -19 hlineto
            -75 -71 -47 -68 -15 hvcurveto
            -68 -14 51 -47 75 hhcurveto
            return
          </CharString>
          <CharString index="154">
            15 -52 79 callsubr
            76 71 47 68 14 hvcurveto
            68 46 callsubr
            return
          </CharString>
          <CharString index="155">
            56 140 hhcurveto
            120 84 -63 -80 -3 0 -3 -1 -3 hvcurveto
            126 hlineto
            return
          </CharString>
          <CharString index="156">
            1179 rmoveto
            122 105 80 310 39 hvcurveto
            -126 hlineto
            -107 return
          </CharString>
          <CharString index="157">
            1584 rmoveto
            -274 -178 -192 178 -132 0 return
          </CharString>
          <CharString index="158">
            -19 -32 -33 -45 hhcurveto
            -31 -27 12 22 -30 hvcurveto
            -32 23 rlineto
            42 return
          </CharString>
          <CharString index="159">
            -113 -120 -97 -95 -117 -107 85 -86 114 hvcurveto
            return
          </CharString>
          <CharString index="160">
            -132 322 -270 0 -261 -322 rlineto
            return
          </CharString>
          <CharString index="161">
            rmoveto
            673 hlineto
            44 204 rlineto
            -674 hlineto
            endchar
          </CharString>
          <CharString index="162">
            1695 939 -29 -101 callsubr
            return
          </CharString>
          <CharString index="163">
            -288 204 -71 0 -373 -204 rlineto
            return
          </CharString>
          <CharString index="164">
            -184 132 -130 0 133 -323 return
          </CharString>
          <CharString index="165">
            -87 -72 -70 -88 hvcurveto
            -80 -1 62 -64 84 hhcurveto
            return
          </CharString>
          <CharString index="166">
            -90 -85 -106 1 hvcurveto
            -96 80 -77 106 vhcurveto
            endchar
          </CharString>
          <CharString index="167">
            hvcurveto
            97 -1 -80 78 -104 114 callgsubr
          </CharString>
          <CharString index="168">
            hvcurveto
            80 1 -62 65 -82 hhcurveto
            -88 -72 -70 -88 return
          </CharString>
          <CharString index="169">
            rmoveto
            752 hlineto
            34 154 rlineto
            -753 hlineto
            return
          </CharString>
          <CharString index="170">
            -852 0 -117 243 callsubr
            return
          </CharString>
          <CharString index="171">
            944 1444 136 callsubr
            return
          </CharString>
          <CharString index="172">
            868 508 -19 97 callsubr
            return
          </CharString>
          <CharString index="173">
            205 964 18 -107 callgsubr
            return
          </CharString>
          <CharString index="174">
            -19 -37 -36 -38 -21 -71 -43 -43 12 16 return
          </CharString>
          <CharString index="175">
            -91 -89 -110 -101 79 -80 108 hvcurveto
            return
          </CharString>
          <CharString index="176">
            -99 -124 -112 89 -90 120 hvcurveto
            return
          </CharString>
          <CharString index="177">
            357 -83 20 91 -303 172 return
          </CharString>
          <CharString index="178">
            90 89 107 102 -79 82 -106 -113 return
          </CharString>
          <CharString index="179">
            24 110 -751 0 -24 -110 return
          </CharString>
          <CharString index="180">
            -23 -100 rcurveline
            -45 53 81 -29 93 hhcurveto
            return
          </CharString>
          <CharString index="181">
            -92 -89 -110 -101 80 -80 107 hvcurveto
            return
          </CharString>
          <CharString index="182">
            297 0 261 323 rlineto
            return
          </CharString>
          <CharString index="183">
            126 110 126 134 return
          </CharString>
          <CharString index="184">
            79 77 56 79 16 hvcurveto
            80 18 return
          </CharString>
          <CharString index="185">
            72 61 198 12 rrcurveto
            30 1 return
          </CharString>
          <CharString index="186">
            75 callgsubr
            406 hmoveto
            return
          </CharString>
          <CharString index="187">
            -22 -106 56 -18 51 -18 10 -19 return
          </CharString>
          <CharString index="188">
            -103 callgsubr
            377 hmoveto
            return
          </CharString>
          <CharString index="189">
            rmoveto
            76 72 47 68 14 hvcurveto
            68 return
          </CharString>
          <CharString index="190">
            rmoveto
            -104 74 -83 112 116 72 67 188 97 vhcurveto
            28 52 20 -55 rlineto
            -166 59 87 -85 157 hhcurveto
            137 119 65 88 51 hvcurveto
            23 112 rlineto
            -17 -28 -27 -10 -36 hhcurveto
            -58 -43 37 103 -37 hvcurveto
            -101 273 64 93 14 23 14 20 13 18 rlinecurve
            -56 31 59 -37 72 hhcurveto
            109 81 83 104 104 -73 82 -113 -116 -72 -67 -187 -97 hvcurveto
            -31 -59 -112 302 -468 -59 -23 -110 43 -11 65 -17 17 -18 24 -66 rlinecurve
            131 -364 -60 -89 -15 -22 -13 -20 -13 -18 rlinecurve
            56 -31 -60 37 -71 hhcurveto
            -109 -82 -84 -103 hvcurveto
            endchar
          </CharString>
          <CharString index="191">
            rmoveto
            387 260 208 293 170 -84 123 -191 115 hvcurveto
            -85 55 rlineto
            -120 74 -51 56 89 vvcurveto
            100 87 73 121 167 100 -118 -237 10 vhcurveto
            102 hlineto
            68 378 rlineto
            61 -80 -171 65 -222 hhcurveto
            -433 -202 -238 -249 -179 78 -114 200 -121 hvcurveto
            85 -55 rlineto
            126 -78 42 -58 -91 vvcurveto
            -106 -87 -67 -131 -169 -141 121 236 vhcurveto
            -103 hlineto
            -62 -402 rlineto
            -54 96 187 -50 216 hhcurveto
            return
          </CharString>
          <CharString index="192">
            rmoveto
            331 310 267 394 62 hvcurveto
            290 44 -101 135 -172 hhcurveto
            -153 -99 -153 -180 16 hvcurveto
            205 -23 57 -134 -33 -156 rrcurveto
            -141 -29 -105 -82 -105 hhcurveto
            -123 -44 77 130 27 hvcurveto
            17 77 35 145 17 81 rrcurveto
            252 54 -81 101 -222 hhcurveto
            -116 -104 -38 -35 -64 hvcurveto
            -22 -105 rlineto
            4 9 16 2 14 hhcurveto
            65 16 -39 -109 -23 hvcurveto
            -19 -89 -37 -153 -22 -106 rrcurveto
            -256 -55 133 -156 301 hhcurveto
            endchar
          </CharString>
          <CharString index="193">
            rmoveto
            -55 70 157 -51 170 hhcurveto
            401 145 187 181 1 hvcurveto
            1 144 -73 92 -137 69 rrcurveto
            -97 50 -88 45 -33 37 1 54 rlinecurve
            58 44 37 78 125 82 -80 -138 14 vhcurveto
            102 hlineto
            47 271 rlineto
            42 -76 -131 37 -163 hhcurveto
            -326 -207 -141 -218 -149 81 -89 142 -71 hvcurveto
            97 -49 rlineto
            82 -43 25 -36 -54 vvcurveto
            -60 -1 -51 -43 -85 hhcurveto
            -128 -107 88 169 -11 hvcurveto
            -101 hlineto
            return
          </CharString>
          <CharString index="194">
            1664 931 -29 rmoveto
            450 352 334 468 401 -315 300 -379 -453 -348 -333 -469 -400 312 -301 381 hvcurveto
            2 86 rmoveto
            -330 -269 264 353 418 310 297 394 326 272 -265 -352 -419 -313 -296 -390 hvcurveto
            return
          </CharString>
          <CharString index="195">
            rmoveto
            156 -117 147 -280 29 vhcurveto
            258 17 209 102 207 vvcurveto
            211 1 -202 126 -445 hhcurveto
            -671 hlineto
            -24 -110 rlineto
            121 -23 17 -18 -19 -90 -205 -963 -59 callgsubr
            198 callsubr
            endchar
          </CharString>
          <CharString index="196">
            36 hvcurveto
            -128 hlineto
            -64 -21 -105 -43 -136 hhcurveto
            -136 -87 43 64 6 hvcurveto
            -128 hlineto
            -195 -48 121 -116 228 hhcurveto
            -709 -751 -98 callsubr
            -105 callsubr
            -104 callsubr
            -97 callsubr
          </CharString>
          <CharString index="197">
            rmoveto
            -132 -695 rlineto
            -256 -49 107 -112 224 hhcurveto
            169 158 72 93 87 hvcurveto
            24 110 rlineto
            -22 -41 -49 -10 -49 hhcurveto
            -115 -60 54 127 33 hvcurveto
            6 29 147 531 23 79 rrcurveto
            endchar
          </CharString>
          <CharString index="198">
            823 1444 rmoveto
            -117 hlineto
            -334 -128 -14 -72 136 14 8 1 3 -3 -1 -6 rlinecurve
            -97 -456 -12 -59 -31 -18 -111 -11 rlinecurve
            -14 -73 546 0 15 73 -104 11 -23 17 12 60 rlinecurve
            return
          </CharString>
          <CharString index="199">
            1558 823 -30 rmoveto
            356 227 213 379 83 hvcurveto
            131 592 30 131 22 25 126 24 rlinecurve
            24 110 -453 0 -24 -110 rlineto
            129 -26 26 callgsubr
            return
          </CharString>
          <CharString index="200">
            630 616 rmoveto
            297 142 232 244 -2 hvcurveto
            197 -1 -118 174 -224 hhcurveto
            -297 -142 -232 -245 2 hvcurveto
            -197 1 118 -173 224 hhcurveto
            return
          </CharString>
          <CharString index="201">
            -18 -101 -56 -140 hhcurveto
            -120 -84 63 80 3 0 3 1 2 hvcurveto
            -126 hlineto
            -11 -29 -6 -38 -40 vvcurveto
            -173 135 -137 199 vhcurveto
            return
          </CharString>
          <CharString index="202">
            35 hvcurveto
            -127 hlineto
            -64 -22 -105 -43 -135 hhcurveto
            -136 -88 43 64 7 hvcurveto
            -128 hlineto
            -195 -48 120 -116 229 hhcurveto
            endchar
          </CharString>
          <CharString index="203">
            1558 rmoveto
            218 129 -35 callgsubr
            -16 -91 -50 -128 hhcurveto
            -109 -77 56 71 4 0 3 1 3 hvcurveto
            return
          </CharString>
          <CharString index="204">
            rmoveto
            156 171 77 94 55 callgsubr
            -17 callgsubr
            rlineto
            -245 -52 102 -131 234 hhcurveto
            return
          </CharString>
          <CharString index="205">
            rmoveto
            195 915 19 -106 callgsubr
            125 callsubr
            151 callsubr
            endchar
          </CharString>
          <CharString index="206">
            rmoveto
            393 83 357 -83 19 91 -302 172 -73 -56 callsubr
            endchar
          </CharString>
          <CharString index="207">
            227 81 391 137 59 33 -57 -127 -226 -80 -392 -138 return
          </CharString>
          <CharString index="208">
            rmoveto
            -212 -123 -180 -229 -9 vhcurveto
            -65 -2 134 634 rlineto
            return
          </CharString>
          <CharString index="209">
            145 callsubr
            -516 85 117 callsubr
            164 callsubr
            return
          </CharString>
          <CharString index="210">
            1584 rmoveto
            -133 -93 -43 -71 -56 hvcurveto
            -19 -92 rlineto
            17 28 return
          </CharString>
          <CharString index="211">
            -21 -68 -1 hvcurveto
            -53 1 -42 15 -28 15 73 callsubr
            endchar
          </CharString>
          <CharString index="212">
            -229 -1078 -18 -86 -26 -21 -142 -22 rlinecurve
            -23 -110 return
          </CharString>
          <CharString index="213">
            -8 hlineto
            227 -314 rlineto
            111 hlineto
            339 322 rmoveto
            return
          </CharString>
          <CharString index="214">
            -25 -6 -35 -36 vvcurveto
            -151 1 121 -120 178 hhcurveto
            return
          </CharString>
          <CharString index="215">
            1899 rmoveto
            733 -90 18 87 -711 192 rlineto
            return
          </CharString>
          <CharString index="216">
            1771 rmoveto
            -96 -97 -39 -56 -66 hvcurveto
            -17 -79 rlineto
            18 return
          </CharString>
          <CharString index="217">
            1235 rmoveto
            725 hlineto
            48 226 rlineto
            -724 hlineto
            return
          </CharString>
          <CharString index="218">
            1153 rmoveto
            125 102 100 120 114 -89 91 return
          </CharString>
          <CharString index="219">
            -191 192 -314 -372 -286 -258 -349 return
          </CharString>
          <CharString index="220">
            387 148 466 227 121 70 -105 -258 return
          </CharString>
          <CharString index="221">
            200 122 85 129 107 -94 75 -139 6 hvcurveto
            return
          </CharString>
          <CharString index="222">
            1363 rmoveto
            -134 133 -85 175 232 return
          </CharString>
          <CharString index="223">
            -21 -51 hhcurveto
            -30 -32 7 11 -36 hvcurveto
            -42 12 rlineto
            16 return
          </CharString>
          <CharString index="224">
            rmoveto
            -420 -219 -340 -314 -18 vhcurveto
            -37 -2 return
          </CharString>
          <CharString index="225">
            -415 184 0 336 402 rlineto
            13 vlineto
            return
          </CharString>
          <CharString index="226">
            -36 hvcurveto
            -20 -92 rlineto
            -37 47 79 -23 92 hhcurveto
            endchar
          </CharString>
          <CharString index="227">
            -59 -61 27 -73 hhcurveto
            -121 -8 callgsubr
            return
          </CharString>
          <CharString index="228">
            -68 -22 -106 56 -18 rlineto
            51 -17 9 -20 -13 -62 return
          </CharString>
          <CharString index="229">
            rmoveto
            674 hlineto
            44 204 rlineto
            -674 hlineto
            endchar
          </CharString>
          <CharString index="230">
            1576 rmoveto
            -122 118 callsubr
            return
          </CharString>
          <CharString index="231">
            1300 1071 -19 135 callsubr
            return
          </CharString>
          <CharString index="232">
            -760 0 -23 -110 119 -23 18 -19 return
          </CharString>
          <CharString index="233">
            -759 0 -24 -110 120 -16 17 -26 return
          </CharString>
          <CharString index="234">
            -131 hlineto
            -54 -18 43 callsubr
            endchar
          </CharString>
          <CharString index="235">
            91 -303 172 -72 -56 callsubr
            return
          </CharString>
          <CharString index="236">
            36 61 44 hvcurveto
            22 106 rlineto
            -11 -13 -21 -8 return
          </CharString>
          <CharString index="237">
            36 hvcurveto
            40 -15 rlineto
            -18 49 51 -15 58 hhcurveto
            return
          </CharString>
          <CharString index="238">
            rmoveto
            752 hlineto
            33 154 rlineto
            -752 hlineto
            return
          </CharString>
          <CharString index="239">
            rmoveto
            -93 82 -74 101 107 88 78 95 44 -18 41 -28 31 vhcurveto
            3 19 20 2 20 hhcurveto
            142 83 -84 -212 -37 hvcurveto
            -6 -29 -174 -18 rlineto
            -351 -34 -165 -123 -184 vvcurveto
            -160 128 -95 174 188 150 99 213 44 vhcurveto
            -210 47 182 -103 185 hhcurveto
            194 154 83 100 72 hvcurveto
            23 111 rlineto
            -39 -47 -81 -28 -80 hhcurveto
            -139 -97 87 199 -13 hvcurveto
            13 hlineto
            424 37 126 116 1 159 rrcurveto
            163 1 -154 99 -224 hhcurveto
            -135 -118 -38 -75 -97 hvcurveto
            75 -82 -113 38 -152 hhcurveto
            -281 -176 -113 -161 hvcurveto
            1136 138 rmoveto
            52 20 -55 -62 -2 hvcurveto
            -3 -97 -67 -100 -168 -20 rrcurveto
            193 11 68 141 89 hhcurveto
            -847 -635 rmoveto
            84 57 78 157 24 vhcurveto
            51 7 -10 -56 rlineto
            -143 -24 -58 -94 -86 hhcurveto
            -52 -35 35 65 hvcurveto
            endchar
          </CharString>
          <CharString index="240">
            rmoveto
            -1204 hlineto
            -741 -1094 -131 -193 -51 -32 -101 -15 rlinecurve
            -24 -110 472 0 23 110 -121 22 -13 45 112 171 rlinecurve
            134 206 418 0 -59 -298 -20 -104 -26 -21 -140 -21 rlinecurve
            -24 -110 1235 0 108 459 rlineto
            -100 hlineto
            -113 -256 -75 -57 -221 -12 rrcurveto
            -181 -7 107 545 118 -2 87 -3 20 -34 -4 -167 rlinecurve
            99 hlineto
            106 535 rlineto
            -98 hlineto
            -59 -159 -34 -38 -91 -3 rrcurveto
            -119 -2 102 518 160 -7 225 -10 30 -48 16 -235 rlinecurve
            101 hlineto
            -1074 298 rmoveto
            74 hlineto
            -123 -621 rlineto
            -355 hlineto
            endchar
          </CharString>
          <CharString index="241">
            rmoveto
            252 -128 140 -181 -157 -124 -87 -156 -61 vhcurveto
            55 233 -560 -66 80 callsubr
            -13 -62 rlinecurve
            -214 -1003 -15 -67 -20 -19 -117 -23 rlinecurve
            -23 -111 746 0 24 111 rlineto
            -160 26 -15 15 14 69 62 317 rcurveline
            -57 40 83 -45 117 hhcurveto
            314 238 292 402 hvcurveto
            -441 11 rmoveto
            -208 -69 -323 -164 -49 28 callgsubr
          </CharString>
          <CharString index="242">
            rmoveto
            132 112 69 84 53 hvcurveto
            23 110 rlineto
            -14 -20 -25 -9 -29 hhcurveto
            -47 -42 34 112 -37 hvcurveto
            -120 366 37 28 158 118 90 47 112 24 rlinecurve
            19 89 -513 0 -18 -89 126 -17 24 -35 -113 -95 rlinecurve
            -291 -244 201 948 -576 -63 -22 -106 57 -18 52 -18 9 -19 -13 -63 rlinecurve
            -260 -1220 433 0 92 431 47 35 50 -178 rlineto
            -204 57 87 -103 155 hhcurveto
            return
          </CharString>
          <CharString index="243">
            rmoveto
            -606 hlineto
            -24 -110 129 -14 15 -58 -23 -102 rlinecurve
            -188 -854 -32 -143 -27 -30 -124 -22 rlinecurve
            -24 -111 455 0 22 111 -127 25 -14 22 28 149 rlinecurve
            146 742 401 -1049 411 0 255 1150 29 132 25 29 125 23 rlinecurve
            23 110 -454 0 -23 -110 rlineto
            128 -25 14 -23 -25 -136 -136 -692 rcurveline
            return
          </CharString>
          <CharString index="244">
            rmoveto
            146 102 85 141 28 hvcurveto
            -131 hlineto
            -45 -10 -30 -22 -52 hhcurveto
            -30 -32 8 11 -36 hvcurveto
            -42 12 rlineto
            15 -51 -53 14 -60 hhcurveto
            -144 -103 -85 -141 -28 hvcurveto
            132 hlineto
            45 10 30 22 51 -60 callgsubr
            54 -14 58 hhcurveto
            -336 -1582 -101 callsubr
            -106 callsubr
            -107 callsubr
            -99 callsubr
          </CharString>
          <CharString index="245">
            59 vhcurveto
            -3 -16 -2 -29 -16 vvcurveto
            -134 -4 75 -65 131 hhcurveto
            150 131 65 86 71 hvcurveto
            24 111 rlineto
            -18 -26 -31 -9 -33 hhcurveto
            -51 -20 34 81 18 hvcurveto
            249 1175 -576 -63 -22 -106 57 -18 rlineto
            51 -18 10 -19 -13 -63 -55 -259 rcurveline
            93 callgsubr
            return
          </CharString>
          <CharString index="246">
            rmoveto
            145 102 85 141 28 hvcurveto
            -131 hlineto
            -45 -10 -30 -22 -51 hhcurveto
            -30 -32 8 11 -37 hvcurveto
            -41 12 rlineto
            15 -52 -52 14 -60 hhcurveto
            -145 -102 -85 -141 -28 hvcurveto
            131 hlineto
            45 10 30 22 52 hhcurveto
            30 31 -8 -10 37 hvcurveto
            41 -13 rlineto
            -15 52 53 -14 59 hhcurveto
            endchar
          </CharString>
          <CharString index="247">
            -47 -49 -83 -26 -74 hhcurveto
            -147 -110 97 227 233 110 164 146 7 6 0 -1 7 hvcurveto
            -60 -29 -38 -60 -70 vvcurveto
            -101 80 -71 99 108 87 76 112 151 -132 132 -250 -362 -258 -260 -353 return
          </CharString>
          <CharString index="248">
            1572 711 240 rmoveto
            89 419 78 0 186 -659 516 0 23 106 -54 28 -21 32 -70 228 rlinecurve
            -183 612 110 94 203 174 66 35 135 25 rlinecurve
            24 110 -531 0 200 callsubr
            return
          </CharString>
          <CharString index="249">
            -50 hhcurveto
            -29 -31 9 13 -36 hvcurveto
            -40 14 rlineto
            18 -49 -52 15 -57 hhcurveto
            -142 -103 -99 -166 -34 hvcurveto
            129 hlineto
            54 12 30 24 50 hhcurveto
            29 31 -8 -13 35 hvcurveto
            40 -15 rlineto
            -18 49 52 -15 58 hhcurveto
            endchar
          </CharString>
          <CharString index="250">
            rmoveto
            230 114 87 92 90 hvcurveto
            24 109 rlineto
            -48 -66 -118 -39 -115 hhcurveto
            -92 -51 32 63 59 29 40 106 35 hvcurveto
            52 17 rlineto
            214 68 110 90 195 vvcurveto
            181 return
          </CharString>
          <CharString index="251">
            rmoveto
            322 4 235 170 251 vvcurveto
            153 -101 -90 callgsubr
            69 callgsubr
            endchar
          </CharString>
          <CharString index="252">
            rmoveto
            414 -1 -326 208 -445 hhcurveto
            241 callsubr
            -205 -964 -59 callgsubr
            657 hlineto
            618 452 318 504 hvcurveto
            return
          </CharString>
          <CharString index="253">
            1338 1389 670 97 callgsubr
            193 callsubr
            return
          </CharString>
          <CharString index="254">
            26 119 -251 0 37 157 -438 -32 -26 -125 -142 0 -26 -119 142 0 -256 -1205 434 -67 callsubr
            return
          </CharString>
          <CharString index="255">
            rmoveto
            200 180 100 227 62 hvcurveto
            -116 31 rlineto
            -145 -44 -120 -89 -128 hhcurveto
            -14 -13 0 2 -12 hvcurveto
            28 24 19 37 42 vvcurveto
            94 return
          </CharString>
          <CharString index="256">
            1168 rmoveto
            242 149 158 259 6 hvcurveto
            -126 hlineto
            -95 -17 -102 -56 -139 hhcurveto
            -120 -84 63 80 hvcurveto
            3 0 3 2 vvcurveto
            return
          </CharString>
          <CharString index="257">
            hhcurveto
            181 153 38 62 95 hvcurveto
            86 405 -103 -1 rlineto
            -216 -79 -142 -140 -142 hhcurveto
            -168 -106 147 257 hvcurveto
            endchar
          </CharString>
          <CharString index="258">
            -18 -87 rlinecurve
            -194 -908 -67 -318 -94 -145 -238 -142 rlinecurve
            29 -88 493 149 264 172 78 365 rlinecurve
            return
          </CharString>
          <CharString index="259">
            1179 rmoveto
            121 105 80 310 40 hvcurveto
            -127 hlineto
            -107 51 callsubr
            79 callgsubr
            18 33 32 return
          </CharString>
          <CharString index="260">
            -153 -616 260 callsubr
            -1138 -733 rmoveto
            5 callgsubr
            1083 -729 115 callgsubr
            return
          </CharString>
          <CharString index="261">
            -46 -47 -83 -27 -80 hhcurveto
            -123 -98 74 callgsubr
            147 -148 100 -231 -359 -276 -256 -357 return
          </CharString>
          <CharString index="262">
            -48 hvcurveto
            -17 -78 rlineto
            15 26 48 12 47 hhcurveto
            70 39 -25 -46 -48 -43 -47 -99 -69 callgsubr
            -94 64 -112 vhcurveto
            return
          </CharString>
          <CharString index="263">
            0 226 1063 19 91 23 18 123 21 rlinecurve
            72 callsubr
            120 -20 18 -19 -20 -91 rlinecurve
            endchar
          </CharString>
          <CharString index="264">
            -287 190 -192 314 hvcurveto
            14 142 rmoveto
            -59 -33 57 127 100 callsubr
            hvcurveto
            return
          </CharString>
          <CharString index="265">
            -30 143 rmoveto
            -122 -69 105 258 113 callsubr
            -389 -149 -464 -226 hvcurveto
            return
          </CharString>
          <CharString index="266">
            rmoveto
            208 69 323 163 50 31 -25 -30 8 vhcurveto
            -97 -454 rlineto
            -118 -27 -53 -68 return
          </CharString>
          <CharString index="267">
            447 1204 rmoveto
            -204 -964 rlineto
            -19 -91 -25 -18 -130 -21 -23 -110 rcurveline
            return
          </CharString>
          <CharString index="268">
            80 97 hvcurveto
            92 -1 -75 73 -98 hhcurveto
            -105 -85 -80 -99 1 hvcurveto
            -90 1 74 -73 100 hhcurveto
            return
          </CharString>
          <CharString index="269">
            -34 -48 -43 hvcurveto
            -20 -85 rlineto
            6 20 34 5 27 hhcurveto
            48 44 67 callsubr
            return
          </CharString>
          <CharString index="270">
            80 248 86 hhcurveto
            43 24 -47 -101 2 hvcurveto
            -259 4 -80 -250 -87 hhcurveto
            return
          </CharString>
          <CharString index="271">
            253 1190 35 -2 rlineto
            169 -11 113 -158 -239 vvcurveto
            return
          </CharString>
          <CharString index="272">
            130 108 96 132 118 -75 callgsubr
            132 hvcurveto
            endchar
          </CharString>
          <CharString index="273">
            -17 -72 -15 -19 -80 -9 rlinecurve
            -16 -73 284 0 15 73 -76 10 -6 16 return
          </CharString>
          <CharString index="274">
            45 hhcurveto
            30 27 -12 -22 31 hvcurveto
            31 -23 rlineto
            -42 59 62 -28 72 hhcurveto
            return
          </CharString>
          <CharString index="275">
            15 53 hhcurveto
            79 44 -30 -54 -56 -49 -55 -112 -63 hvcurveto
            128 hlineto
            return
          </CharString>
          <CharString index="276">
            0 780 1899 rmoveto
            40 189 -793 -192 -19 -87 rlineto
            return
          </CharString>
          <CharString index="277">
            -32 -91 69 -148 hhcurveto
            -314 -238 -292 -401 hvcurveto
            441 return
          </CharString>
          <CharString index="278">
            -2444 rmoveto
            226 hlineto
            519 2444 rlineto
            -226 hlineto
            return
          </CharString>
          <CharString index="279">
            1871 131 callsubr
            88 -478 82 callsubr
            return
          </CharString>
          <CharString index="280">
            1861 rmoveto
            -376 -11 hlineto
            344 -313 rlineto
            109 hlineto
            return
          </CharString>
          <CharString index="281">
            1861 rmoveto
            -376 -11 hlineto
            344 -313 rlineto
            108 hlineto
            return
          </CharString>
          <CharString index="282">
            72 71 86 80 -61 65 -83 -87 -72 -70 -88 -1 hvcurveto
            -80 62 -64 return
          </CharString>
          <CharString index="283">
            rmoveto
            -305 -40 146 -174 260 hhcurveto
            182 131 94 169 59 hvcurveto
            -141 3 109 -122 195 hhcurveto
            359 234 311 347 39 hvcurveto
            270 29 -96 158 -172 hhcurveto
            -153 -99 -153 -180 16 hvcurveto
            182 -23 79 -121 -15 -152 rrcurveto
            -151 -15 -102 -93 -115 hhcurveto
            -142 -74 114 325 84 hvcurveto
            42 169 -332 0 -49 -233 rlineto
            -297 -63 -51 -78 -89 hhcurveto
            -101 -25 93 179 23 hvcurveto
            26 204 85 200 128 117 rrcurveto
            -52 80 -323 -42 -262 -244 -41 -321 rlinecurve
            endchar
          </CharString>
          <CharString index="284">
            143 666 rlineto
            115 24 60 64 60 hhcurveto
            53 29 -49 -88 -18 hvcurveto
            -146 -708 431 0 139 662 rlineto
            116 25 60 67 60 hhcurveto
            53 29 -49 -89 -18 hvcurveto
            -89 -433 rlineto
            -199 -41 79 -93 169 hhcurveto
            151 133 64 87 72 hvcurveto
            23 111 rlineto
            -18 -24 -32 -9 -33 hhcurveto
            -51 -20 34 81 17 hvcurveto
            75 352 rlineto
            239 51 -89 139 -222 hhcurveto
            -158 -135 -101 -149 -59 hvcurveto
            139 7 -90 111 -198 hhcurveto
            -166 -133 -96 -170 -67 hvcurveto
            53 256 -11 callsubr
            return
          </CharString>
          <CharString index="285">
            161 -46 147 -90 116 hvcurveto
            171 157 -83 90 -173 -158 rlineto
            100 -118 -164 60 -207 hhcurveto
            -511 -107 callsubr
            hvcurveto
            -4 -162 46 -149 92 -116 rrcurveto
            -167 -154 83 -90 170 156 rlineto
            -99 119 165 -59 206 hhcurveto
            154 1359 rmoveto
            105 67 -79 -189 16 hvcurveto
            -562 -517 rlineto
            372 16 144 413 214 hhcurveto
            -184 -1216 rmoveto
            -105 -66 78 188 -17 hvcurveto
            562 517 rlineto
            -373 -17 -145 -410 -212 hhcurveto
            endchar
          </CharString>
          <CharString index="286">
            rmoveto
            251 222 92 150 118 hvcurveto
            17 111 rlineto
            -67 -84 -144 -48 -142 hhcurveto
            -137 -70 45 67 2 hvcurveto
            88 1 90 34 150 hhcurveto
            77 hlineto
            -15 247 rlineto
            -63 hlineto
            -172 -38 50 63 3 hvcurveto
            69 3 65 57 161 hhcurveto
            54 50 -7 -12 41 hvcurveto
            -33 -27 -21 -42 -48 vvcurveto
            -83 57 -63 102 88 65 70 87 123 -103 130 -352 -349 -224 -124 -198 -6 vhcurveto
            -4 -112 72 -87 154 -27 -186 -23 -135 -92 -4 -148 rrcurveto
            -172 -6 158 -103 287 hhcurveto
            endchar
          </CharString>
          <CharString index="287">
            rmoveto
            172 115 91 148 97 hvcurveto
            -154 22 68 -79 148 hhcurveto
            103 101 54 50 51 hvcurveto
            24 113 rlineto
            -6 -10 -28 -6 -24 hhcurveto
            -72 -55 19 216 -40 hvcurveto
            -15 87 348 529 rlineto
            -382 hlineto
            -7 -26 -40 -105 -41 -106 rrcurveto
            157 -39 -92 105 -193 hhcurveto
            -303 -206 -224 -345 -44 hvcurveto
            -339 -45 167 -179 220 hhcurveto
            110 565 rmoveto
            254 31 54 102 80 hhcurveto
            69 23 -87 -271 8 hvcurveto
            1 -124 rlineto
            -140 -70 -62 -64 -66 hhcurveto
            -75 -25 92 238 32 hvcurveto
            endchar
          </CharString>
          <CharString index="288">
            356 228 214 378 82 hvcurveto
            171 783 rlineto
            -4 25 26 -3 27 hhcurveto
            182 2 121 87 146 vvcurveto
            118 -77 102 -94 47 vhcurveto
            -109 hlineto
            11 -18 6 -33 -34 vvcurveto
            -169 -105 -142 -215 vhcurveto
            -86 hlineto
            -23 -110 rlineto
            129 -26 13 -24 -23 -113 -122 -593 rcurveline
            -244 -51 -129 -126 -181 hhcurveto
            -175 -108 117 293 62 hvcurveto
            123 585 19 88 23 17 136 26 rlinecurve
            23 110 -753 0 -23 -110 111 -24 16 -18 -18 -89 rlinecurve
            return
          </CharString>
          <CharString index="289">
            rmoveto
            369 283 259 348 111 -29 98 -54 77 hvcurveto
            128 112 -78 89 -131 -116 rlineto
            67 -84 -114 38 -137 hhcurveto
            -371 -281 -260 -347 -114 30 -99 56 -78 hvcurveto
            -119 -104 78 -88 123 108 rlineto
            -65 83 113 -36 135 hhcurveto
            139 944 rmoveto
            62 33 -58 -131 1 hvcurveto
            -307 -269 rlineto
            214 26 74 244 111 hhcurveto
            -125 -805 rmoveto
            -61 -34 56 125 -1 hvcurveto
            305 269 rlineto
            -213 -26 -73 -237 -110 hhcurveto
            endchar
          </CharString>
          <CharString index="290">
            rmoveto
            -115 86 -90 139 191 138 122 294 218 vhcurveto
            573 774 95 129 34 26 118 19 rlinecurve
            24 110 -474 0 -24 -110 143 -20 3 -23 -86 -128 rlinecurve
            -307 -448 -134 467 -32 111 9 23 145 18 rlinecurve
            24 110 -790 0 -24 -110 110 -20 18 -26 39 -114 rlinecurve
            304 -892 -51 -67 -45 -49 -53 -31 rlinecurve
            3 13 2 13 13 vvcurveto
            118 -88 83 -106 -115 -87 -90 -110 vhcurveto
            endchar
          </CharString>
          <CharString index="291">
            rmoveto
            -6 -35 -128 -33 -21 -102 131 0 -131 -867 -28 -179 -41 -96 -62 -39 rlinecurve
            11 22 7 24 27 vvcurveto
            90 -69 75 -85 -91 -75 -72 -96 -134 111 -95 162 309 229 207 714 120 vhcurveto
            72 426 247 -7 35 159 -267 -12 17 112 26 182 53 82 86 11 rlinecurve
            -25 -29 -16 -38 -42 vvcurveto
            -88 72 -72 88 92 74 74 91 141 -140 102 -220 -284 -192 -183 -320 -61 vhcurveto
            endchar
          </CharString>
          <CharString index="292">
            699 1205 rmoveto
            2 -101 -148 -22 -112 -3 -16 -81 rcurveline
            1 15 14 1 27 hhcurveto
            75 87 -28 -96 hvcurveto
            -105 2 -77 -58 -81 hhcurveto
            -25 -25 4 9 -22 hvcurveto
            25 18 17 29 33 vvcurveto
            58 -44 41 -58 -62 -42 256 callsubr
            183 -1 vhcurveto
            -2 88 -67 70 -120 31 128 12 112 63 -2 110 rrcurveto
            131 -141 61 -131 -156 -143 -79 -171 -54 vhcurveto
            64 -23 rlineto
            76 40 57 35 74 hhcurveto
            79 48 -41 -54 1 hvcurveto
            return
          </CharString>
          <CharString index="293">
            18 88 rlinecurve
            5 23 563 656 -144 -679 -19 -91 -24 -18 -123 -21 rlinecurve
            -23 -110 751 0 23 110 -120 20 -17 19 19 91 rlinecurve
            205 964 19 91 24 18 130 21 rlinecurve
            24 -34 callgsubr
            -21 16 -18 -19 -91 rlinecurve
            -5 -21 -563 -656 144 677 19 88 23 19 124 23 rlinecurve
            72 callsubr
            119 -23 18 -19 -19 -88 rlinecurve
            -204 -964 -19 -88 -25 -19 -130 -23 rlinecurve
            endchar
          </CharString>
          <CharString index="294">
            rmoveto
            125 110 68 85 57 hvcurveto
            24 111 rlineto
            -15 -25 -23 -8 -33 hhcurveto
            -56 -45 30 86 -34 hvcurveto
            -146 364 28 28 15 17 14 16 13 15 rlinecurve
            -61 30 60 -40 71 hhcurveto
            109 94 89 109 -2 hvcurveto
            102 -1 -80 85 -110 hhcurveto
            -112 -57 -61 -116 -93 hvcurveto
            -297 -375 116 542 -577 -66 -51 callsubr
            -89 callsubr
            97 456 75 -224 rlineto
            -172 53 87 -79 161 hhcurveto
            endchar
          </CharString>
          <CharString index="295">
            445 hlineto
            131 646 rlineto
            162 37 69 31 52 hhcurveto
            72 26 -63 -101 -21 hvcurveto
            -14 -66 -196 -920 -36 -149 rrcurveto
            456 hlineto
            1 6 224 1127 1 8 rrcurveto
            259 51 -101 122 -215 hhcurveto
            -181 -128 -92 -166 -78 hvcurveto
            161 9 -65 90 -179 hhcurveto
            -104 -108 -31 -40 -78 hvcurveto
            -22 -105 rlineto
            3 11 10 2 19 hhcurveto
            64 37 -36 -94 -20 hvcurveto
            -8 -41 -125 -584 -36 -129 rrcurveto
            endchar
          </CharString>
          <CharString index="296">
            17 -16 2 -48 37 -790 rcurveline
            332 hlineto
            109 123 107 168 74 162 10 -453 rcurveline
            325 hlineto
            261 235 339 396 226 vvcurveto
            124 -91 84 -118 -115 -94 -81 -116 -110 88 -89 109 vhcurveto
            1 hlineto
            -58 -156 -114 -153 -137 -137 rrcurveto
            -14 833 -405 -63 4 -173 -10 -200 -85 -184 -114 -163 rlinecurve
            return
          </CharString>
          <CharString index="297">
            60 -20 12 -16 5 -55 rlinecurve
            82 -964 -103 -73 -199 -104 -138 -61 rlinecurve
            -37 431 vlineto
            55 68 58 66 60 67 90 99 95 109 80 97 282 339 179 317 -2 154 rrcurveto
            124 -1 -92 84 -119 hhcurveto
            -114 -93 -82 -117 1 hvcurveto
            2 -109 88 -89 109 1 5 0 6 0 5 1 -57 -168 -121 -176 -140 -173 rrcurveto
            return
          </CharString>
          <CharString index="298">
            234 -97 204 -181 118 hvcurveto
            -8 46 51 -4 54 hhcurveto
            195 142 88 142 113 -75 103 -109 50 hvcurveto
            -109 hlineto
            12 -18 5 -33 -34 vvcurveto
            -170 -115 -140 -169 vhcurveto
            -125 -87 28 -148 hhcurveto
            -511 -107 callsubr
            hvcurveto
            489 -167 rmoveto
            113 callsubr
            -390 -149 -463 -226 -122 -69 105 258 vhcurveto
            return
          </CharString>
          <CharString index="299">
            -25 hhcurveto
            -67 -48 73 101 40 9 35 14 25 hvcurveto
            499 9 317 362 458 vvcurveto
            -106 callsubr
            -107 callsubr
            vhcurveto
            -8 -338 209 -277 381 -50 rrcurveto
            -156 -74 -76 -94 -99 vvcurveto
            -117 114 -82 161 vhcurveto
            55 601 rmoveto
            -121 -70 105 258 113 callsubr
            -390 -149 -463 -226 hvcurveto
            endchar
          </CharString>
          <CharString index="300">
            -63 vhcurveto
            149 659 -576 -63 -22 -106 57 -18 52 -18 9 -19 -13 -63 rlinecurve
            -260 -1220 264 0 152 124 rlineto
            -79 32 91 -69 147 hhcurveto
            315 238 292 402 hvcurveto
            -441 11 rmoveto
            -208 -70 -323 -163 -50 -30 25 30 -9 vhcurveto
            97 454 rlineto
            118 27 53 68 63 hhcurveto
            49 33 -43 -121 hvcurveto
            return
          </CharString>
          <CharString index="301">
            rmoveto
            105 102 39 58 48 hvcurveto
            22 106 rlineto
            -11 -16 -24 -8 -27 hhcurveto
            -68 -45 74 96 45 11 40 16 28 hvcurveto
            333 32 249 246 326 vvcurveto
            286 112 callsubr
            -258 154 -182 260 -33 vhcurveto
            -154 -75 -74 -91 -102 vvcurveto
            -114 103 -87 168 vhcurveto
            61 605 rmoveto
            -59 -33 57 127 100 callsubr
            hvcurveto
            endchar
          </CharString>
          <CharString index="302">
            -461 0 -24 -110 122 -12 9 -40 -75 -166 rlinecurve
            -336 -733 -45 736 -10 165 17 28 131 22 rlinecurve
            23 110 -737 0 -23 -110 120 -13 9 -60 -65 -140 rlinecurve
            -339 -739 -40 738 -8 158 17 34 134 22 rlinecurve
            24 110 -766 0 -23 -110 97 -16 25 -27 16 -168 rlinecurve
            return
          </CharString>
          <CharString index="303">
            rmoveto
            -574 -68 -22 -106 65 -20 rlineto
            38 -14 14 -21 -12 -60 -67 -316 rcurveline
            -319 -68 175 -154 354 hhcurveto
            363 284 157 243 208 -179 93 -242 -91 -78 -12 -13 -43 hvcurveto
            -67 -325 rmoveto
            41 198 rlineto
            7 19 29 5 29 hhcurveto
            95 40 -63 -98 -133 -64 -141 -105 -77 -41 56 169 34 hvcurveto
            endchar
          </CharString>
          <CharString index="304">
            133 630 rlineto
            -3 19 21 -1 23 hhcurveto
            154 120 80 140 112 -76 88 -119 45 hvcurveto
            -94 hlineto
            10 -19 7 -33 -39 vvcurveto
            -158 -135 -125 -333 -38 vhcurveto
            -140 -17 -22 -105 45 -18 rlineto
            49 -21 13 -18 -14 -62 -84 -384 rcurveline
            -118 -26 -66 -63 -62 hhcurveto
            -60 -33 48 96 20 hvcurveto
            return
          </CharString>
          <CharString index="305">
            664 hlineto
            548 342 157 292 hvcurveto
            -409 645 rmoveto
            -164 -109 -108 -174 -1 vhcurveto
            -75 hlineto
            106 496 39 -1 rlineto
            130 -5 83 -77 -140 vvcurveto
            -94 -643 rmoveto
            -185 -124 -133 -247 -6 vhcurveto
            -42 -1 122 568 74 -3 rlineto
            119 -5 98 -78 -157 vvcurveto
            return
          </CharString>
          <CharString index="306">
            140 -1125 383 0 613 1107 101 182 32 29 111 18 rlinecurve
            24 110 -468 0 -24 -110 132 -23 17 -35 -90 -170 rlinecurve
            -412 -785 -77 799 -15 154 27 37 142 22 rlinecurve
            24 111 -786 0 -24 -111 102 -17 26 -26 22 -167 rlinecurve
            return
          </CharString>
          <CharString index="307">
            -23 -110 114 -19 13 -43 -122 -121 rlinecurve
            -359 -357 -76 0 87 410 18 88 23 21 118 21 rlinecurve
            23 110 -745 0 -23 -110 119 -23 17 -19 -18 -101 callgsubr
            -130 -23 rlinecurve
            -24 -110 745 0 24 110 -108 21 -15 21 19 88 rlinecurve
            return
          </CharString>
          <CharString index="308">
            1594 517 rmoveto
            244 -217 248 callsubr
            30 15 145 26 rlinecurve
            24 110 -779 0 -24 -110 rlineto
            119 -23 18 -19 -19 -88 -204 -965 rcurveline
            -19 -87 -25 -19 -130 -23 -23 -110 rcurveline
            811 hlineto
            428 309 191 326 hvcurveto
            return
          </CharString>
          <CharString index="309">
            1577 1600 449 rmoveto
            156 -117 147 -280 29 vhcurveto
            258 17 209 102 207 vvcurveto
            211 1 -202 126 -445 hhcurveto
            -671 hlineto
            -24 -110 rlineto
            121 -23 17 -18 -19 -90 -205 -963 -59 callgsubr
            198 callsubr
            return
          </CharString>
          <CharString index="310">
            rmoveto
            382 241 265 338 284 -213 199 -314 -382 -241 -265 -337 -285 212 -199 315 hvcurveto
            -10 142 rmoveto
            -64 -26 61 130 223 77 388 129 64 26 -60 -130 hvcurveto
            -223 -1 -77 -389 -128 hhcurveto
            endchar
          </CharString>
          <CharString index="311">
            -17 14 -22 -17 -83 -74 -361 rcurveline
            -15 -22 -35 -7 -36 hhcurveto
            -162 -107 136 267 379 198 423 272 162 91 -129 -231 7 hvcurveto
            101 -3 66 386 rlineto
            69 -104 -193 58 -212 hhcurveto
            -505 -379 -323 -498 -6 hvcurveto
            return
          </CharString>
          <CharString index="312">
            133 rmoveto
            96 -61 157 -46 169 -6 rrcurveto
            -44 -209 89 0 44 209 rlineto
            381 15 215 184 262 vvcurveto
            158 -98 108 -179 111 vhcurveto
            -112 73 rlineto
            -127 80 -45 33 -4 82 -3 100 80 61 134 1 187 1 return
          </CharString>
          <CharString index="313">
            -20 20 18 87 rlinecurve
            89 421 111 -2 89 -2 20 -35 -4 -167 rlinecurve
            95 hlineto
            114 535 rlineto
            -96 hlineto
            -62 -160 -35 -38 -93 -3 rrcurveto
            -112 -1 112 530 140 -6 227 -10 36 -48 14 -237 rlinecurve
            102 hlineto
            endchar
          </CharString>
          <CharString index="314">
            2020 rmoveto
            -95 -94 -34 -48 -63 hvcurveto
            -14 -66 rlineto
            14 35 61 13 49 hhcurveto
            85 33 -27 -34 -7 hvcurveto
            -8 -35 -46 -29 -98 -15 rrcurveto
            83 -52 170 25 99 53 19 89 rlinecurve
            87 18 -84 59 -143 hhcurveto
            -803 -523 rmoveto
            392 83 return
          </CharString>
          <CharString index="315">
            16 -16 3 -48 45 -790 rcurveline
            333 hlineto
            284 265 317 372 219 vvcurveto
            125 -93 84 -118 -114 -93 -81 -116 -110 88 -89 109 vhcurveto
            5 hlineto
            -60 -150 -112 -145 -142 -149 rrcurveto
            return
          </CharString>
          <CharString index="316">
            1925 rmoveto
            -218 -130 -142 -225 -5 hvcurveto
            108 hlineto
            87 17 91 50 127 hhcurveto
            110 76 -56 -71 hvcurveto
            -4 0 -3 -3 vvcurveto
            108 hlineto
            10 25 5 35 36 vvcurveto
            151 -121 120 -178 vhcurveto
            return
          </CharString>
          <CharString index="317">
            -484 rmoveto
            96 105 33 51 55 hvcurveto
            23 106 rlineto
            -11 -23 -27 -7 -36 hhcurveto
            -64 -44 32 63 76 57 67 114 64 hvcurveto
            101 57 -127 0 -157 -66 rlineto
            -244 -106 -73 -78 -109 vvcurveto
            -94 92 -78 152 vhcurveto
            endchar
          </CharString>
          <CharString index="318">
            -22 17 -20 -19 -88 rlinecurve
            -226 -1063 -384 0 227 1069 18 86 19 24 116 14 rlinecurve
            23 110 -722 0 -24 -110 108 -15 11 -22 -18 -87 rlinecurve
            -227 -1069 -384 156 callsubr
          </CharString>
          <CharString index="319">
            rmoveto
            225 137 142 233 5 hvcurveto
            -117 hlineto
            -86 -16 -94 -50 -130 hhcurveto
            -111 -79 57 72 -1 hvcurveto
            2 1 3 2 vvcurveto
            -117 hlineto
            -10 -25 -5 -35 -36 vvcurveto
            -156 1 127 -123 184 hhcurveto
            endchar
          </CharString>
          <CharString index="320">
            rmoveto
            -122 2 135 -77 175 hhcurveto
            232 124 102 108 -4 hvcurveto
            122 -3 -134 54 callgsubr
            45 54 57 hhcurveto
            43 28 -27 -50 2 hvcurveto
            -74 2 -44 -54 -57 hhcurveto
            -43 -28 27 50 -2 hvcurveto
            endchar
          </CharString>
          <CharString index="321">
            -443 -52 -133 -629 rlineto
            -109 -23 -53 -67 -72 hhcurveto
            -56 -26 47 89 19 hvcurveto
            151 721 -444 -49 -131 -633 rlineto
            -105 -23 -52 -70 -71 hhcurveto
            -56 -24 50 86 17 hvcurveto
            146 723 -570 return
          </CharString>
          <CharString index="322">
            14 -24 -25 -130 -117 -575 rcurveline
            -245 -50 -130 -126 -180 hhcurveto
            -176 -108 117 293 62 hvcurveto
            124 585 19 88 23 17 135 26 rlinecurve
            23 110 -752 0 -24 -110 return
          </CharString>
          <CharString index="323">
            2020 rmoveto
            -94 -94 -34 -48 -64 hvcurveto
            -14 -66 rlineto
            14 36 60 13 50 hhcurveto
            84 34 -27 -34 -7 hvcurveto
            -9 -35 -46 -29 -97 -15 rrcurveto
            83 -52 169 25 99 53 19 89 rlinecurve
            87 19 -85 59 -143 hhcurveto
            return
          </CharString>
          <CharString index="324">
            1573 rmoveto
            -92 -415 174 0 297 403 rlineto
            12 vlineto
            -701 -400 rmoveto
            101 82 80 98 92 -72 -52 callgsubr
            816 hmoveto
            102 82 80 98 92 -73 -52 callgsubr
            endchar
          </CharString>
          <CharString index="325">
            -19 -87 rlinecurve
            -204 -966 -19 -87 -25 -87 callgsubr
            788 0 24 110 -145 24 -21 17 19 88 rlinecurve
            228 1078 143 -6 234 -10 37 -43 9 -227 rlinecurve
            101 hlineto
            endchar
          </CharString>
          <CharString index="326">
            rrcurveto
            165 1 121 78 132 hhcurveto
            16 16 -1 -2 15 hvcurveto
            -39 -27 -26 -45 -55 vvcurveto
            -95 70 -70 94 97 73 74 96 155 -158 111 -265 -346 -230 -184 -282 -4 vhcurveto
            return
          </CharString>
          <CharString index="327">
            1882 rmoveto
            40 190 -793 -193 -18 -87 rlineto
            359 -271 rmoveto
            167 122 49 75 16 hvcurveto
            75 16 -101 50 -167 hhcurveto
            -82 hlineto
            -167 -122 -50 -75 -16 hvcurveto
            -75 return
          </CharString>
          <CharString index="328">
            565 1467 rmoveto
            -125 -61 -76 -126 -5 hvcurveto
            -4 -72 10 -80 17 -127 rrcurveto
            28 -208 66 0 95 170 86 154 58 107 1 87 rlinecurve
            97 1 -58 74 -109 hhcurveto
            return
          </CharString>
          <CharString index="329">
            1151 177 287 rmoveto
            81 -55 155 -36 174 -6 rrcurveto
            -40 -190 85 0 40 189 rlineto
            409 7 149 175 189 vvcurveto
            136 -76 98 -198 74 vhcurveto
            return
          </CharString>
          <CharString index="330">
            851 1474 rmoveto
            -322 -4 -234 -170 -251 vvcurveto
            -154 100 -91 130 152 89 125 151 8 vhcurveto
            -98 10 -69 42 79 vvcurveto
            90 96 59 125 7 vhcurveto
            return
          </CharString>
          <CharString index="331">
            1842 rmoveto
            752 hlineto
            34 155 rlineto
            -753 hlineto
            309 -459 rmoveto
            79 62 51 72 -2 hvcurveto
            74 -1 -65 50 -80 hhcurveto
            -79 -62 -50 -74 2 hvcurveto
            -72 1 64 -51 81 hhcurveto
            return
          </CharString>
          <CharString index="332">
            0 -23 -110 rlineto
            155 -18 29 -39 -30 -132 -23 -93 -27 -112 -49 -179 -53 -212 -54 -178 -67 -119 rrcurveto
            77 -27 -68 47 -84 hhcurveto
            -122 -82 -93 -111 return
          </CharString>
          <CharString index="333">
            1584 rmoveto
            -132 -93 -43 -71 -56 hvcurveto
            -20 -92 rlineto
            17 29 -50 callgsubr
            -113 -63 hvcurveto
            129 hlineto
            217 70 91 68 106 vvcurveto
            111 -107 77 -127 vhcurveto
            return
          </CharString>
          <CharString index="334">
            -62 174 30 102 62 22 105 rlinecurve
            102 22 -85 69 -146 hhcurveto
            -783 -644 21 callsubr
            return
          </CharString>
          <CharString index="335">
            1741 rmoveto
            -122 120 -78 157 208 114 101 113 123 -120 77 -157 -208 -114 -101 -113 vhcurveto
            221 -19 rmoveto
            78 42 57 52 return
          </CharString>
          <CharString index="336">
            -90 -426 rcurveline
            -208 -45 84 -152 216 hhcurveto
            147 142 73 172 74 hvcurveto
            -146 -5 94 -99 193 hhcurveto
            151 147 90 177 70 hvcurveto
            -4 -16 return
          </CharString>
          <CharString index="337">
            1357 1048 1558 rmoveto
            218 130 -35 callgsubr
            -17 -91 -50 -127 hhcurveto
            -110 -76 56 71 4 -1 3 1 3 hvcurveto
            61 callgsubr
            return
          </CharString>
          <CharString index="338">
            -278 -1444 rmoveto
            238 hlineto
            30 141 106 0 37 246 callsubr
            -25 -122 rlineto
            371 hlineto
            38 177 rmoveto
            -210 hlineto
            271 283 rlineto
            endchar
          </CharString>
          <CharString index="339">
            1584 rmoveto
            -133 -93 -43 -71 -55 hvcurveto
            -20 -92 rlineto
            17 29 54 15 53 hhcurveto
            79 44 -30 -54 -56 -48 -55 -113 -63 hvcurveto
            128 hlineto
            -83 callgsubr
            return
          </CharString>
          <CharString index="340">
            -78 -11 rlinecurve
            -16 -73 465 0 15 73 -73 10 -8 14 9 45 rlinecurve
            98 528 9 45 13 13 80 10 rlinecurve
            15 73 -427 0 -206 -430 rlineto
            -1 hlineto
            return
          </CharString>
          <CharString index="341">
            1566 rmoveto
            711 -106 22 103 -686 226 rlineto
            return
          </CharString>
          <CharString index="342">
            1566 rmoveto
            47 223 -782 -226 -21 -103 rlineto
            return
          </CharString>
          <CharString index="343">
            1566 rmoveto
            47 223 -781 -226 -22 -103 rlineto
            return
          </CharString>
          <CharString index="344">
            1512 rmoveto
            734 hlineto
            39 181 rlineto
            -735 hlineto
            return
          </CharString>
          <CharString index="345">
            1512 rmoveto
            733 hlineto
            39 181 rlineto
            -734 hlineto
            return
          </CharString>
          <CharString index="346">
            1170 rmoveto
            214 184 116 237 60 hvcurveto
            return
          </CharString>
          <CharString index="347">
            -686 226 rlineto
            -139 -662 21 callsubr
            return
          </CharString>
          <CharString index="348">
            -648 hlineto
            -24 -110 rlineto
            121 -23 17 -19 -19 -88 return
          </CharString>
          <CharString index="349">
            -487 rmoveto
            103 87 129 callsubr
            -25 hhcurveto
            -67 -48 return
          </CharString>
          <CharString index="350">
            -411 rlineto
            102 hlineto
            79 32 27 17 82 hhcurveto
            297 hlineto
            return
          </CharString>
          <CharString index="351">
            -232 -126 -110 -126 vhcurveto
            246 -21 rmoveto
            88 return
          </CharString>
          <CharString index="352">
            -183 -324 114 0 463 313 rlineto
            10 vlineto
            return
          </CharString>
          <CharString index="353">
            177 -107 0 105 493 -193 0 -533 -548 return
          </CharString>
          <CharString index="354">
            -92 callgsubr
            -360 -10 hlineto
            141 -406 rlineto
            return
          </CharString>
          <CharString index="355">
            133 -331 1 vhcurveto
            -197 hlineto
            65 310 19 88 return
          </CharString>
          <CharString index="356">
            72 47 67 14 hvcurveto
            69 14 -51 46 -77 callgsubr
            return
          </CharString>
          <CharString index="357">
            45 11 29 22 52 -60 callgsubr
            53 -14 59 hhcurveto
            return
          </CharString>
          <CharString index="358">
            39 -164 4 rlinecurve
            44 205 -89 0 -44 -207 rlineto
            return
          </CharString>
          <CharString index="359">
            0 -126 374 -279 0 -280 -374 rlineto
            endchar
          </CharString>
          <CharString index="360">
            -1 hvcurveto
            97 -80 78 -104 -112 -90 -85 -106 1 vhcurveto
            -96 return
          </CharString>
          <CharString index="361">
            -23 rlineto
            76 40 56 35 75 hhcurveto
            79 48 -41 -55 hvcurveto
            endchar
          </CharString>
          <CharString index="362">
            -29 -6 -38 -40 vvcurveto
            -173 135 -137 198 vhcurveto
            return
          </CharString>
          <CharString index="363">
            -46 -56 -122 141 -65 134 198 189 97 return
          </CharString>
          <CharString index="364">
            -61 hhcurveto
            -104 -1 -90 -64 -32 -255 rrcurveto
            112 hlineto
            85 return
          </CharString>
          <CharString index="365">
            -82 rlineto
            1 2 35 1 5 hhcurveto
            66 34 -24 -38 -39 -39 return
          </CharString>
          <CharString index="366">
            hhcurveto
            407 hmoveto
            75 72 47 67 14 hvcurveto
            69 14 -51 46 return
          </CharString>
          <CharString index="367">
            rmoveto
            192 hlineto
            1291 1444 rlineto
            -192 hlineto
            return
          </CharString>
          <CharString index="368">
            rmoveto
            113 97 72 279 35 hvcurveto
            -118 hlineto
            -96 -17 return
          </CharString>
          <CharString index="369">
            rmoveto
            101 83 81 97 92 -72 74 -96 -96 callgsubr
            return
          </CharString>
          <CharString index="370">
            rrcurveto
            -58 -271 1020 0 84 363 rlineto
            -661 hlineto
            return
          </CharString>
        <CharString name=".notdef">
          2048 -14 -494 rmoveto
          227 hlineto
          519 2444 rlineto
          -227 hlineto
          -108 171 callsubr
          -110 171 callsubr
          -109 171 callsubr
          -110 -2444 rmoveto
          227 hlineto
          519 2444 rlineto
          -227 hlineto
          endchar
        </CharString>
        <CharString name=".null">
          0 endchar
        </CharString>
        <CharString name="A">
          1526 1402 321 -103 callsubr
        </CharString>
        <CharString name="AE">
          2041 2241 1444 133 callsubr
        </CharString>
        <CharString name="AEacute">
          2041 1540 -95 callsubr
          307 -418 133 callsubr
        </CharString>
        <CharString name="AEmacron">
          2041 1160 -60 callsubr
          43 200 rlineto
          -653 hlineto
          1039 -343 133 callsubr
        </CharString>
        <CharString name="Aacute">
          1526 1113 -95 callsubr
          -105 -1541 -103 callsubr
        </CharString>
        <CharString name="Abreve">
          1526 1092 96 callsubr
          -109 hlineto
          -9 107 callsubr
          310 -1237 -103 callsubr
        </CharString>
        <CharString name="Abreveacute">
          1526 1501 116 callgsubr
          316 -279 -17 callsubr
          -130 hlineto
          -54 -19 43 callsubr
          356 -1209 -103 callsubr
        </CharString>
        <CharString name="Abrevecyrillic">
          1526 1048 1553 148 callsubr
          -69 67 -84 -102 -68 -70 -101 -119 95 -100 186 vhcurveto
          354 -1232 -103 callsubr
        </CharString>
        <CharString name="Abrevedotbelow">
          1526 1092 96 callsubr
          -109 hlineto
          -9 107 callsubr
          310 -1237 rmoveto
          -33 callsubr
          38 callsubr
          -314 -700 -65 callsubr
        </CharString>
        <CharString name="Abrevegrave">
          1526 749 108 callsubr
          257 -558 -17 callsubr
          -130 hlineto
          -54 -19 43 callsubr
          356 -1209 -103 callsubr
        </CharString>
        <CharString name="Abrevehookabove">
          1526 1150 47 callgsubr
          89 36 -27 -34 -7 hvcurveto
          -9 -12 callgsubr
          -130 hlineto
          -54 -19 43 callsubr
          356 -1209 -103 callsubr
        </CharString>
        <CharString name="Abrevetilde">
          1526 1261 1839 rmoveto
          146 102 85 141 27 hvcurveto
          -131 hlineto
          -45 -9 -31 116 callsubr
          -51 -53 -79 callgsubr
          250 callsubr
          -215 -309 -17 callsubr
          -130 hlineto
          -54 -19 43 callsubr
          356 -1209 -103 callsubr
        </CharString>
        <CharString name="Acaron">
          1526 1340 -53 callsubr
          -21 callsubr
          -73 -1547 -103 callsubr
        </CharString>
        <CharString name="Acircumflex">
          1526 841 -62 callsubr
          180 -38 callgsubr
          685 -1218 -103 callsubr
        </CharString>
        <CharString name="Acircumflexacute">
          1526 1497 1880 -40 callgsubr
          -60 -293 -95 callgsubr
          -73 -56 callsubr
          719 -1267 -103 callsubr
        </CharString>
        <CharString name="Acircumflexdotbelow">
          1526 841 -62 callsubr
          180 -38 callgsubr
          685 -1218 rmoveto
          -33 callsubr
          38 callsubr
          -314 -700 -65 callsubr
        </CharString>
        <CharString name="Acircumflexgrave">
          1526 745 1880 rmoveto
          733 -90 18 87 -711 193 rlineto
          -120 -573 -95 callgsubr
          -73 -56 callsubr
          719 -1267 -103 callsubr
        </CharString>
        <CharString name="Acircumflexhookabove">
          1526 1467 216 callsubr
          -802 -523 -95 callgsubr
          -73 -56 callsubr
          719 -1267 -103 callsubr
        </CharString>
        <CharString name="Acircumflextilde">
          1526 1257 1821 rmoveto
          146 102 84 142 27 hvcurveto
          -131 hlineto
          -46 -9 -31 116 callsubr
          -51 -53 -79 callgsubr
          36 callgsubr
          -592 -324 -95 callgsubr
          -73 -56 callsubr
          719 -1267 -103 callsubr
        </CharString>
        <CharString name="Acyrillic">
          1526 1402 321 -103 callsubr
        </CharString>
        <CharString name="Adblgrave">
          1526 937 1859 rmoveto
          -304 106 callsubr
          -56 callgsubr
          163 -1216 -103 callsubr
        </CharString>
        <CharString name="Adieresis">
          1526 888 -79 callsubr
          61 callsubr
          hvcurveto
          -80 -1 62 -64 -8 callsubr
          86 -70 callgsubr
          138 -1228 -103 callsubr
        </CharString>
        <CharString name="Adieresismacron">
          1526 743 172 callsubr
          47 callsubr
          169 -1226 -103 callsubr
        </CharString>
        <CharString name="Adotaccent">
          1526 1076 -13 callsubr
          326 -1207 -103 callsubr
        </CharString>
        <CharString name="Adotbelow">
          1526 1402 321 rmoveto
          -33 callsubr
          38 callsubr
          -314 -700 -65 callsubr
        </CharString>
        <CharString name="Adotmacron">
          1526 736 224 callsubr
          324 -1217 -103 callsubr
        </CharString>
        <CharString name="Agrave">
          1526 1079 85 callgsubr
          246 -1216 -103 callsubr
        </CharString>
        <CharString name="Ahookabove">
          1526 1130 -16 callsubr
          -4 callgsubr
          272 -1565 -103 callsubr
        </CharString>
        <CharString name="Ainvertedbreve">
          1526 1089 209 callsubr
          313 -1604 -103 callsubr
        </CharString>
        <CharString name="Alphagreek">
          1526 1402 321 -103 callsubr
        </CharString>
        <CharString name="Alphatonosgreek">
          1526 1402 321 rmoveto
          -33 callsubr
          15 -154 -26 -37 -143 -22 rlinecurve
          -24 -111 787 0 -48 callgsubr
          -1074 1123 -66 callsubr
          -166 -858 rmoveto
          282 537 52 -537 rlineto
          endchar
        </CharString>
        <CharString name="Amacron">
          1526 733 -60 callsubr
          42 200 rlineto
          -652 hlineto
          627 -1466 -103 callsubr
        </CharString>
        <CharString name="Aogonek">
          1526 1117 -487 rmoveto
          102 87 36 61 45 hvcurveto
          22 106 rlineto
          -11 -14 -21 -8 -24 hhcurveto
          -68 -47 77 107 50 13 44 18 25 hvcurveto
          298 hlineto
          -48 callgsubr
          -33 callsubr
          rlineto
          15 -154 -26 -37 -143 -22 -24 -111 rcurveline
          343 hlineto
          87 callgsubr
          -557 1073 rmoveto
          282 537 52 -537 rlineto
          endchar
        </CharString>
        <CharString name="Aring">
          1526 793 228 callsubr
          37 25 -30 -53 -77 -42 -58 -51 -38 -25 30 53 vhcurveto
          388 -1401 -103 callsubr
        </CharString>
        <CharString name="Aringacute">
          1526 1497 220 callsubr
          -15 100 78 callgsubr
          31 21 45 hhcurveto
          29 hlineto
          44 22 -21 -32 -6 hvcurveto
          -32 -7 -32 -20 -44 hhcurveto
          328 -1272 -103 callsubr
        </CharString>
        <CharString name="Aringbelow">
          1526 1402 321 rmoveto
          -33 callsubr
          38 callsubr
          -657 -877 213 callsubr
        </CharString>
        <CharString name="Atilde">
          1526 1199 86 callgsubr
          -27 -26 -37 hhcurveto
          -25 -22 9 17 -24 hvcurveto
          4 callgsubr
          203 -1235 -103 callsubr
        </CharString>
        <CharString name="B">
          1578 1600 449 88 callsubr
        </CharString>
        <CharString name="Bdotaccent">
          1577 1099 -13 callsubr
          501 -1079 88 callsubr
        </CharString>
        <CharString name="Bdotbelow">
          202 callsubr
          -358 -565 rmoveto
          -101 -83 -80 -97 -92 72 -74 -70 callsubr
        </CharString>
        <CharString name="Becyrillic">
          1562 1593 477 rmoveto
          241 -215 132 -330 vhcurveto
          -206 hlineto
          97 464 216 -6 249 -8 42 -46 16 -223 rlinecurve
          105 hlineto
          77 413 -1291 0 -24 -110 rlineto
          121 -24 18 -18 -19 -88 -205 -965 rcurveline
          -18 -87 -25 -18 -132 -24 -23 -110 rcurveline
          812 hlineto
          426 309 175 302 hvcurveto
          -489 15 rmoveto
          -191 -122 -160 -228 -9 vhcurveto
          -65 -2 125 590 80 -1 rlineto
          126 -2 84 -69 -156 vvcurveto
          endchar
        </CharString>
        <CharString name="Betagreek">
          1577 1600 449 88 callsubr
        </CharString>
        <CharString name="Blinebelow">
          202 callsubr
          -724 -838 122 callsubr
        </CharString>
        <CharString name="C">
          1437 733 522 -44 callsubr
          10 callsubr
        </CharString>
        <CharString name="Cacute">
          1437 1219 -95 callsubr
          -880 -1340 -44 callsubr
          10 callsubr
        </CharString>
        <CharString name="Ccaron">
          1437 1445 -40 callsubr
          -98 callgsubr
          -323 75 callsubr
          -847 -1346 -44 callsubr
          10 callsubr
        </CharString>
        <CharString name="Ccedilla">
          1437 733 522 -44 callsubr
          -6 -419 277 -213 327 -43 rrcurveto
          -115 -114 -81 callsubr
          -21 -68 -1 hvcurveto
          -53 1 -43 15 -27 15 73 callsubr
          114 callsubr
          53 50 rlineto
          1 1 0 1 150 callsubr
        </CharString>
        <CharString name="Ccedillaacute">
          1437 1219 -95 callsubr
          -880 -1340 -44 callsubr
          -6 -419 277 -213 327 -43 rrcurveto
          -115 -114 -81 callsubr
          -21 -68 -1 hvcurveto
          -53 1 -43 15 -27 15 73 callsubr
          114 callsubr
          53 50 rlineto
          1 1 0 1 150 callsubr
        </CharString>
        <CharString name="Ccircumflex">
          1437 947 -62 callsubr
          40 callsubr
          -89 -1017 -44 callsubr
          10 callsubr
        </CharString>
        <CharString name="Cdotaccent">
          1437 1182 15 callsubr
          -95 -96 callgsubr
          -449 -1006 -44 callsubr
          10 callsubr
        </CharString>
        <CharString name="Checyrillic">
          1688 1080 239 rmoveto
          -19 -91 -32 -15 -148 -23 rrcurveto
          -24 -110 785 0 24 110 -121 20 -17 19 20 91 rlinecurve
          204 964 20 91 24 18 130 21 -28 callgsubr
          rlineto
          113 -21 17 -18 -20 -91 -93 -438 rcurveline
          -20 -64 -60 -12 -77 hhcurveto
          -115 -61 84 194 42 hvcurveto
          42 198 19 83 16 27 112 14 rlinecurve
          23 110 -732 0 -24 -110 rlineto
          122 -17 14 -23 -18 -84 -38 -178 rcurveline
          -325 -70 151 -150 358 hhcurveto
          146 97 31 32 86 hvcurveto
          endchar
        </CharString>
        <CharString name="Chigreek">
          1495 357 337 27 callsubr
        </CharString>
        <CharString name="D">
          1703 17 callsubr
          endchar
        </CharString>
        <CharString name="Dbar">
          1703 191 682 rmoveto
          146 hlineto
          -94 -442 rlineto
          -18 -88 -25 -19 -130 -23 -24 -110 rcurveline
          657 hlineto
          618 452 318 504 414 -327 208 -445 hvcurveto
          241 callsubr
          -86 -406 rcurveline
          -146 hlineto
          1041 109 117 callsubr
          118 555 189 0 24 116 -189 0 111 520 35 -2 rlineto
          169 -12 113 -158 -239 vvcurveto
          endchar
        </CharString>
        <CharString name="Dcaron">
          1703 1357 -40 callsubr
          -98 callgsubr
          -323 75 callsubr
          281 -1046 102 callsubr
          endchar
        </CharString>
        <CharString name="Dcircumflexbelow">
          1703 17 callsubr
          -846 -1379 -69 callsubr
          122 0 -126 374 -63 callsubr
        </CharString>
        <CharString name="Dcommaaccent">
          1703 17 callsubr
          -641 -1389 -73 callsubr
          -76 callgsubr
          48 44 -19 -37 -36 -37 -21 -71 -43 -43 12 16 119 callsubr
        </CharString>
        <CharString name="Ddotaccent">
          1703 1094 15 callsubr
          -95 -96 callgsubr
          679 -706 102 callsubr
          endchar
        </CharString>
        <CharString name="Ddotbelow">
          1703 17 callsubr
          -586 -1021 -65 callsubr
        </CharString>
        <CharString name="Decyrillic">
          1571 655 803 rmoveto
          31 109 56 223 40 168 rrcurveto
          386 hlineto
          -247 -1162 rlineto
          -542 hlineto
          111 144 82 198 83 320 rrcurveto
          938 -662 rmoveto
          -203 hlineto
          226 1063 19 -107 callgsubr
          -1353 0 -23 -110 rlineto
          159 -18 26 -40 -34 -150 -21 -89 -31 -119 -35 -116 -83 -309 -94 -213 -125 -139 rrcurveto
          -145 hlineto
          -111 -470 rlineto
          108 hlineto
          258 118 84 71 255 hhcurveto
          569 hlineto
          256 58 -68 -261 7 hvcurveto
          107 hlineto
          endchar
        </CharString>
        <CharString name="Deltagreek">
          1423 35 hmoveto
          1330 hlineto
          19 94 -201 1350 -371 0 -758 -1350 rlineto
          189 37 rmoveto
          526 979 112 -979 rlineto
          endchar
        </CharString>
        <CharString name="Djecyrillic">
          1858 1888 435 rmoveto
          269 -194 137 -287 -132 -95 -25 -28 -82 vhcurveto
          71 callgsubr
          78 428 -1320 0 -97 callgsubr
          -24 callgsubr
          85 401 rcurveline
          17 57 54 10 68 hhcurveto
          112 67 -66 -138 -297 -152 -299 -294 -164 hvcurveto
          31 -91 rlineto
          568 156 310 288 379 vvcurveto
          endchar
        </CharString>
        <CharString name="Dlinebelow">
          1703 17 callsubr
          -952 -1294 -52 callsubr
        </CharString>
        <CharString name="Dzecyrillic">
          1255 631 -31 84 callsubr
          endchar
        </CharString>
        <CharString name="Dzhecyrillic">
          1716 160 callsubr
          550 hlineto
          127 19 -36 -287 -6 hvcurveto
          106 hlineto
          287 115 34 36 128 hhcurveto
          550 hlineto
          24 -19 callsubr
          204 964 19 -107 callgsubr
          -750 0 -24 -110 113 -22 16 -20 -19 -88 rlinecurve
          -226 -1063 -397 156 callsubr
        </CharString>
        <CharString name="E">
          1357 1560 1444 -96 callsubr
        </CharString>
        <CharString name="Eacute">
          1357 1070 -95 callsubr
          96 -418 -96 callsubr
        </CharString>
        <CharString name="Ebreve">
          230 callsubr
          512 -114 -96 callsubr
        </CharString>
        <CharString name="Ecaron">
          1357 1296 -40 callsubr
          57 callsubr
          75 callsubr
          129 -424 -96 callsubr
        </CharString>
        <CharString name="Ecedilla">
          1357 629 -482 rmoveto
          199 122 85 129 107 -93 75 -140 6 hvcurveto
          82 76 1 4 496 -35 callsubr
          -33 callgsubr
          120 -23 -42 callsubr
          0 callgsubr
        </CharString>
        <CharString name="Ecedillabreve">
          230 callsubr
          -419 -2040 rmoveto
          199 122 85 129 107 -93 75 -140 6 hvcurveto
          82 76 1 4 496 -35 callsubr
          -33 callgsubr
          120 -23 -42 callsubr
          0 callgsubr
        </CharString>
        <CharString name="Ecircumflex">
          1357 798 -62 callsubr
          40 callsubr
          887 -95 -96 callsubr
        </CharString>
        <CharString name="Ecircumflexacute">
          1357 1453 98 callgsubr
          358 -83 19 128 callsubr
          920 -144 -96 callsubr
        </CharString>
        <CharString name="Ecircumflexbelow">
          1357 1560 1444 rmoveto
          -1206 hlineto
          -24 -110 120 -23 -42 callsubr
          1249 -35 callsubr
          -1078 -1488 -69 callsubr
          -46 callsubr
          -63 callsubr
        </CharString>
        <CharString name="Ecircumflexdotbelow">
          1357 798 -62 callsubr
          40 callsubr
          887 -95 rmoveto
          -1206 hlineto
          -24 -110 120 -23 -42 callsubr
          1249 -35 callsubr
          -818 -1130 -78 callsubr
          -70 callsubr
        </CharString>
        <CharString name="Ecircumflexgrave">
          1357 701 84 callgsubr
          358 -83 19 128 callsubr
          920 -144 -96 callsubr
        </CharString>
        <CharString name="Ecircumflexhookabove">
          1357 1424 207 callsubr
          358 -83 19 128 callsubr
          920 -144 -96 callsubr
        </CharString>
        <CharString name="Ecircumflextilde">
          1357 1214 8 callgsubr
          -41 12 rlineto
          16 -52 -52 -79 callgsubr
          -6 callgsubr
          358 -83 19 128 callsubr
          920 -144 -96 callsubr
        </CharString>
        <CharString name="Ecyrillic">
          1443 733 522 rmoveto
          46 3 47 6 46 vhcurveto
          485 -9 36 162 -495 -9 rlineto
          280 68 162 239 204 hhcurveto
          161 90 -129 -231 7 hvcurveto
          101 -3 66 386 rlineto
          68 -104 -192 59 -211 hhcurveto
          -505 -377 -323 -498 -6 hvcurveto
          -473 -7 354 -210 379 hhcurveto
          182 152 38 62 95 hvcurveto
          87 405 -103 -1 rlineto
          -216 -80 -141 -140 -143 hhcurveto
          -167 -107 147 257 hvcurveto
          endchar
        </CharString>
        <CharString name="Edblgrave">
          1357 894 1859 rmoveto
          -305 106 callsubr
          -288 -8 hlineto
          116 -314 rlineto
          102 hlineto
          364 -93 -96 callsubr
        </CharString>
        <CharString name="Edieresis">
          1357 844 -79 callsubr
          -36 callsubr
          81 callsubr
          87 71 71 86 hvcurveto
          80 1 -62 65 -83 hhcurveto
          58 callsubr
          339 -105 -96 callsubr
        </CharString>
        <CharString name="Edotaccent">
          1357 1033 15 callsubr
          -96 -101 -85 callgsubr
          527 -84 -96 callsubr
        </CharString>
        <CharString name="Edotbelow">
          1357 1560 1444 rmoveto
          -1206 hlineto
          -24 -110 120 -23 -42 callsubr
          1249 -35 callsubr
          -818 -1130 -78 callsubr
          -70 callsubr
        </CharString>
        <CharString name="Efcyrillic">
          2140 173 670 rmoveto
          -259 213 -154 507 -27 vhcurveto
          -6 -30 -16 -78 -23 -21 -139 -17 rlinecurve
          -24 -111 753 0 23 111 rlineto
          -130 17 -15 20 16 79 7 29 rcurveline
          680 34 249 233 278 vvcurveto
          259 -213 154 -508 27 vhcurveto
          7 30 16 78 23 21 139 17 rlinecurve
          23 111 -752 0 -24 -111 rlineto
          130 -17 16 -20 -17 -79 -6 -30 rcurveline
          -681 -33 -248 -233 -278 vvcurveto
          509 -11 rmoveto
          211 100 156 289 42 vhcurveto
          -146 -688 rlineto
          -183 36 -60 103 140 vvcurveto
          1077 126 rmoveto
          -1 -211 -99 -156 -289 -42 rrcurveto
          145 688 184 -37 59 -102 1 -140 rlinecurve
          endchar
        </CharString>
        <CharString name="Egrave">
          1357 1036 173 callsubr
          447 -93 -96 callsubr
        </CharString>
        <CharString name="Ehookabove">
          1357 1086 -16 callsubr
          155 callsubr
          474 -442 -96 callsubr
        </CharString>
        <CharString name="Einvertedbreve">
          1357 1046 1925 -73 callgsubr
          62 callgsubr
          51 callgsubr
          514 -481 -96 callsubr
        </CharString>
        <CharString name="Elcyrillic">
          1630 248 -30 rmoveto
          242 117 250 544 138 hvcurveto
          62 233 47 197 27 109 rrcurveto
          367 hlineto
          -226 -1063 -19 95 callgsubr
          -120 20 -17 19 19 91 rlinecurve
          205 964 19 91 25 18 129 21 rlinecurve
          24 110 -1334 225 callsubr
          -119 79 -83 137 hvcurveto
          endchar
        </CharString>
        <CharString name="Emacron">
          1357 689 -60 callsubr
          26 callsubr
          828 -343 -96 callsubr
        </CharString>
        <CharString name="Emacronacute">
          1357 1457 1899 -39 callgsubr
          -48 -224 62 callsubr
          889 -295 -96 callsubr
        </CharString>
        <CharString name="Emacrongrave">
          1357 705 1899 -41 callgsubr
          -107 -504 62 callsubr
          889 -295 -96 callsubr
        </CharString>
        <CharString name="Emcyrillic">
          1951 1041 1444 31 callsubr
        </CharString>
        <CharString name="Encyrillic">
          1725 710 1 callsubr
          -84 callsubr
          -68 callsubr
          -85 callsubr
          -10 callsubr
          endchar
        </CharString>
        <CharString name="Eogonek">
          1357 989 242 callsubr
          77 107 50 13 44 18 25 hvcurveto
          194 hlineto
          108 459 rlineto
          -102 hlineto
          -115 -258 -82 -56 -235 -11 rrcurveto
          -182 -7 116 545 133 -1 90 -3 20 -35 -5 -167 rlinecurve
          96 hlineto
          113 535 rlineto
          -95 hlineto
          -62 -159 -36 -38 -94 -3 rrcurveto
          -134 57 callgsubr
          -33 callgsubr
          rlineto
          120 -23 18 -19 -19 -88 -205 -964 rcurveline
          -18 -88 -25 -19 -131 -23 -23 -110 rcurveline
          909 hlineto
          87 callgsubr
          endchar
        </CharString>
        <CharString name="Epsilongreek">
          1357 1560 1444 -96 callsubr
        </CharString>
        <CharString name="Epsilontonosgreek">
          1828 2031 1444 rmoveto
          -1206 hlineto
          -24 -110 120 -23 -42 callsubr
          1249 0 108 459 rlineto
          -102 hlineto
          -115 -258 -81 -56 -235 -11 rrcurveto
          -183 -7 116 545 133 -1 90 -3 20 -35 -5 -167 rlinecurve
          96 hlineto
          113 535 rlineto
          -95 hlineto
          -63 -159 -35 -38 -93 -3 rrcurveto
          -135 57 callgsubr
          -1603 428 -66 callsubr
          endchar
        </CharString>
        <CharString name="Ercyrillic">
          1545 828 hmoveto
          29 callsubr
        </CharString>
        <CharString name="Ereversedcyrillic">
          1488 407 1351 rmoveto
          -84 -369 rlineto
          103 hlineto
          235 93 130 114 150 hhcurveto
          184 80 -198 -277 -19 -1 -20 -1 -19 hvcurveto
          -485 10 -35 -163 505 9 rlineto
          -289 -47 -148 -253 -237 hhcurveto
          -188 -95 145 208 3 hvcurveto
          -103 hlineto
          -59 -369 rlineto
          -63 71 192 -63 212 hhcurveto
          566 355 337 471 468 -363 228 -373 -161 -161 -39 -84 -103 hvcurveto
          endchar
        </CharString>
        <CharString name="Escyrillic">
          1437 733 522 -44 callsubr
          10 callsubr
        </CharString>
        <CharString name="Etagreek">
          1725 710 1 callsubr
          -84 callsubr
          -68 callsubr
          -85 callsubr
          -10 callsubr
          endchar
        </CharString>
        <CharString name="Etatonosgreek">
          2197 1182 1 callsubr
          -24 -110 751 0 23 110 -120 21 -17 18 19 91 rlinecurve
          205 964 19 90 25 19 130 21 rlinecurve
          23 -34 callgsubr
          -20 16 -19 -19 -91 rlinecurve
          -85 -401 -408 0 86 -26 callgsubr
          -85 callsubr
          -10 callsubr
          -832 1204 -66 callsubr
          endchar
        </CharString>
        <CharString name="Etilde">
          1357 1155 2 callsubr
          -22 9 17 -24 -61 callgsubr
          53 -22 61 hhcurveto
          405 -112 -96 callsubr
        </CharString>
        <CharString name="Etildebelow">
          1357 1560 1444 rmoveto
          -1206 hlineto
          -24 -110 120 -23 -42 callsubr
          1249 -35 callsubr
          -698 -1472 261 callsubr
          -30 -30 -41 hhcurveto
          -29 -25 11 19 -28 hvcurveto
          -30 21 rlineto
          39 -55 -57 24 -67 hhcurveto
          -113 -1 -97 -71 -35 -277 rrcurveto
          117 hlineto
          95 17 30 29 42 hhcurveto
          28 26 -11 -19 28 hvcurveto
          29 -21 rlineto
          -38 55 58 -25 67 hhcurveto
          endchar
        </CharString>
        <CharString name="F">
          1296 1539 1444 rmoveto
          -1183 hlineto
          -23 -110 120 -23 17 -19 19 callsubr
          -25 -87 callgsubr
          775 0 23 110 -131 22 206 callsubr
        </CharString>
        <CharString name="Fdotaccent">
          1295 1073 -13 callsubr
          466 -84 rmoveto
          -1183 hlineto
          -23 -110 120 -23 17 -19 19 callsubr
          -25 -87 callgsubr
          775 0 23 110 -131 22 206 callsubr
        </CharString>
        <CharString name="G">
          1609 231 653 -34 callsubr
        </CharString>
        <CharString name="Gacute">
          1609 1224 -95 callsubr
          -1387 -1209 -34 callsubr
        </CharString>
        <CharString name="Gammagreek">
          1285 1545 1444 rmoveto
          -1189 hlineto
          -23 -110 121 -24 18 -18 -19 -87 rlinecurve
          -205 -966 -18 -87 -25 -18 -132 -24 rlinecurve
          -24 -110 778 0 23 110 -133 22 -20 20 19 87 rlinecurve
          228 1078 144 -6 234 -10 36 -43 9 -227 rlinecurve
          101 hlineto
          endchar
        </CharString>
        <CharString name="Gbreve">
          1609 1203 96 callsubr
          -108 hlineto
          -10 107 callsubr
          -972 -905 -34 callsubr
        </CharString>
        <CharString name="Gcaron">
          1609 1451 -53 callsubr
          -21 callsubr
          -1355 -1215 -34 callsubr
        </CharString>
        <CharString name="Gcircumflex">
          1609 952 7 callsubr
          53 callsubr
          -597 -886 -34 callsubr
        </CharString>
        <CharString name="Gcommaaccent">
          1609 231 653 rmoveto
          -6 -472 355 -210 373 -1 rrcurveto
          186 218 45 82 126 hvcurveto
          86 404 18 82 21 23 114 18 rlinecurve
          23 110 -667 0 -23 -110 rlineto
          117 204 callsubr
          588 -1135 -73 callsubr
          37 callsubr
        </CharString>
        <CharString name="Gdotaccent">
          1609 1187 -13 callsubr
          -956 -875 -34 callsubr
        </CharString>
        <CharString name="Geacutecyrillic">
          1281 1043 -58 callgsubr
          463 313 rlineto
          10 vlineto
          104 -418 rmoveto
          -1187 hlineto
          -23 -110 119 -23 18 -19 218 callsubr
        </CharString>
        <CharString name="Gecyrillic">
          1281 1542 1444 rmoveto
          -1187 hlineto
          -23 -110 119 -23 18 -19 218 callsubr
        </CharString>
        <CharString name="Germandbls">
          1699 670 hmoveto
          273 1318 129 -7 rlineto
          204 -10 74 -87 -128 vvcurveto
          -123 -93 -75 -141 -6 vhcurveto
          -64 -299 rlineto
          164 -64 83 -116 -128 vvcurveto
          -110 -61 -58 -90 -115 -66 106 190 6 vhcurveto
          -101 hlineto
          -68 -333 rlineto
          -58 74 141 -42 150 hhcurveto
          298 246 163 292 196 -91 157 -168 92 hvcurveto
          179 18 143 89 166 vvcurveto
          193 -184 108 -370 vhcurveto
          -867 hlineto
          -23 -110 rlineto
          121 -23 18 -22 -18 -84 -201 -966 rcurveline
          -17 -87 -25 -19 -131 -23 -22 -110 rcurveline
          endchar
        </CharString>
        <CharString name="Geupturncyrillic">
          1264 1495 1309 rmoveto
          111 480 rlineto
          -107 hlineto
          -268 -124 -86 -77 -245 hhcurveto
          -689 hlineto
          -23 -110 119 -23 17 -19 -18 -87 rlinecurve
          -205 -966 -19 -87 -24 -87 callgsubr
          785 0 24 110 rlineto
          -118 23 -45 19 18 87 228 1070 rcurveline
          endchar
        </CharString>
        <CharString name="Gmacron">
          1609 844 -60 callsubr
          42 200 rlineto
          -652 hlineto
          -655 -1134 -34 callsubr
        </CharString>
        <CharString name="H">
          1725 710 1 callsubr
          -84 callsubr
          -68 callsubr
          -85 callsubr
          -10 callsubr
          endchar
        </CharString>
        <CharString name="Hacyrillic">
          1495 357 337 27 callsubr
        </CharString>
        <CharString name="Hardsigncyrillic">
          1793 1863 517 rmoveto
          244 -216 248 callsubr
          29 15 146 26 rlinecurve
          23 110 -1040 0 -96 -410 rlineto
          106 hlineto
          107 238 58 34 194 8 rrcurveto
          10 hlineto
          -228 -1075 rlineto
          -18 -87 -25 -19 -131 -23 -23 -110 rcurveline
          811 hlineto
          429 308 191 326 hvcurveto
          -489 16 101 callsubr
          -51 callgsubr
        </CharString>
        <CharString name="Hbar">
          1725 710 240 rmoveto
          91 428 407 0 -91 -428 -19 -90 -23 -20 -123 -20 rlinecurve
          -23 -110 750 0 23 110 -120 21 -17 18 19 91 rlinecurve
          162 763 146 0 25 117 -146 0 18 84 19 90 25 19 130 21 rlinecurve
          23 110 -750 0 -23 -110 113 -20 15 -19 -19 -91 rlinecurve
          -18 -84 -407 0 18 84 18 88 23 19 124 23 -28 callgsubr
          120 -23 17 -19 -18 -88 rlinecurve
          -18 -84 -146 0 -25 -117 146 0 -162 -763 -19 -88 -24 -87 callgsubr
          -85 callsubr
          -10 callsubr
          120 563 rmoveto
          42 200 407 0 -42 -200 rlineto
          endchar
        </CharString>
        <CharString name="Hbrevebelow">
          1725 710 1 callsubr
          -84 callsubr
          -68 callsubr
          -85 callsubr
          -10 callsubr
          96 -713 212 callsubr
        </CharString>
        <CharString name="Hcaron">
          1725 1484 1867 rmoveto
          -242 -132 57 callsubr
          75 callsubr
          -909 -1627 rmoveto
          72 callgsubr
          -84 callsubr
          -68 callsubr
          -85 callsubr
          -10 callsubr
          endchar
        </CharString>
        <CharString name="Hcedilla">
          1725 313 -93 callgsubr
          82 77 rlineto
          3 312 vlineto
          24 110 -10 callsubr
          72 callgsubr
          -84 callsubr
          -68 callsubr
          306 0 -137 -136 -81 callsubr
          -22 -68 -53 -42 16 15 -28 hvcurveto
          -23 -100 rlineto
          -45 53 81 -29 93 hhcurveto
          endchar
        </CharString>
        <CharString name="Hcircumflex">
          1725 986 1538 rmoveto
          240 133 179 -133 119 0 -131 323 -270 0 -262 -323 rlineto
          -151 -1298 rmoveto
          72 callgsubr
          -84 callsubr
          -68 callsubr
          -85 callsubr
          -10 callsubr
          endchar
        </CharString>
        <CharString name="Hdieresis">
          1725 1032 1548 rmoveto
          87 71 71 86 1 hvcurveto
          81 -62 64 -82 -88 81 callsubr
          87 71 71 86 hvcurveto
          81 1 -62 64 -83 hhcurveto
          58 callsubr
          -699 -1308 rmoveto
          72 callgsubr
          -84 callsubr
          -68 callsubr
          -85 callsubr
          -10 callsubr
          endchar
        </CharString>
        <CharString name="Hdotaccent">
          1725 1221 1527 rmoveto
          101 82 81 97 93 -72 73 -96 -101 -85 callgsubr
          -511 -1287 rmoveto
          72 callgsubr
          -84 callsubr
          -68 callsubr
          -85 callsubr
          -10 callsubr
          endchar
        </CharString>
        <CharString name="Hdotbelow">
          1725 710 1 callsubr
          -84 callsubr
          -68 callsubr
          -85 callsubr
          -10 callsubr
          101 -354 -78 callsubr
          -54 callgsubr
        </CharString>
        <CharString name="I">
          852 711 240 -90 callsubr
        </CharString>
        <CharString name="IAcyrillic">
          1572 307 976 rmoveto
          -148 80 -98 149 -39 vhcurveto
          -239 -309 -122 -156 -86 -94 -65 -27 rlinecurve
          -23 -105 499 0 441 600 rlineto
          -1 2 2 0 2 hhcurveto
          94 hlineto
          -76 -359 -19 -91 -24 -18 -123 -21 rlinecurve
          -84 callsubr
          rlineto
          -120 21 -17 18 19 91 205 965 rcurveline
          19 90 24 18 130 21 24 110 rcurveline
          -804 hlineto
          -483 -240 -185 -283 hvcurveto
          476 -23 rmoveto
          193 111 158 227 8 vhcurveto
          71 2 -124 -584 rlineto
          -79 hlineto
          -123 3 -83 80 140 vvcurveto
          endchar
        </CharString>
        <CharString name="IJ">
          1709 1574 290 rmoveto
          196 915 18 -106 callgsubr
          125 callsubr
          151 callsubr
          -863 -50 -90 callsubr
        </CharString>
        <CharString name="IJacute">
          1709 40 callgsubr
          449 hmoveto
          245 callsubr
          -479 -1572 rmoveto
          196 915 18 -106 callgsubr
          125 callsubr
          151 callsubr
          -863 -50 -90 callsubr
        </CharString>
        <CharString name="IUcyrillic">
          2448 46 hmoveto
          750 hlineto
          24 110 rlineto
          -113 22 -16 20 18 88 91 428 rcurveline
          160 hlineto
          -11 -1 -10 -11 vvcurveto
          -357 236 -309 478 518 337 365 473 357 -236 309 -478 -455 -315 -282 -389 -70 vhcurveto
          -145 hlineto
          85 401 19 88 23 19 124 23 rlinecurve
          72 callsubr
          119 -23 18 -19 -19 -88 rlinecurve
          -204 -964 -19 -88 -25 -19 -130 -23 rlinecurve
          1597 3 rmoveto
          -125 -70 129 251 356 120 482 231 124 70 -129 -251 -356 -120 -482 -230 hvcurveto
          endchar
        </CharString>
        <CharString name="Iacute">
          852 40 callgsubr
          -499 -1623 -90 callsubr
        </CharString>
        <CharString name="Ibreve">
          852 795 1558 rmoveto
          218 129 142 225 5 hvcurveto
          -108 hlineto
          -86 -16 -91 -50 -128 hhcurveto
          -109 -77 55 71 4 0 3 1 4 hvcurveto
          -108 hlineto
          -10 -26 -6 -34 -36 vvcurveto
          -151 1 121 -121 178 hhcurveto
          -84 -1318 -90 callsubr
        </CharString>
        <CharString name="Icaron">
          852 1043 -53 callsubr
          -322 297 0 262 322 rlineto
          -467 -1628 -90 callsubr
        </CharString>
        <CharString name="Icircumflex">
          852 544 7 callsubr
          -132 323 -269 0 -262 -323 rlineto
          291 -1299 -90 callsubr
        </CharString>
        <CharString name="Icyrillic">
          852 711 240 -90 callsubr
        </CharString>
        <CharString name="Idblgrave">
          852 640 1859 rmoveto
          -304 -7 hlineto
          227 -315 rlineto
          111 hlineto
          339 322 rmoveto
          -289 -7 hlineto
          116 -315 rlineto
          102 hlineto
          -231 -1297 -90 callsubr
        </CharString>
        <CharString name="Idieresis">
          852 591 -79 callsubr
          hvcurveto
          81 1 -62 64 -82 hhcurveto
          -88 -72 -70 -88 hvcurveto
          -79 -1 62 -65 -8 callsubr
          -71 callgsubr
          -79 61 -65 84 vhcurveto
          -256 -1309 -90 callsubr
        </CharString>
        <CharString name="Idieresisacute">
          852 1204 1899 -40 callgsubr
          135 -261 82 callsubr
          14 -51 46 -76 hhcurveto
          -18 hlineto
          -76 -71 -46 -68 -15 hvcurveto
          -68 -14 51 -47 76 hhcurveto
          406 hmoveto
          -7 callsubr
          15 -51 46 -76 hhcurveto
          -19 hlineto
          -75 -71 -46 -68 -15 hvcurveto
          -68 -14 51 -47 75 hhcurveto
          -225 -1308 -90 callsubr
        </CharString>
        <CharString name="Idotaccent">
          852 779 1529 rmoveto
          101 83 80 98 92 -72 73 -96 -102 -83 -80 -100 -90 72 -73 97 hvcurveto
          -68 -1289 -90 callsubr
        </CharString>
        <CharString name="Idotbelow">
          852 711 240 rmoveto
          66 callsubr
          126 callsubr
          19 callsubr
          -24 -87 callgsubr
          759 0 24 -19 callsubr
          -337 -354 -78 callsubr
          -70 callsubr
        </CharString>
        <CharString name="Iecyrillic">
          1357 1560 1444 -96 callsubr
        </CharString>
        <CharString name="Igrave">
          852 783 1861 rmoveto
          -376 -10 hlineto
          344 -313 rlineto
          108 hlineto
          -148 -1298 -90 callsubr
        </CharString>
        <CharString name="Ihookabove">
          852 833 1887 rmoveto
          -115 -81 -36 -60 -49 hvcurveto
          -16 -78 rlineto
          15 26 47 13 47 hhcurveto
          71 39 -26 -45 -49 -43 -46 -100 110 callgsubr
          -112 vhcurveto
          -122 -1647 -90 callsubr
        </CharString>
        <CharString name="Iicyrillic">
          1741 46 hmoveto
          750 hlineto
          24 110 -113 22 -16 20 186 callsubr
        </CharString>
        <CharString name="Iinvertedbreve">
          852 792 1926 rmoveto
          -218 -130 -142 -225 -5 hvcurveto
          109 hlineto
          86 16 91 50 127 hhcurveto
          110 76 -55 -71 hvcurveto
          -4 0 -4 -3 vvcurveto
          108 hlineto
          10 26 5 34 36 vvcurveto
          151 -121 121 -178 vhcurveto
          -81 -1686 -90 callsubr
        </CharString>
        <CharString name="Iishortcyrillic">
          1741 1212 1553 rmoveto
          199 180 100 227 63 hvcurveto
          -117 31 rlineto
          -145 -44 -119 -89 -128 hhcurveto
          -14 -13 0 2 -12 hvcurveto
          27 24 19 37 42 vvcurveto
          94 -69 67 -84 -101 -68 -70 -101 -119 94 -100 187 vhcurveto
          -1166 -1553 rmoveto
          750 hlineto
          24 110 -113 22 -16 20 186 callsubr
        </CharString>
        <CharString name="Imacron">
          852 436 1588 rmoveto
          652 hlineto
          42 199 rlineto
          -652 hlineto
          233 -1547 -90 callsubr
        </CharString>
        <CharString name="Iocyrillic">
          1357 844 -79 callsubr
          -36 callsubr
          81 callsubr
          87 71 71 86 hvcurveto
          80 1 -62 65 -83 hhcurveto
          58 callsubr
          339 -105 -96 callsubr
        </CharString>
        <CharString name="Iogonek">
          852 399 -487 rmoveto
          102 88 129 callsubr
          -26 hhcurveto
          -67 -47 77 107 50 13 44 18 25 hvcurveto
          293 hlineto
          24 -19 callsubr
          66 callsubr
          -759 0 -24 -110 rlineto
          120 -16 17 -26 -18 -88 -205 -964 rcurveline
          -19 -88 -24 -19 -130 -23 -24 -110 rcurveline
          320 hlineto
          87 callgsubr
          endchar
        </CharString>
        <CharString name="Iotadieresisgreek">
          852 591 -79 callsubr
          hvcurveto
          81 1 -62 64 -82 hhcurveto
          -88 -72 -70 -88 hvcurveto
          -79 -1 62 -65 -8 callsubr
          -71 callgsubr
          -79 61 -65 84 vhcurveto
          -256 -1309 -90 callsubr
        </CharString>
        <CharString name="Iotagreek">
          852 711 240 -90 callsubr
        </CharString>
        <CharString name="Iotatonosgreek">
          1338 1196 240 rmoveto
          205 964 18 88 25 19 130 23 rlinecurve
          24 110 -760 0 -23 -110 119 -16 17 -26 -18 -101 callgsubr
          -130 -23 rlinecurve
          -24 -110 760 0 23 -19 callsubr
          -846 1204 -66 callsubr
          endchar
        </CharString>
        <CharString name="Itilde">
          852 902 1556 rmoveto
          102 1 92 65 32 256 rrcurveto
          -113 hlineto
          -85 -15 -26 -27 -38 hhcurveto
          -24 -23 10 16 -24 hvcurveto
          -25 18 rlineto
          35 -51 -52 21 -62 hhcurveto
          -103 -91 -65 -254 -32 hvcurveto
          113 hlineto
          84 15 76 callgsubr
          62 hhcurveto
          -191 -1316 -90 callsubr
        </CharString>
        <CharString name="Itildebelow">
          852 711 240 rmoveto
          66 callsubr
          126 callsubr
          19 callsubr
          -24 -87 callgsubr
          759 0 24 -19 callsubr
          -217 -696 261 callsubr
          -78 callgsubr
          -55 -57 -84 callgsubr
          16 30 56 callgsubr
        </CharString>
        <CharString name="J">
          857 722 290 98 callsubr
        </CharString>
        <CharString name="Jacute">
          857 807 -95 callsubr
          -479 -1572 98 callsubr
        </CharString>
        <CharString name="Jcircumflex">
          857 535 -62 callsubr
          40 callsubr
          312 -1249 98 callsubr
        </CharString>
        <CharString name="Jecyrillic">
          857 722 290 98 callsubr
        </CharString>
        <CharString name="K">
          1573 711 240 -6 callsubr
        </CharString>
        <CharString name="Kaacutecyrillic">
          1572 1245 -95 callsubr
          -928 -1622 -6 callsubr
        </CharString>
        <CharString name="Kacute">
          1572 1245 -95 callsubr
          -928 -1622 -6 callsubr
        </CharString>
        <CharString name="Kacyrillic">
          1572 711 240 -6 callsubr
        </CharString>
        <CharString name="Kappagreek">
          1572 711 240 -6 callsubr
        </CharString>
        <CharString name="Kcaron">
          1572 1472 -53 callsubr
          -21 callsubr
          -896 -1628 -6 callsubr
        </CharString>
        <CharString name="Kcommaaccent">
          141 callsubr
          69 -722 -73 callsubr
          37 callsubr
        </CharString>
        <CharString name="Kdotbelow">
          141 callsubr
          124 -354 -65 callsubr
        </CharString>
        <CharString name="Klinebelow">
          141 callsubr
          -242 -627 -52 callsubr
        </CharString>
        <CharString name="L">
          5 callsubr
          endchar
        </CharString>
        <CharString name="Lacute">
          1285 809 -95 callsubr
          25 -1862 rmoveto
          -30 callsubr
          -5 callsubr
          endchar
        </CharString>
        <CharString name="Lambdagreek">
          1530 1401 317 rmoveto
          -138 1127 -382 0 -614 -1114 -98 -178 -31 -24 -112 -18 rlinecurve
          -23 -110 467 0 23 110 -135 23 -14 34 89 169 rlinecurve
          411 781 74 -796 14 -152 -25 -36 -143 -22 rlinecurve
          -24 -111 787 0 24 111 -104 17 -26 26 -20 163 rlinecurve
          endchar
        </CharString>
        <CharString name="Lcaron">
          1285 1280 1132 rmoveto
          330 457 -306 0 -143 -457 rlineto
          67 -1132 rmoveto
          -30 callsubr
          -5 callsubr
          endchar
        </CharString>
        <CharString name="Lcircumflexbelow">
          5 callsubr
          312 -472 rmoveto
          254 161 180 -161 122 252 callsubr
        </CharString>
        <CharString name="Lcommaaccent">
          5 callsubr
          518 -482 -73 callsubr
          37 callsubr
        </CharString>
        <CharString name="Ldot">
          5 callsubr
          1133 666 rmoveto
          119 97 95 114 109 -85 86 -113 -120 -97 -94 -117 -107 85 -86 114 hvcurveto
          endchar
        </CharString>
        <CharString name="Ldotbelow">
          5 callsubr
          573 -114 -65 callsubr
        </CharString>
        <CharString name="Ldotbelowmacron">
          1285 428 -60 callsubr
          26 callsubr
          757 -1787 rmoveto
          -30 callsubr
          -5 callsubr
          573 -114 -65 callsubr
        </CharString>
        <CharString name="Ljecyrillic">
          2289 32 172 rmoveto
          -119 79 -83 137 242 117 250 544 138 vhcurveto
          62 233 47 197 27 109 rrcurveto
          353 hlineto
          -226 -1064 rlineto
          -19 -87 -25 -19 -132 -23 -23 -110 rcurveline
          813 hlineto
          428 309 191 326 244 -216 134 -331 hvcurveto
          -198 hlineto
          66 310 19 88 29 15 145 26 rlinecurve
          24 110 -1340 225 callsubr
          hvcurveto
          1838 361 101 callsubr
          71 hlineto
          127 -2 85 -71 -158 vvcurveto
          endchar
        </CharString>
        <CharString name="Llinebelow">
          5 callsubr
          207 -387 -52 callsubr
        </CharString>
        <CharString name="Lslash">
          1285 173 604 rmoveto
          155 35 -85 -399 -18 -87 -25 -20 -130 -23 rlinecurve
          -24 -110 1182 0 -30 callsubr
          132 625 296 69 29 126 -298 -69 69 327 18 87 26 18 137 24 rlinecurve
          23 110 -766 0 -23 -110 117 -23 18 -24 -21 -100 rlinecurve
          -90 -422 -153 -35 rlineto
          endchar
        </CharString>
        <CharString name="M">
          1951 1041 1444 31 callsubr
        </CharString>
        <CharString name="Macute">
          1951 1372 -95 callsubr
          -725 -418 31 callsubr
        </CharString>
        <CharString name="Mdotaccent">
          1951 1335 15 callsubr
          -96 -101 -85 callgsubr
          -294 -84 31 callsubr
        </CharString>
        <CharString name="Mdotbelow">
          1951 1041 1444 rmoveto
          -668 hlineto
          -24 -110 126 -22 13 -38 -28 -118 rlinecurve
          -201 -857 -34 -137 -25 -34 -134 -18 rlinecurve
          -24 -110 465 0 24 110 -128 18 -11 30 30 141 rlinecurve
          163 792 118 -1091 253 0 297 588 264 520 -161 -874 -16 -83 -25 -23 -132 -18 rlinecurve
          -23 -110 752 0 24 110 -14 callgsubr
          -340 -708 -78 callsubr
          -54 callgsubr
        </CharString>
        <CharString name="Mugreek">
          1951 1041 1444 31 callsubr
        </CharString>
        <CharString name="N">
          1552 944 1444 136 callsubr
          endchar
        </CharString>
        <CharString name="Nacute">
          1552 1175 -95 callsubr
          -625 -418 136 callsubr
          endchar
        </CharString>
        <CharString name="Ncaron">
          1552 1401 -40 callsubr
          57 callsubr
          75 callsubr
          -592 -424 136 callsubr
          endchar
        </CharString>
        <CharString name="Ncircumflexbelow">
          1552 64 callsubr
          -907 -930 -69 callsubr
          -46 callsubr
          -63 callsubr
        </CharString>
        <CharString name="Ncommaaccent">
          1552 64 callsubr
          -702 -940 rmoveto
          209 95 80 124 118 -94 71 -117 -91 -76 callgsubr
          49 44 67 callsubr
          -36 hvcurveto
          -20 -92 rlineto
          -37 48 78 -23 92 hhcurveto
          endchar
        </CharString>
        <CharString name="Ndotaccent">
          1552 1138 15 callsubr
          -96 -101 -85 callgsubr
          -194 -84 136 callsubr
          endchar
        </CharString>
        <CharString name="Ndotbelow">
          1552 64 callsubr
          -647 -572 -78 callsubr
          -70 callsubr
        </CharString>
        <CharString name="Ngrave">
          1552 1141 173 callsubr
          -274 -93 136 callsubr
          endchar
        </CharString>
        <CharString name="Njecyrillic">
          2404 712 240 rmoveto
          98 460 411 0 -98 -461 rlineto
          -19 -87 -24 -19 -130 -23 -24 -110 rcurveline
          811 hlineto
          428 309 176 300 235 -216 130 -331 hvcurveto
          -210 hlineto
          78 364 19 88 29 15 146 26 rlinecurve
          23 110 -779 0 -23 -110 119 -23 17 -19 -18 -88 rlinecurve
          -77 -363 -411 0 77 363 19 88 22 19 125 23 -28 callgsubr
          119 -23 18 -18 -19 -89 rlinecurve
          -205 -964 -18 -88 -25 -19 -130 -23 rlinecurve
          -84 callsubr
          -113 22 -16 20 18 88 rlinecurve
          1273 251 rmoveto
          -190 -123 -160 -229 -9 vhcurveto
          -65 -2 123 580 rlineto
          82 hlineto
          128 -2 84 -67 -150 vvcurveto
          endchar
        </CharString>
        <CharString name="Nlinebelow">
          1552 64 callsubr
          -1013 -845 122 callsubr
        </CharString>
        <CharString name="Ntilde">
          1552 1260 2 callsubr
          -23 9 17 -23 -61 callgsubr
          53 -22 61 hhcurveto
          -316 -112 136 callsubr
          endchar
        </CharString>
        <CharString name="Nugreek">
          1552 944 1444 136 callsubr
          endchar
        </CharString>
        <CharString name="O">
          55 callsubr
          -106 callsubr
          -107 callsubr
          -99 callsubr
        </CharString>
        <CharString name="OE">
          2123 231 648 rmoveto
          -433 304 -244 387 vhcurveto
          131 79 29 145 hhcurveto
          787 hlineto
          106 459 rlineto
          -100 hlineto
          -114 -257 -76 -59 -218 -10 rrcurveto
          -161 -6 116 545 109 -2 88 -3 19 -34 -6 -169 rlinecurve
          98 hlineto
          114 538 rlineto
          -97 hlineto
          -63 -160 -34 -38 -91 -3 rrcurveto
          -110 -2 110 518 138 -6 222 -10 30 -50 12 -234 rlinecurve
          102 hlineto
          79 427 rlineto
          -868 hlineto
          -140 -91 29 -149 hhcurveto
          -521 -337 -363 -462 hvcurveto
          480 -106 rmoveto
          381 168 408 291 46 39 -9 -14 30 vhcurveto
          -252 -1187 rlineto
          -5 -17 -18 -2 -19 hhcurveto
          -158 -110 127 301 hvcurveto
          endchar
        </CharString>
        <CharString name="Oacute">
          1695 1189 -95 callsubr
          -644 -1891 -101 callsubr
          -106 callsubr
          -107 callsubr
          -99 callsubr
        </CharString>
        <CharString name="Obreve">
          1695 1167 1558 rmoveto
          219 129 -35 callgsubr
          -16 -91 -50 -128 hhcurveto
          -110 -76 56 71 hvcurveto
          4 0 3 3 vvcurveto
          61 callgsubr
          -228 -1587 -101 callsubr
          -106 callsubr
          -107 callsubr
          -99 callsubr
        </CharString>
        <CharString name="Ocaron">
          1695 1416 -53 callsubr
          -323 75 callsubr
          -611 -1897 -101 callsubr
          -106 callsubr
          -107 callsubr
          -99 callsubr
        </CharString>
        <CharString name="Ocircumflex">
          1695 917 -62 callsubr
          179 -133 120 0 -132 -36 callgsubr
          147 -1568 -101 callsubr
          -106 callsubr
          -107 callsubr
          -99 callsubr
        </CharString>
        <CharString name="Ocircumflexacute">
          1695 1572 98 callgsubr
          70 callsubr
          -72 -56 callsubr
          180 -1617 -101 callsubr
          -106 callsubr
          -107 callsubr
          -99 callsubr
        </CharString>
        <CharString name="Ocircumflexdotbelow">
          1695 917 -62 callsubr
          179 -133 120 0 -132 -36 callgsubr
          147 -1568 -101 callsubr
          -106 callsubr
          -107 callsubr
          hvcurveto
          -50 callsubr
          158 callsubr
          -80 -228 rmoveto
          -101 -83 -80 -97 -92 72 -74 -70 callsubr
        </CharString>
        <CharString name="Ocircumflexgrave">
          1695 820 84 callgsubr
          70 callsubr
          -72 -56 callsubr
          180 -1617 -101 callsubr
          -106 callsubr
          -107 callsubr
          -99 callsubr
        </CharString>
        <CharString name="Ocircumflexhookabove">
          1695 1543 207 callsubr
          70 callsubr
          -72 -56 callsubr
          180 -1617 -101 callsubr
          -106 callsubr
          -107 callsubr
          -99 callsubr
        </CharString>
        <CharString name="Ocircumflextilde">
          1695 1333 8 callgsubr
          -42 12 rlineto
          16 -51 -52 13 -60 hhcurveto
          -145 -102 -84 -142 -29 hvcurveto
          132 hlineto
          -6 callgsubr
          70 callsubr
          -72 -56 callsubr
          180 -1617 -101 callsubr
          -106 callsubr
          -107 callsubr
          -99 callsubr
        </CharString>
        <CharString name="Ocyrillic">
          55 callsubr
          -106 callsubr
          -107 callsubr
          -99 callsubr
        </CharString>
        <CharString name="Odblgrave">
          1695 1013 1859 rmoveto
          -305 -8 hlineto
          228 -314 rlineto
          110 hlineto
          340 322 rmoveto
          -56 callgsubr
          -376 -1566 -101 callsubr
          -106 callsubr
          -107 callsubr
          -99 callsubr
        </CharString>
        <CharString name="Odieresis">
          1695 964 1549 rmoveto
          86 175 callsubr
          84 vhcurveto
          376 hmoveto
          87 71 71 86 61 callsubr
          -80 61 -64 84 hvcurveto
          -401 -1578 -101 callsubr
          -106 callsubr
          -107 callsubr
          -99 callsubr
        </CharString>
        <CharString name="Odieresismacron">
          1695 818 1871 rmoveto
          753 hlineto
          33 154 rlineto
          -753 hlineto
          89 -478 rmoveto
          -7 callsubr
          15 -52 47 -75 hhcurveto
          -19 hlineto
          -75 -71 -47 -68 -15 hvcurveto
          -68 -14 50 -47 76 hhcurveto
          407 hmoveto
          -7 callsubr
          14 -51 75 callgsubr
          -370 -1576 -101 callsubr
          -106 callsubr
          -107 callsubr
          -99 callsubr
        </CharString>
        <CharString name="Odotaccent">
          1695 1152 15 callsubr
          -95 -96 callgsubr
          -213 -1557 -101 callsubr
          -106 callsubr
          -107 callsubr
          -99 callsubr
        </CharString>
        <CharString name="Odotaccentmacron">
          1695 812 1842 rmoveto
          752 hlineto
          33 155 rlineto
          -752 hlineto
          308 -459 rmoveto
          79 63 51 72 -2 hvcurveto
          74 -2 -65 50 -79 hhcurveto
          -80 -62 -50 -74 2 hvcurveto
          -72 2 64 -51 80 hhcurveto
          -214 -1567 -101 callsubr
          -106 callsubr
          -107 callsubr
          -99 callsubr
        </CharString>
        <CharString name="Odotbelow">
          55 callsubr
          -106 callsubr
          -107 callsubr
          hvcurveto
          -50 callsubr
          158 callsubr
          -80 -228 rmoveto
          -101 -83 -80 -97 -92 72 -74 -70 callsubr
        </CharString>
        <CharString name="Ograve">
          1695 1155 85 callgsubr
          -293 -1566 -101 callsubr
          -106 callsubr
          -107 callsubr
          -99 callsubr
        </CharString>
        <CharString name="Ohookabove">
          1695 1205 -16 callsubr
          -48 hvcurveto
          -17 -78 rlineto
          15 26 48 12 47 hhcurveto
          71 38 -25 -46 -48 -43 -47 -99 -69 callgsubr
          -93 64 -113 vhcurveto
          -266 -1915 -101 callsubr
          -106 callsubr
          -107 callsubr
          -99 callsubr
        </CharString>
        <CharString name="Ohorn">
          1737 229 644 rmoveto
          -50 callsubr
          -9 callsubr
          191 callsubr
          endchar
        </CharString>
        <CharString name="Ohornacute">
          1737 1191 -95 callsubr
          -1356 -1218 rmoveto
          -50 callsubr
          -9 callsubr
          191 callsubr
          endchar
        </CharString>
        <CharString name="Ohorndotbelow">
          1737 229 644 rmoveto
          -50 callsubr
          -9 callsubr
          191 callsubr
          134 -591 -100 callgsubr
          83 80 99 91 -72 73 -98 hvcurveto
          endchar
        </CharString>
        <CharString name="Ohorngrave">
          1737 1157 173 callsubr
          -1005 -893 rmoveto
          -50 callsubr
          -9 callsubr
          191 callsubr
          endchar
        </CharString>
        <CharString name="Ohornhookabove">
          1737 1207 -16 callsubr
          155 callsubr
          -978 -1242 rmoveto
          -50 callsubr
          -9 callsubr
          191 callsubr
          endchar
        </CharString>
        <CharString name="Ohorntilde">
          1737 1276 2 callsubr
          -62 callgsubr
          -62 hhcurveto
          -103 -1 -90 -64 -32 -255 rrcurveto
          112 hlineto
          85 44 callgsubr
          -1047 -912 rmoveto
          -50 callsubr
          -9 callsubr
          191 callsubr
          endchar
        </CharString>
        <CharString name="Ohungarumlaut">
          1695 961 1860 rmoveto
          -52 -322 109 0 243 314 rlineto
          9 vlineto
          87 94 callgsubr
          -738 -1890 -101 callsubr
          -106 callsubr
          -107 callsubr
          -99 callsubr
        </CharString>
        <CharString name="Oinvertedbreve">
          1695 1165 1925 -73 callgsubr
          87 16 91 50 128 hhcurveto
          110 76 -56 -71 -4 0 -3 -1 -3 hvcurveto
          51 callgsubr
          -226 -1954 -101 callsubr
          -106 callsubr
          -107 callsubr
          -99 callsubr
        </CharString>
        <CharString name="Omacron">
          1695 808 -60 callsubr
          26 callsubr
          88 -1816 -101 callsubr
          -106 callsubr
          -107 callsubr
          -99 callsubr
        </CharString>
        <CharString name="Omacronacute">
          1695 1576 1899 -39 callgsubr
          -48 -224 62 callsubr
          149 -1768 -101 callsubr
          -106 callsubr
          -107 callsubr
          -99 callsubr
        </CharString>
        <CharString name="Omacrongrave">
          1695 824 1899 -41 callgsubr
          -107 -504 62 callsubr
          149 -1768 -101 callsubr
          -106 callsubr
          -107 callsubr
          -99 callsubr
        </CharString>
        <CharString name="Omegagreek">
          1715 117 hmoveto
          665 hlineto
          76 363 rlineto
          -107 65 -47 118 13 208 14 374 154 197 186 -1 166 0 91 -126 -16 -247 -12 -329 -112 48 callgsubr
          -94 -147 -126 -56 -335 -6 11 52 rcurveline
          376 69 262 256 11 315 12 302 -236 246 -483 2 -500 2 -309 -305 -13 -357 -12 -238 168 -225 308 -65 rrcurveto
          -11 -54 -344 7 -86 62 -27 140 rlinecurve
          -89 hlineto
          endchar
        </CharString>
        <CharString name="Omegatonosgreek">
          2024 426 hmoveto
          666 hlineto
          75 363 rlineto
          -107 65 -47 118 14 208 14 374 153 197 186 -1 166 0 91 -126 -15 -247 -12 -329 -113 48 callgsubr
          -93 -147 -127 -56 -334 -6 11 52 rcurveline
          375 69 262 256 12 315 11 302 -236 246 -482 2 -501 2 -309 -305 -12 -357 -13 -238 169 -225 308 -65 rrcurveto
          -11 -54 -345 7 -86 62 -27 140 rlinecurve
          -88 hlineto
          -119 1010 -66 callsubr
          endchar
        </CharString>
        <CharString name="Omicrongreek">
          55 callsubr
          -106 callsubr
          -107 callsubr
          -99 callsubr
        </CharString>
        <CharString name="Omicrontonosgreek">
          1981 1225 -29 -101 callsubr
          -106 callsubr
          -313 -365 -464 -11 hvcurveto
          -374 -8 256 -299 462 hhcurveto
          -875 1473 -66 callsubr
          447 -1330 rmoveto
          -121 -70 105 258 387 148 466 227 122 70 -105 -258 -389 -150 -464 -226 hvcurveto
          endchar
        </CharString>
        <CharString name="Oogonek">
          1695 854 -487 rmoveto
          102 87 129 callsubr
          192 callsubr
        </CharString>
        <CharString name="Oogonekmacron">
          1695 808 -60 callsubr
          26 callsubr
          3 -2274 rmoveto
          102 87 129 callsubr
          192 callsubr
        </CharString>
        <CharString name="Oslash">
          55 callsubr
          178 callsubr
        </CharString>
        <CharString name="Oslashacute">
          1695 1189 -95 callsubr
          -644 -1891 -101 callsubr
          178 callsubr
        </CharString>
        <CharString name="Otilde">
          1695 1274 2 callsubr
          -62 callgsubr
          257 callsubr
          63 callgsubr
          61 hhcurveto
          -335 -1585 -101 callsubr
          -106 callsubr
          -107 callsubr
          -99 callsubr
        </CharString>
        <CharString name="Otildeacute">
          1695 1576 1899 rmoveto
          40 189 -792 -192 -19 -87 rlineto
          470 -256 137 callsubr
        </CharString>
        <CharString name="Otildedieresis">
          1695 1000 1834 rmoveto
          76 249 callsubr
          76 hhcurveto
          406 hmoveto
          75 72 47 67 14 hvcurveto
          69 15 -51 46 -76 hhcurveto
          -19 hlineto
          -75 -71 -46 -69 -15 hvcurveto
          -67 -14 51 -47 75 hhcurveto
          -94 -281 137 callsubr
        </CharString>
        <CharString name="Otildemacron">
          1695 818 1871 62 callsubr
          424 -472 137 callsubr
        </CharString>
        <CharString name="P">
          1545 828 hmoveto
          29 callsubr
        </CharString>
        <CharString name="Pacute">
          1545 1167 1863 rmoveto
          -182 -323 113 0 463 313 rlineto
          10 vlineto
          -733 -1863 rmoveto
          29 callsubr
        </CharString>
        <CharString name="Pdotaccent">
          1545 1131 1529 rmoveto
          100 83 81 97 92 -72 74 -96 -102 -83 -80 -100 -91 72 -73 98 hvcurveto
          -303 -1529 rmoveto
          29 callsubr
        </CharString>
        <CharString name="Pecyrillic">
          1734 1574 240 rmoveto
          205 964 19 91 25 18 130 21 rlinecurve
          23 110 -1623 0 -24 -110 120 -23 17 -19 19 callsubr
          -25 -19 -130 -23 rlinecurve
          -84 callsubr
          -10 callsubr
          226 1063 397 0 -225 -1063 -20 95 callgsubr
          -119 20 -18 19 19 91 rlinecurve
          endchar
        </CharString>
        <CharString name="Phigreek">
          1952 225 720 rmoveto
          -35 -318 217 -168 439 -14 -19 -87 -25 -22 -122 -23 rrcurveto
          -21 -95 633 0 21 95 -112 22 -18 23 19 87 rlinecurve
          1 vlineto
          542 16 255 169 34 317 36 322 -258 162 -399 13 19 85 25 21 122 23 rrcurveto
          19 96 -633 0 -19 -96 rlineto
          111 -19 18 -25 -18 -86 -501 -13 -295 -164 -35 -322 rrcurveto
          471 2 rmoveto
          24 223 129 152 182 5 rrcurveto
          -159 -755 -128 33 -71 137 23 205 rlinecurve
          868 3 rmoveto
          -26 -232 -127 -148 -184 -6 rrcurveto
          159 755 129 -35 70 -138 -21 -196 rlinecurve
          endchar
        </CharString>
        <CharString name="Pigreek">
          1723 1580 242 rmoveto
          203 958 18 87 20 26 138 21 rlinecurve
          24 110 -1629 0 -24 -110 124 -24 14 -21 -19 -87 rlinecurve
          -203 -960 -19 -87 -24 -22 -132 -23 rlinecurve
          -24 -110 753 0 23 110 -115 21 -13 24 19 87 rlinecurve
          225 1066 399 0 -225 -1066 -19 -87 -20 -23 -125 -22 rlinecurve
          -24 -110 -85 callsubr
          -127 20 -11 25 19 87 rlinecurve
          endchar
        </CharString>
        <CharString name="Psigreek">
          2014 632 hmoveto
          722 hlineto
          24 110 rlineto
          -135 22 -20 23 18 87 46 217 rcurveline
          386 20 197 138 139 375 64 172 rcurveline
          45 119 34 33 98 7 24 111 rcurveline
          6 -39 -79 6 -69 hhcurveto
          -221 -111 -71 -237 -86 hvcurveto
          -64 -174 -86 -232 -64 -102 -138 -29 rlinecurve
          127 601 19 87 23 22 115 23 rlinecurve
          24 110 -654 0 -23 -110 rlineto
          103 -23 17 -22 -19 -87 -127 -601 rcurveline
          -125 30 -19 102 12 231 9 172 rcurveline
          236 12 -81 74 -222 hhcurveto
          -68 -83 -6 -6 -40 hvcurveto
          -23 -111 95 -7 22 -33 -6 -119 rlinecurve
          -8 -172 -19 -375 137 -138 377 -20 rlinecurve
          -46 -217 -18 -87 -29 -23 -144 -22 rlinecurve
          endchar
        </CharString>
        <CharString name="Q">
          1712 1362 -430 rmoveto
          127 111 29 46 73 hvcurveto
          21 103 rlineto
          -126 -7 -82 29 -150 161 -85 91 rcurveline
          327 116 196 301 361 vvcurveto
          -106 callsubr
          -107 callsubr
          vhcurveto
          -7 -315 181 -263 334 -74 149 -172 rcurveline
          -194 168 139 -56 169 hhcurveto
          -453 544 rmoveto
          -122 -69 105 258 113 callsubr
          -389 -149 -464 -226 hvcurveto
          endchar
        </CharString>
        <CharString name="R">
          1572 1102 hmoveto
          28 callsubr
          endchar
        </CharString>
        <CharString name="Racute">
          1572 1084 -58 callgsubr
          463 313 rlineto
          10 vlineto
          -377 -1862 rmoveto
          28 callsubr
          endchar
        </CharString>
        <CharString name="Rcaron">
          1572 1311 -40 callsubr
          57 callsubr
          296 0 262 323 rlineto
          -344 -1868 rmoveto
          28 callsubr
          endchar
        </CharString>
        <CharString name="Rcommaaccent">
          1572 1102 hmoveto
          28 callsubr
          -396 -1543 -73 callsubr
          58 callgsubr
          -38 -21 -71 -43 -42 -89 callgsubr
        </CharString>
        <CharString name="Rdblgrave">
          1572 909 1859 rmoveto
          -305 106 callsubr
          -288 -8 hlineto
          116 -314 rlineto
          102 hlineto
          -109 -1537 rmoveto
          28 callsubr
          endchar
        </CharString>
        <CharString name="Rdotaccent">
          1572 1048 15 callsubr
          -96 -101 -85 callgsubr
          54 -1528 rmoveto
          28 callsubr
          endchar
        </CharString>
        <CharString name="Rdotbelow">
          1572 1102 hmoveto
          28 callsubr
          -342 -1175 -100 callgsubr
          83 80 99 91 -72 73 -98 hvcurveto
          endchar
        </CharString>
        <CharString name="Rdotbelowmacron">
          1572 704 -60 callsubr
          26 callsubr
          355 -1787 rmoveto
          28 callsubr
          -342 -1175 -100 callgsubr
          83 80 99 91 -72 73 -98 hvcurveto
          endchar
        </CharString>
        <CharString name="Rhogreek">
          1545 828 hmoveto
          29 callsubr
        </CharString>
        <CharString name="Rinvertedbreve">
          1572 1060 1925 rmoveto
          -218 -129 -142 -225 -6 hvcurveto
          109 hlineto
          62 callgsubr
          108 hlineto
          10 25 6 35 36 vvcurveto
          151 -1 -121 120 -178 hhcurveto
          42 -1925 rmoveto
          28 callsubr
          endchar
        </CharString>
        <CharString name="Rlinebelow">
          1572 1102 hmoveto
          28 callsubr
          -707 -1448 -52 callsubr
        </CharString>
        <CharString name="S">
          1255 631 -31 84 callsubr
          endchar
        </CharString>
        <CharString name="Sacute">
          1255 1021 -95 callsubr
          -784 -1893 84 callsubr
          endchar
        </CharString>
        <CharString name="Sacutedotaccent">
          1255 1038 1790 rmoveto
          80 62 51 72 -2 hvcurveto
          73 -2 -65 50 -79 hhcurveto
          -79 -63 -50 -73 2 112 callgsubr
          -793 -192 -18 -87 rlineto
          53 -1562 84 callsubr
          endchar
        </CharString>
        <CharString name="Scaron">
          1255 1247 -40 callsubr
          -98 callgsubr
          -323 75 callsubr
          -751 -1899 84 callsubr
          endchar
        </CharString>
        <CharString name="Scarondotaccent">
          1255 1043 1813 rmoveto
          80 62 51 72 -2 hvcurveto
          74 -2 -65 50 -79 hhcurveto
          -79 -63 -50 -74 2 hvcurveto
          -72 2 65 -51 79 hhcurveto
          355 -2 rmoveto
          -401 -84 -367 84 -19 -91 311 -173 75 0 383 173 rlineto
          -749 -1751 84 callsubr
          endchar
        </CharString>
        <CharString name="Scedilla">
          1255 515 -93 callgsubr
          53 49 rlineto
          372 9 249 205 287 vvcurveto
          170 -84 123 -191 115 vhcurveto
          -85 55 rlineto
          -120 74 -51 56 89 vvcurveto
          100 87 73 121 167 100 -118 -237 10 vhcurveto
          102 hlineto
          68 378 rlineto
          61 -80 -171 65 -222 hhcurveto
          -433 -202 -238 -249 -179 78 -114 200 -121 hvcurveto
          85 -55 rlineto
          126 -78 42 -58 -91 vvcurveto
          -106 -87 -67 -131 -169 -141 121 236 vhcurveto
          -103 hlineto
          -62 -402 80 -45 144 -42 171 -13 rlinecurve
          -110 -109 -81 callsubr
          104 callsubr
        </CharString>
        <CharString name="Schwa">
          1613 839 -31 rmoveto
          503 332 332 480 436 -318 256 -426 -160 -184 -35 -62 -126 hvcurveto
          -84 -405 rlineto
          106 hlineto
          242 107 151 111 151 hhcurveto
          199 84 -168 -296 -43 -1 -42 -2 -40 hvcurveto
          -918 hlineto
          -26 -72 -16 -83 -80 vvcurveto
          -271 173 -260 455 vhcurveto
          -200 433 rmoveto
          69 9 73 16 60 vhcurveto
          495 1 rlineto
          -309 -41 -117 -184 -159 hhcurveto
          -137 -66 125 165 hvcurveto
          endchar
        </CharString>
        <CharString name="Scircumflex">
          1255 749 -62 callsubr
          40 callsubr
          7 -1570 84 callsubr
          endchar
        </CharString>
        <CharString name="Scommaaccent">
          1255 631 -31 84 callsubr
          -135 -451 rmoveto
          209 94 80 124 118 -94 71 -117 -91 -79 162 callsubr
          -36 hvcurveto
          -19 -92 rlineto
          -37 47 78 -23 93 hhcurveto
          endchar
        </CharString>
        <CharString name="Sdotaccent">
          1255 984 15 callsubr
          -95 -102 -85 callgsubr
          -353 -1559 84 callsubr
          endchar
        </CharString>
        <CharString name="Sdotbelow">
          1255 631 -31 84 callsubr
          -81 -83 -78 callsubr
          96 102 83 80 99 91 -71 73 -98 hvcurveto
          endchar
        </CharString>
        <CharString name="Sdotbelowdotaccent">
          1255 984 15 callsubr
          -95 -102 -85 callgsubr
          -353 -1559 84 callsubr
          -81 -83 -78 callsubr
          96 102 83 80 99 91 -71 73 -98 hvcurveto
          endchar
        </CharString>
        <CharString name="Shacyrillic">
          2556 447 1204 rmoveto
          -204 -964 -19 -91 -25 -18 -130 -21 rlinecurve
          -23 -110 2463 0 23 110 -119 23 -18 19 19 88 rlinecurve
          66 callsubr
          -750 0 -24 -110 113 211 callsubr
        </CharString>
        <CharString name="Shchacyrillic">
          2574 160 callsubr
          2049 hlineto
          244 37 -61 -268 17 hvcurveto
          108 hlineto
          88 470 -196 0 226 1063 18 -107 callgsubr
          -750 0 -24 -110 113 211 callsubr
        </CharString>
        <CharString name="Sigmagreek">
          99 callgsubr
          -106 366 -662 -589 -567 -23 -109 1221 0 135 577 rlineto
          -120 hlineto
          -231 -104 -73 -47 -245 hhcurveto
          -366 hlineto
          571 540 6 29 -249 449 233 -5 264 -5 32 -50 11 -226 rlinecurve
          102 hlineto
          endchar
        </CharString>
        <CharString name="Softsigncyrillic">
          1523 201 callsubr
          -490 16 101 callsubr
          -51 callgsubr
        </CharString>
        <CharString name="T">
          -31 callsubr
          endchar
        </CharString>
        <CharString name="Taugreek">
          -31 callsubr
          endchar
        </CharString>
        <CharString name="Tbar">
          1431 331 682 rmoveto
          295 hlineto
          -94 -444 -18 -86 -26 -20 -142 -22 rlinecurve
          -23 -111 785 0 23 111 -131 22 -19 19 19 87 rlinecurve
          94 444 297 0 24 116 -296 0 110 519 30 -1 192 -12 49 -59 1 -229 rlinecurve
          102 hlineto
          78 428 -1319 0 -97 callgsubr
          78 callsubr
          -110 -519 rlineto
          -295 hlineto
          endchar
        </CharString>
        <CharString name="Tcaron">
          1431 1342 -53 callsubr
          -21 callsubr
          204 -424 rmoveto
          -1319 hlineto
          -97 callgsubr
          78 callsubr
          105 callsubr
          -81 callgsubr
          endchar
        </CharString>
        <CharString name="Tcedilla">
          1431 633 -482 rmoveto
          200 121 104 callgsubr
          304 0 23 110 -131 22 30 callgsubr
          78 428 -1319 0 -97 callgsubr
          78 callsubr
          105 callsubr
          348 0 -136 33 callgsubr
          81 -29 94 hhcurveto
          endchar
        </CharString>
        <CharString name="Tcircumflexbelow">
          -31 callsubr
          -1195 -1488 -69 callsubr
          -46 callsubr
          -63 callsubr
        </CharString>
        <CharString name="Tcommaaccent">
          -31 callsubr
          -990 -1498 -73 callsubr
          -76 callgsubr
          48 45 67 callsubr
          119 callsubr
        </CharString>
        <CharString name="Tdotaccent">
          1431 1078 -13 callsubr
          603 -84 rmoveto
          -1319 hlineto
          -97 callgsubr
          78 callsubr
          105 callsubr
          -81 callgsubr
          endchar
        </CharString>
        <CharString name="Tdotbelow">
          -31 callsubr
          -935 -1130 -65 callsubr
        </CharString>
        <CharString name="Tecyrillic">
          -31 callsubr
          endchar
        </CharString>
        <CharString name="Thetagreek">
          1794 964 -30 rmoveto
          497 368 331 435 41 hvcurveto
          434 42 -286 304 -490 hhcurveto
          -497 -367 -332 -435 -42 hvcurveto
          -434 -42 286 -303 490 hhcurveto
          16 127 rmoveto
          -209 -95 230 389 45 hvcurveto
          394 45 124 237 230 hhcurveto
          211 93 -228 -391 -45 hvcurveto
          -397 -45 -124 -234 -230 hhcurveto
          -217 362 rmoveto
          83 hlineto
          137 50 40 38 71 hhcurveto
          48 hlineto
          71 24 -38 -137 -8 hvcurveto
          83 hlineto
          108 513 rlineto
          -83 hlineto
          -137 -50 -40 -37 -71 hhcurveto
          -47 hlineto
          -71 -25 37 137 8 hvcurveto
          -83 hlineto
          endchar
        </CharString>
        <CharString name="Thorn">
          1531 216 238 rmoveto
          -19 -87 -24 -19 -130 -23 rrcurveto
          -24 -110 759 0 24 110 rlineto
          -119 23 -18 18 19 88 17 80 rcurveline
          178 hlineto
          355 360 127 328 221 -168 155 -393 hvcurveto
          -156 hlineto
          12 54 18 87 25 19 130 23 rlinecurve
          24 111 -760 0 -23 -111 119 -23 18 -18 -19 -88 rlinecurve
          684 -411 rmoveto
          1 -170 -108 -165 -210 -10 rrcurveto
          -60 -2 122 577 58 -2 rlineto
          130 -6 67 -101 -121 vvcurveto
          endchar
        </CharString>
        <CharString name="Tlinebelow">
          -31 callsubr
          -1301 -1403 122 callsubr
        </CharString>
        <CharString name="Tsecyrillic">
          1734 160 callsubr
          1214 hlineto
          246 38 -61 -268 17 hvcurveto
          107 hlineto
          88 470 -203 0 226 1063 19 88 25 19 129 23 rlinecurve
          24 -34 callgsubr
          -22 16 -20 -19 -88 rlinecurve
          -225 -1063 -398 156 callsubr
        </CharString>
        <CharString name="Tshecyrillic">
          1971 1682 1444 rmoveto
          -1320 hlineto
          -97 callgsubr
          -24 callgsubr
          84 400 rcurveline
          17 58 53 11 71 hhcurveto
          140 60 -81 -184 -39 hvcurveto
          -87 -402 615 0 23 110 rlineto
          -121 17 -13 23 17 84 26 125 rcurveline
          334 67 -173 148 -350 hhcurveto
          -137 -96 -25 -28 -82 hvcurveto
          71 callgsubr
          endchar
        </CharString>
        <CharString name="U">
          1558 823 -30 -91 callsubr
        </CharString>
        <CharString name="Uacute">
          1558 1241 -95 callsubr
          -812 -1892 -91 callsubr
        </CharString>
        <CharString name="Ubreve">
          1558 1220 96 callsubr
          -108 hlineto
          -10 107 callsubr
          -397 -1588 -91 callsubr
        </CharString>
        <CharString name="Ubrevecyrillic">
          1536 1196 1553 148 callsubr
          -69 67 -84 -102 -67 -70 -101 -119 94 -100 186 vhcurveto
          -969 -1378 183 callsubr
        </CharString>
        <CharString name="Ucaron">
          1558 1468 -53 callsubr
          -21 callsubr
          -780 -1898 -91 callsubr
        </CharString>
        <CharString name="Ucircumflex">
          1558 969 7 callsubr
          53 callsubr
          -22 -1569 -91 callsubr
        </CharString>
        <CharString name="Ucircumflexbelow">
          92 callsubr
          -299 -442 -69 callsubr
          -46 callsubr
          -63 callsubr
        </CharString>
        <CharString name="Ucyrillic">
          1536 227 175 183 callsubr
        </CharString>
        <CharString name="Udblgrave">
          1558 1065 1859 rmoveto
          -304 106 callsubr
          -56 callgsubr
          -544 -1567 -91 callsubr
        </CharString>
        <CharString name="Udieresis">
          1558 1016 -79 callsubr
          61 callsubr
          hvcurveto
          -80 -1 62 -64 -8 callsubr
          86 -36 callsubr
          -103 callgsubr
          -569 -1579 -91 callsubr
        </CharString>
        <CharString name="Udieresisacute">
          1558 1629 116 callgsubr
          134 -262 82 callsubr
          47 callsubr
          -538 -1577 -91 callsubr
        </CharString>
        <CharString name="Udieresisbelow">
          92 callsubr
          -283 -427 rmoveto
          104 84 80 97 -1 hvcurveto
          92 -75 73 -98 -105 -85 -80 -99 1 vhcurveto
          -90 75 -73 100 vhcurveto
          463 hmoveto
          105 83 161 callsubr
          endchar
        </CharString>
        <CharString name="Udieresiscaron">
          1558 1666 -20 callgsubr
          47 callsubr
          -538 -1577 -91 callsubr
        </CharString>
        <CharString name="Udieresisgrave">
          1558 877 108 callsubr
          75 -541 82 callsubr
          47 callsubr
          -538 -1577 -91 callsubr
        </CharString>
        <CharString name="Udieresismacron">
          1558 871 172 callsubr
          47 callsubr
          -538 -1577 -91 callsubr
        </CharString>
        <CharString name="Udotbelow">
          92 callsubr
          -39 -84 -100 callgsubr
          82 80 99 91 -71 73 -98 hvcurveto
          endchar
        </CharString>
        <CharString name="Ugrave">
          1558 1208 174 callsubr
          -461 -1567 -91 callsubr
        </CharString>
        <CharString name="Uhookabove">
          1558 1258 -16 callsubr
          -4 callgsubr
          -435 -1916 -91 callsubr
        </CharString>
        <CharString name="Uhorn">
          1731 307 660 rmoveto
          -23 callsubr
          181 callsubr
          endchar
        </CharString>
        <CharString name="Uhornacute">
          1731 1238 -95 callsubr
          -1325 -1202 rmoveto
          -23 callsubr
          181 callsubr
          endchar
        </CharString>
        <CharString name="Uhorndotbelow">
          1731 307 660 rmoveto
          -23 callsubr
          181 callsubr
          321 -1317 -78 callsubr
          -70 callsubr
        </CharString>
        <CharString name="Uhorngrave">
          1731 1204 1861 rmoveto
          -376 -11 hlineto
          345 -313 rlineto
          108 hlineto
          -974 -877 rmoveto
          -23 callsubr
          181 callsubr
          endchar
        </CharString>
        <CharString name="Uhornhookabove">
          1731 1254 -16 callsubr
          155 callsubr
          -947 -1226 rmoveto
          -23 callsubr
          181 callsubr
          endchar
        </CharString>
        <CharString name="Uhorntilde">
          1731 1323 2 callsubr
          -62 callgsubr
          257 callsubr
          44 callgsubr
          -1016 -896 rmoveto
          -23 callsubr
          181 callsubr
          endchar
        </CharString>
        <CharString name="Uhungarumlaut">
          1558 1013 1860 rmoveto
          -52 -322 109 0 244 314 rlineto
          9 vlineto
          86 94 callgsubr
          -906 -1891 -91 callsubr
        </CharString>
        <CharString name="Uinvertedbreve">
          1558 1217 209 callsubr
          -394 -1955 -91 callsubr
        </CharString>
        <CharString name="Umacron">
          1558 861 -60 callsubr
          42 200 rlineto
          -652 hlineto
          -80 -1817 -91 callsubr
        </CharString>
        <CharString name="Umacrondieresis">
          1558 1053 1834 rmoveto
          76 249 callsubr
          75 259 callsubr
          -75 hhcurveto
          -19 hlineto
          -75 -72 -46 -69 -15 hvcurveto
          -67 -14 51 -47 73 callgsubr
          -47 -1769 -91 callsubr
        </CharString>
        <CharString name="Uogonek">
          1558 809 242 callsubr
          73 101 42 10 38 15 24 hvcurveto
          303 35 195 208 75 344 rrcurveto
          131 592 30 131 22 25 126 24 rlinecurve
          24 110 -453 0 -24 -110 rlineto
          129 -26 215 callsubr
          111 -24 17 -19 -19 -88 rlinecurve
          -115 -543 -97 -458 233 -204 312 -25 rlinecurve
          -148 -73 -71 -92 -96 vvcurveto
          -117 113 -82 161 vhcurveto
          endchar
        </CharString>
        <CharString name="Upsilondieresisgreek">
          1467 965 -79 callsubr
          -70 callgsubr
          376 hmoveto
          87 175 callsubr
          83 vhcurveto
          -888 -404 -77 callsubr
        </CharString>
        <CharString name="Upsilongreek">
          1467 453 1145 -77 callsubr
        </CharString>
        <CharString name="Upsilontonosgreek">
          1982 969 1145 rmoveto
          173 -544 -76 -362 -18 -86 -26 -21 -140 -22 rlinecurve
          -23 -110 780 0 23 110 -129 22 -18 20 18 87 rlinecurve
          76 360 416 558 97 132 32 28 108 17 rlinecurve
          24 110 -451 0 -23 -110 124 -47 callgsubr
          -107 400 -36 132 19 31 126 18 rlinecurve
          24 110 -780 0 -23 -110 96 -17 25 -29 46 -143 rlinecurve
          -619 299 -66 callsubr
          endchar
        </CharString>
        <CharString name="Uring">
          1558 921 228 callsubr
          38 24 -30 -53 -77 -41 -58 -52 -38 -25 30 53 vhcurveto
          -319 -1752 -91 callsubr
        </CharString>
        <CharString name="Utilde">
          1558 1327 86 callgsubr
          -26 -26 -38 hhcurveto
          -24 -23 9 17 -24 hvcurveto
          4 callgsubr
          -504 -1586 -91 callsubr
        </CharString>
        <CharString name="Utildeacute">
          1558 1629 116 callgsubr
          470 -256 rmoveto
          145 103 85 141 27 hvcurveto
          -131 hlineto
          -45 -9 -31 -22 -51 hhcurveto
          -30 -32 8 11 -37 hvcurveto
          -41 12 rlineto
          15 -51 -53 14 -60 hhcurveto
          -145 -102 -85 -141 -28 hvcurveto
          131 hlineto
          250 callsubr
          -505 -1583 -91 callsubr
        </CharString>
        <CharString name="Utildebelow">
          92 callsubr
          81 -426 10 callgsubr
          30 29 41 81 callgsubr
        </CharString>
        <CharString name="V">
          1532 434 1123 rmoveto
          199 callsubr
          endchar
        </CharString>
        <CharString name="Vdotbelow">
          1532 434 1123 rmoveto
          199 callsubr
          297 -1237 -65 callsubr
        </CharString>
        <CharString name="Vecyrillic">
          1577 1600 449 88 callsubr
        </CharString>
        <CharString name="Vtilde">
          1532 1313 2 callsubr
          -23 9 17 -23 -61 callgsubr
          52 -22 62 hhcurveto
          -879 -433 rmoveto
          199 callsubr
          endchar
        </CharString>
        <CharString name="W">
          2316 416 1123 -2 callsubr
        </CharString>
        <CharString name="Wacute">
          2316 1695 -95 callsubr
          -1673 -739 -2 callsubr
        </CharString>
        <CharString name="Wcircumflex">
          2316 1423 7 callsubr
          53 callsubr
          -883 -416 -2 callsubr
        </CharString>
        <CharString name="Wdieresis">
          2316 1470 -79 callsubr
          61 callsubr
          hvcurveto
          -80 -1 62 -64 -8 callsubr
          86 -36 callsubr
          -103 callgsubr
          -1430 -426 -2 callsubr
        </CharString>
        <CharString name="Wdotaccent">
          2316 1658 -13 callsubr
          -1242 -405 -2 callsubr
        </CharString>
        <CharString name="Wdotbelow">
          2316 416 1123 rmoveto
          103 -1126 364 0 472 948 71 -948 378 0 556 1109 93 185 39 26 109 17 rlinecurve
          23 110 195 callsubr
          690 -1237 -78 callsubr
          -70 callsubr
        </CharString>
        <CharString name="Wgrave">
          2316 1662 174 callsubr
          -1322 -414 -2 callsubr
        </CharString>
        <CharString name="X">
          1495 357 337 27 callsubr
        </CharString>
        <CharString name="Xdieresis">
          1495 1026 -79 callsubr
          -36 callsubr
          81 callsubr
          87 71 71 86 hvcurveto
          80 1 -62 65 -83 hhcurveto
          58 callsubr
          -1046 -1212 27 callsubr
        </CharString>
        <CharString name="Xdotaccent">
          1495 1215 15 callsubr
          -96 -101 -85 callgsubr
          -858 -1191 27 callsubr
        </CharString>
        <CharString name="Xigreek">
          1438 1653 1444 rmoveto
          -1259 hlineto
          101 callgsubr
          415 hlineto
          238 47 -23 -204 5 hvcurveto
          106 hlineto
          -775 -263 rmoveto
          137 18 callgsubr
          -137 31 callgsubr
          126 hhcurveto
          580 -652 rmoveto
          143 577 rlineto
          -106 hlineto
          -235 -105 -66 -35 -248 hhcurveto
          -408 hlineto
          -248 -49 35 235 -6 hvcurveto
          -106 hlineto
          -101 -577 rlineto
          endchar
        </CharString>
        <CharString name="Xigreek.1">
          1446 65 hmoveto
          1308 hlineto
          144 577 rlineto
          -106 hlineto
          -235 -105 -66 -35 -248 hhcurveto
          -157 hlineto
          73 345 rlineto
          23 18 callgsubr
          -22 hlineto
          74 351 rlineto
          162 hlineto
          238 47 -23 -204 5 hvcurveto
          106 hlineto
          90 529 -1268 0 101 callgsubr
          164 hlineto
          -74 -351 rlineto
          -26 31 callgsubr
          125 hhcurveto
          26 hlineto
          -72 -345 rlineto
          -163 hlineto
          -248 -49 35 235 -6 hvcurveto
          -106 hlineto
          endchar
        </CharString>
        <CharString name="Y">
          1467 453 1145 -77 callsubr
        </CharString>
        <CharString name="Yacute">
          1467 1190 -58 callgsubr
          462 313 rlineto
          10 vlineto
          -1131 -717 -77 callsubr
        </CharString>
        <CharString name="Ycircumflex">
          1467 918 7 callsubr
          -131 -36 callgsubr
          -341 -394 -77 callsubr
        </CharString>
        <CharString name="Ydieresis">
          1467 965 -79 callsubr
          -70 callgsubr
          376 hmoveto
          87 175 callsubr
          83 vhcurveto
          -888 -404 -77 callsubr
        </CharString>
        <CharString name="Ydotaccent">
          1467 1154 15 callsubr
          -96 -102 -83 -80 -100 -91 72 -73 98 hvcurveto
          -701 -383 -77 callsubr
        </CharString>
        <CharString name="Ydotbelow">
          1467 453 1145 rmoveto
          174 -544 -76 -362 -19 -86 -25 -21 -140 -22 rlinecurve
          -23 -110 779 0 24 110 -129 22 -19 20 19 87 rlinecurve
          76 360 415 558 97 132 32 28 109 17 rlinecurve
          23 110 -450 0 -24 -110 125 -47 callgsubr
          -10 callgsubr
          249 -1259 -78 callsubr
          -54 callgsubr
        </CharString>
        <CharString name="Yericyrillic">
          2309 201 callsubr
          574 -277 rmoveto
          205 964 18 88 25 19 130 23 rlinecurve
          24 110 126 callsubr
          -19 -101 callgsubr
          -130 -23 rlinecurve
          -23 -110 759 0 23 -19 callsubr
          -1064 293 101 callsubr
          -51 callgsubr
        </CharString>
        <CharString name="Ygrave">
          1467 1157 174 callsubr
          -780 -392 -77 callsubr
        </CharString>
        <CharString name="Yhookabove">
          1467 1207 -16 callsubr
          -49 hvcurveto
          -16 -78 rlineto
          15 26 47 12 48 hhcurveto
          70 39 -25 -46 -48 -43 -47 -100 -53 hvcurveto
          111 hlineto
          188 59 81 58 90 vvcurveto
          94 -94 64 -112 vhcurveto
          -754 -741 -77 callsubr
        </CharString>
        <CharString name="Yicyrillic">
          852 591 -79 callsubr
          hvcurveto
          81 1 -62 64 -82 hhcurveto
          -88 -72 -70 -88 hvcurveto
          -79 -1 62 -65 -8 callsubr
          -71 callgsubr
          -79 61 -65 84 vhcurveto
          -256 -1309 -90 callsubr
        </CharString>
        <CharString name="Ymacron">
          1467 810 -60 callsubr
          26 callsubr
          -400 -642 -77 callsubr
        </CharString>
        <CharString name="Ytilde">
          1467 1276 1556 rmoveto
          103 91 65 256 32 hvcurveto
          -112 hlineto
          -85 -16 -26 -26 -38 hhcurveto
          -24 -23 9 17 -24 hvcurveto
          -25 18 rlineto
          34 -51 -52 -13 callgsubr
          52 -22 62 hhcurveto
          -823 -411 -77 callsubr
        </CharString>
        <CharString name="Z">
          1320 1250 hmoveto
          -64 callsubr
          12 callsubr
        </CharString>
        <CharString name="Zacute">
          1320 1033 -95 callsubr
          -177 -1862 rmoveto
          -64 callsubr
          12 callsubr
        </CharString>
        <CharString name="Zcaron">
          1320 1260 -53 callsubr
          -21 callsubr
          -145 -1868 rmoveto
          -64 callsubr
          12 callsubr
        </CharString>
        <CharString name="Zcircumflex">
          1320 761 -62 callsubr
          180 -38 callgsubr
          613 -1539 rmoveto
          -64 callsubr
          12 callsubr
        </CharString>
        <CharString name="Zdotaccent">
          1320 996 -13 callsubr
          254 -1528 rmoveto
          -64 callsubr
          12 callsubr
        </CharString>
        <CharString name="Zdotbelow">
          1320 1250 hmoveto
          -64 callsubr
          -249 -10 rrcurveto
          -187 35 callsubr
          557 -114 -78 callsubr
          -70 callsubr
        </CharString>
        <CharString name="Zecyrillic">
          1422 636 -30 rmoveto
          431 368 180 323 185 -168 101 -231 20 hvcurveto
          280 36 201 119 219 vvcurveto
          217 -210 104 -346 -220 -175 -50 -70 -117 vhcurveto
          -87 -371 rlineto
          105 hlineto
          239 104 134 104 159 hhcurveto
          115 66 -77 -123 -190 -116 -128 -201 hvcurveto
          -136 hlineto
          -29 -136 rlineto
          135 hlineto
          159 83 -79 -139 -176 -120 -160 -207 -169 -102 108 239 -5 hvcurveto
          -105 hlineto
          -61 -371 rlineto
          -66 91 168 -58 206 hhcurveto
          endchar
        </CharString>
        <CharString name="Zetagreek">
          1320 1250 hmoveto
          -64 callsubr
          12 callsubr
        </CharString>
        <CharString name="Zhecyrillic">
          2308 526 hmoveto
          465 658 75 0 -89 -419 -19 -87 -25 -18 -131 -24 rlinecurve
          -24 -110 763 0 23 110 -120 23 -18 18 19 88 rlinecurve
          89 419 74 0 187 -658 516 0 23 106 -55 29 -24 31 -71 228 rlinecurve
          -184 610 119 102 195 168 65 36 143 24 rlinecurve
          24 110 -535 0 -24 -110 113 -21 14 -41 -101 -100 rlinecurve
          -378 -378 -73 0 87 411 19 87 25 19 131 23 rlinecurve
          24 110 -763 0 -24 -110 122 -16 17 -25 -18 -88 rlinecurve
          -88 -411 -71 0 -224 379 -60 104 29 38 119 19 rlinecurve
          22 110 -536 0 -22 -110 134 -24 55 -30 119 -173 rlinecurve
          71 -99 -438 -606 rlineto
          -169 -232 -35 -36 -67 -28 -22 -106 rcurveline
          endchar
        </CharString>
        <CharString name="Zlinebelow">
          1320 1250 hmoveto
          -64 callsubr
          -249 -10 rrcurveto
          -187 35 callsubr
          192 -387 54 callsubr
        </CharString>
        <CharString name="a">
          1343 18 callsubr
          -105 callsubr
          -104 callsubr
          -97 callsubr
        </CharString>
        <CharString name="a.dnum">
          858 119 211 rmoveto
          -145 1 79 -80 110 hhcurveto
          99 76 57 95 34 hvcurveto
          -2 -11 -1 -13 -12 vvcurveto
          -76 47 -36 78 94 80 40 52 44 vhcurveto
          16 72 rlineto
          -8 -14 -17 -5 -20 hhcurveto
          -31 -12 77 callgsubr
          -91 hhcurveto
          -186 -143 -160 -234 2 hvcurveto
          278 -5 rmoveto
          109 -2 36 177 103 callgsubr
          -33 -35 hhcurveto
          -25 -20 20 61 -2 hvcurveto
          endchar
        </CharString>
        <CharString name="a.numr">
          858 253 844 rmoveto
          -145 1 80 -79 109 hhcurveto
          100 76 56 95 34 hvcurveto
          -3 -11 0 -13 -12 vvcurveto
          -76 47 -36 78 93 80 40 52 44 vhcurveto
          16 72 rlineto
          -7 -14 -17 -6 -20 hhcurveto
          -30 -12 19 51 11 hvcurveto
          81 381 -167 0 -94 -74 rlineto
          47 -20 -55 41 -90 hhcurveto
          -186 -144 -161 -234 2 hvcurveto
          279 -5 rmoveto
          109 -2 35 178 93 hhcurveto
          27 17 -12 -14 5 hvcurveto
          -55 -255 rlineto
          -53 -12 -27 -34 -34 hhcurveto
          -26 -19 21 60 -2 hvcurveto
          endchar
        </CharString>
        <CharString name="a.sups">
          858 289 1012 rmoveto
          -145 1 79 -79 110 hhcurveto
          99 76 56 95 34 hvcurveto
          -2 -10 -1 -14 -12 vvcurveto
          -76 1 46 -36 79 hhcurveto
          93 80 40 52 44 hvcurveto
          16 72 rlineto
          -7 -14 -17 -5 -20 hhcurveto
          -30 -13 77 callgsubr
          -90 hhcurveto
          -187 -143 -160 -235 2 hvcurveto
          278 -5 rmoveto
          109 -2 36 178 103 callgsubr
          -34 -35 hhcurveto
          -25 -20 21 60 -2 hvcurveto
          endchar
        </CharString>
        <CharString name="aacute">
          1343 966 1574 rmoveto
          -208 -415 -37 callsubr
          -1258 -1205 -98 callsubr
          -105 callsubr
          -104 callsubr
          -97 callsubr
        </CharString>
        <CharString name="abreve">
          1343 938 149 callsubr
          -126 hlineto
          -10 255 callsubr
          -768 -799 -98 callsubr
          -105 callsubr
          -104 callsubr
          -97 callsubr
        </CharString>
        <CharString name="abreveacute">
          1343 1341 236 callsubr
          294 -340 -41 callsubr
          89 callsubr
        </CharString>
        <CharString name="abrevecyrillic">
          1343 887 239 callsubr
          -118 28 rlineto
          -167 -21 callgsubr
          191 vhcurveto
          -717 -801 -98 callsubr
          -105 callsubr
          -104 callsubr
          -97 callsubr
        </CharString>
        <CharString name="abrevedotbelow">
          1343 938 149 callsubr
          -126 hlineto
          -10 255 callsubr
          -768 -799 -98 callsubr
          -105 callsubr
          -104 callsubr
          32 callsubr
          60 -825 44 callsubr
        </CharString>
        <CharString name="abrevegrave">
          1343 607 1566 rmoveto
          712 -106 21 103 -686 226 rlineto
          225 -669 -41 callsubr
          89 callsubr
        </CharString>
        <CharString name="abrevehookabove">
          1343 1005 109 callsubr
          37 62 14 50 hhcurveto
          87 33 -32 -40 -8 hvcurveto
          -10 -42 -47 -32 -101 -18 rrcurveto
          83 -62 175 30 101 62 23 105 rlinecurve
          102 21 -84 69 -146 hhcurveto
          -126 -651 -41 callsubr
          89 callsubr
        </CharString>
        <CharString name="abrevetilde">
          1343 1103 1488 45 callsubr
          -32 callgsubr
          20 callsubr
          105 callgsubr
          -224 -368 -41 callsubr
          89 callsubr
        </CharString>
        <CharString name="acaron">
          1343 1209 50 callsubr
          133 -22 callsubr
          -1177 -1215 -98 callsubr
          -105 callsubr
          -104 callsubr
          -97 callsubr
        </CharString>
        <CharString name="acircumflex">
          1343 658 -12 callsubr
          -65 callgsubr
          -349 -791 -98 callsubr
          -105 callsubr
          -104 callsubr
          -97 callsubr
        </CharString>
        <CharString name="acircumflexacute">
          1343 1341 236 callsubr
          -86 callgsubr
          -25 callsubr
          -369 -865 -98 callsubr
          -105 callsubr
          -104 callsubr
          -97 callsubr
        </CharString>
        <CharString name="acircumflexdotbelow">
          1343 658 -12 callsubr
          -65 callgsubr
          -349 -791 -98 callsubr
          -105 callsubr
          -104 callsubr
          32 callsubr
          60 -825 44 callsubr
        </CharString>
        <CharString name="acircumflexgrave">
          1343 607 1566 rmoveto
          712 -106 21 103 240 callsubr
          -25 callsubr
          -369 -865 -98 callsubr
          -105 callsubr
          -104 callsubr
          -97 callsubr
        </CharString>
        <CharString name="acircumflexhookabove">
          1343 1298 109 callsubr
          -5 callgsubr
          -369 -865 -98 callsubr
          -105 callsubr
          -104 callsubr
          -97 callsubr
        </CharString>
        <CharString name="acircumflextilde">
          1343 1103 1488 45 callsubr
          -32 callgsubr
          20 callsubr
          105 callgsubr
          -99 callgsubr
          -25 callsubr
          -369 -865 -98 callsubr
          -105 callsubr
          -104 callsubr
          -97 callsubr
        </CharString>
        <CharString name="acute">
          1024 836 -14 callsubr
          -37 callsubr
          endchar
        </CharString>
        <CharString name="acutecmb">
          0 324 -14 callsubr
          -37 callsubr
          endchar
        </CharString>
        <CharString name="acutecmb.short">
          0 306 1457 rmoveto
          -183 -323 114 0 463 313 rlineto
          10 vlineto
          endchar
        </CharString>
        <CharString name="acutedotaccentcmb">
          21 callgsubr
          292 -206 rmoveto
          48 223 -782 -226 -22 -103 rlineto
          endchar
        </CharString>
        <CharString name="acutedotaccentcmb.short">
          0 409 1790 rmoveto
          80 62 51 72 -2 hvcurveto
          73 -1 -65 50 -80 hhcurveto
          -79 -62 -50 -73 1 112 callgsubr
          -792 -192 -19 -87 rlineto
          endchar
        </CharString>
        <CharString name="acyrillic">
          1343 18 callsubr
          -105 callsubr
          -104 callsubr
          -97 callsubr
        </CharString>
        <CharString name="adblgrave">
          1343 755 -26 callsubr
          247 callsubr
          129 hlineto
          -960 -788 -98 callsubr
          -105 callsubr
          -104 callsubr
          -97 callsubr
        </CharString>
        <CharString name="adieresis">
          1343 675 -83 callsubr
          25 callsubr
          -113 -91 -89 -110 -101 80 -80 107 hvcurveto
          -24 callsubr
          -106 -112 74 callsubr
          -1003 -807 -98 callsubr
          -105 callsubr
          -104 callsubr
          -97 callsubr
        </CharString>
        <CharString name="adieresismacron">
          1343 596 238 callsubr
          55 -552 rmoveto
          77 callsubr
          65 callgsubr
          427 hmoveto
          80 76 56 79 17 hvcurveto
          80 17 -53 55 -79 hhcurveto
          -19 hlineto
          -80 -76 -55 -80 23 callsubr
          -907 -772 -98 callsubr
          -105 callsubr
          -104 callsubr
          -97 callsubr
        </CharString>
        <CharString name="adotaccent">
          1343 924 16 callsubr
          -84 87 52 callsubr
          -754 -794 -98 callsubr
          -105 callsubr
          -104 callsubr
          -97 callsubr
        </CharString>
        <CharString name="adotbelow">
          1343 18 callsubr
          -105 callsubr
          -104 callsubr
          32 callsubr
          60 -825 44 callsubr
        </CharString>
        <CharString name="adotmacron">
          1343 593 1498 rmoveto
          733 hlineto
          39 50 callgsubr
          -84 -67 -60 -86 -85 67 -60 84 hvcurveto
          -744 -767 -98 callsubr
          -105 callsubr
          -104 callsubr
          -97 callsubr
        </CharString>
        <CharString name="ae">
          1670 242 788 132 callsubr
        </CharString>
        <CharString name="aeacute">
          1670 1164 -86 callsubr
          -58 callsubr
          -1384 -786 132 callsubr
        </CharString>
        <CharString name="aemacron">
          1670 739 110 callsubr
          -546 -673 132 callsubr
        </CharString>
        <CharString name="agrave">
          1343 967 -72 callgsubr
          -870 -788 -98 callsubr
          -105 callsubr
          -104 callsubr
          -97 callsubr
        </CharString>
        <CharString name="ahookabove">
          1343 996 103 callsubr
          55 168 callsubr
          217 70 92 68 106 vvcurveto
          111 -108 77 -126 vhcurveto
          -826 -1215 -98 callsubr
          -105 callsubr
          -104 callsubr
          -97 callsubr
        </CharString>
        <CharString name="ainvertedbreve">
          1343 937 1576 rmoveto
          -242 -66 callgsubr
          18 101 48 callsubr
          107 callgsubr
          -767 -1207 -98 callsubr
          -105 callsubr
          -104 callsubr
          -97 callsubr
        </CharString>
        <CharString name="alphagreek">
          1389 506 -23 180 callsubr
        </CharString>
        <CharString name="alphatonosgreek">
          1389 918 1576 rmoveto
          -121 118 callsubr
          -811 -1599 180 callsubr
        </CharString>
        <CharString name="amacron">
          1343 541 110 callsubr
          -420 -1092 -98 callsubr
          -105 callsubr
          -104 callsubr
          -97 callsubr
        </CharString>
        <CharString name="ampersand">
          1632 99 351 rmoveto
          -211 151 -170 285 167 140 64 147 154 vhcurveto
          149 -180 498 -1 16 75 -91 83 -85 90 -101 125 rlinecurve
          -80 99 125 123 164 157 47 29 111 13 rlinecurve
          22 111 -463 0 -22 -111 116 -15 15 -35 -87 -97 rlinecurve
          -90 -98 -252 312 rlineto
          243 60 134 99 149 vvcurveto
          184 -164 122 -295 -314 -195 -165 -237 vhcurveto
          -1 -108 38 -85 75 -105 rrcurveto
          -273 -65 -137 -145 -214 vvcurveto
          694 844 rmoveto
          86 53 46 70 75 41 -57 -96 -87 -39 -79 -76 -58 vhcurveto
          -88 113 -36 63 69 vvcurveto
          -290 -685 rmoveto
          72 28 59 50 41 vhcurveto
          4 -4 4 -5 3 -5 335 -403 rcurveline
          -21 -42 -42 -8 -43 hhcurveto
          -171 -126 116 158 hvcurveto
          endchar
        </CharString>
        <CharString name="anoteleiagreek">
          611 476 629 rmoveto
          130 108 97 131 119 -94 93 -132 -130 -107 -97 -132 -118 93 -93 132 hvcurveto
          endchar
        </CharString>
        <CharString name="aogonek">
          1343 18 callsubr
          -105 callsubr
          -104 callsubr
          12 11 0 1 12 hvcurveto
          -202 -106 -79 -85 -106 vvcurveto
          -108 94 -65 139 108 103 41 56 42 vhcurveto
          23 106 rlineto
          -12 -18 -25 -7 -28 hhcurveto
          -43 -33 29 59 95 82 112 153 138 hvcurveto
          24 111 rlineto
          -17 -25 -32 -10 -33 hhcurveto
          -51 -19 34 81 17 hvcurveto
          151 710 -264 0 -151 -124 rlineto
          78 170 callsubr
          -12 159 callsubr
          -62 hhcurveto
          -50 -33 44 120 1 hvcurveto
          endchar
        </CharString>
        <CharString name="approxequal">
          1312 1095 876 rmoveto
          -158 -138 216 -217 hhcurveto
          -201 -138 -157 -290 -28 hvcurveto
          181 hlineto
          148 24 66 70 99 158 139 -217 216 hhcurveto
          197 139 157 288 28 hvcurveto
          -181 hlineto
          -146 -25 -66 -69 -95 hhcurveto
          -115 -538 rmoveto
          -157 -139 216 -217 hhcurveto
          -200 -138 -157 -290 -29 hvcurveto
          182 hlineto
          148 23 66 70 100 158 139 -217 215 hhcurveto
          197 102 callgsubr
          -69 -96 hhcurveto
          endchar
        </CharString>
        <CharString name="aring">
          1343 601 1363 rmoveto
          -134 133 -85 174 232 76 callsubr
          29 callgsubr
          42 27 -33 -60 -88 -47 -65 -57 -43 -27 34 60 vhcurveto
          -676 -973 -98 callsubr
          -105 callsubr
          -104 callsubr
          -97 callsubr
        </CharString>
        <CharString name="aringacute">
          1343 1342 1569 rmoveto
          47 223 -782 -226 -21 -102 rlineto
          337 -342 rmoveto
          176 131 66 100 21 hvcurveto
          101 22 -104 66 -175 hhcurveto
          -87 hlineto
          -175 -131 -66 -101 -22 hvcurveto
          -100 -21 103 -66 175 hhcurveto
          79 97 rmoveto
          -30 hlineto
          -48 -21 28 41 9 hvcurveto
          43 9 34 27 47 hhcurveto
          30 hlineto
          47 22 -27 -43 -9 hvcurveto
          -41 -8 -35 -28 -47 hhcurveto
          -745 -850 -98 callsubr
          -105 callsubr
          -104 callsubr
          -97 callsubr
        </CharString>
        <CharString name="aringbelow">
          1343 18 callsubr
          -105 callsubr
          -104 callsubr
          32 callsubr
          -270 -648 rmoveto
          -122 2 136 -77 174 hhcurveto
          232 124 102 108 -4 hvcurveto
          122 -2 -135 54 callgsubr
          46 54 57 hhcurveto
          42 28 -27 -50 2 hvcurveto
          -74 3 -45 -54 -57 hhcurveto
          -43 -28 27 50 -2 hvcurveto
          endchar
        </CharString>
        <CharString name="asciicircum">
          1321 858 1444 rmoveto
          -559 -602 132 -121 507 504 296 -504 152 120 -303 603 rlineto
          endchar
        </CharString>
        <CharString name="asciitilde">
          1312 1033 586 rmoveto
          -157 -138 217 -218 hhcurveto
          -200 -139 -157 -290 -28 hvcurveto
          182 hlineto
          148 24 65 70 100 158 139 -217 216 hhcurveto
          196 102 callgsubr
          -70 -96 hhcurveto
          endchar
        </CharString>
        <CharString name="asterisk">
          984 780 1475 rmoveto
          -73 -46 -52 -96 -22 1 -24 5 -27 hvcurveto
          36 -190 24 0 119 181 rlineto
          29 45 12 42 34 vvcurveto
          66 -45 43 -62 vhcurveto
          -310 -139 rmoveto
          -69 -51 -52 -63 -60 40 -50 115 -28 hvcurveto
          180 -41 13 19 -81 164 rlineto
          81 -41 -57 30 -49 hhcurveto
          560 -57 rmoveto
          -53 -41 -23 -64 -67 hvcurveto
          -138 -131 9 -21 148 3 rlineto
          185 3 64 58 72 vvcurveto
          60 -42 43 -65 vhcurveto
          -635 -483 rmoveto
          53 40 24 64 68 hvcurveto
          137 132 -9 20 -147 -3 rlineto
          -185 -4 -65 -57 -72 vvcurveto
          -60 43 -44 65 vhcurveto
          680 59 rmoveto
          59 -41 52 -115 26 vhcurveto
          -180 42 -13 -19 82 -164 rlineto
          -82 40 57 -29 50 hhcurveto
          69 51 52 63 hvcurveto
          -431 -254 rmoveto
          73 47 52 95 23 -2 24 -4 27 hvcurveto
          -37 190 -24 0 -118 -181 rlineto
          -30 -46 -11 -41 -34 vvcurveto
          -66 45 -43 61 vhcurveto
          endchar
        </CharString>
        <CharString name="at">
          2162 1550 -300 rmoveto
          -2 111 rlineto
          -77 -133 -142 -19 -162 hhcurveto
          -422 -325 273 458 496 378 407 526 495 286 -276 -385 -288 -165 -191 -174 -89 -16 48 100 21 hvcurveto
          138 643 -245 0 -132 -118 rlineto
          90 -36 -86 54 -120 hhcurveto
          -280 -184 -298 -324 -228 99 -119 154 139 112 82 169 78 hvcurveto
          -3 -17 -1 -17 -15 vvcurveto
          -131 -1 100 -106 206 hhcurveto
          406 242 316 376 458 -381 320 -563 -636 -432 -483 -563 -549 404 -325 481 185 185 51 77 95 hvcurveto
          -477 714 rmoveto
          170 82 302 120 47 31 -40 -83 -14 vhcurveto
          -70 -324 rlineto
          -100 -21 -50 -59 -54 hhcurveto
          -48 -23 43 91 hvcurveto
          endchar
        </CharString>
        <CharString name="atilde">
          1343 1068 152 callsubr
          44 hhcurveto
          31 27 -12 -22 30 hvcurveto
          32 -23 rlineto
          -42 59 62 -28 72 hhcurveto
          -898 -810 -98 callsubr
          -105 callsubr
          -104 callsubr
          -97 callsubr
        </CharString>
        <CharString name="austral">
          1482 81 378 rmoveto
          209 hlineto
          -49 -90 -71 -135 -34 -28 -110 -15 rlinecurve
          -24 -110 444 0 24 110 -111 16 -21 31 64 126 rlinecurve
          48 95 449 0 9 -102 10 -115 -19 -32 -129 -18 rlinecurve
          -23 -111 730 0 24 111 -101 13 -23 27 -15 126 rlinecurve
          -11 101 210 0 19 85 -240 0 -22 188 302 0 18 85 -330 0 -84 708 -359 0 -382 -708 -325 0 -19 -85 298 0 -101 -188 rlineto
          -237 hlineto
          536 273 rmoveto
          196 381 35 -381 rlineto
          -372 -273 rmoveto
          97 188 283 0 17 -188 rlineto
          endchar
        </CharString>
        <CharString name="austral.tnum">
          1369 97 455 rmoveto
          -18 -86 176 0 -41 -81 -68 -135 -30 -29 -90 -14 rlinecurve
          -24 -110 420 0 24 110 -112 17 -15 28 61 128 rlinecurve
          42 86 395 0 5 -93 6 -115 -17 -31 -130 -19 rlinecurve
          -24 -111 710 0 24 111 -83 12 -17 29 -10 125 rlinecurve
          -7 92 173 0 19 86 -200 0 -15 187 255 0 18 86 -280 0 -60 716 -384 0 -363 -716 -282 0 -18 -86 256 0 -95 -187 rlineto
          298 273 rmoveto
          181 375 21 -375 rlineto
          -335 -273 rmoveto
          91 187 248 0 10 -187 rlineto
          endchar
        </CharString>
        <CharString name="b">
          146 callsubr
          endchar
        </CharString>
        <CharString name="backslash">
          892 523 -284 rmoveto
          226 hlineto
          -104 1868 rlineto
          -226 hlineto
          endchar
        </CharString>
        <CharString name="baht">
          1519 1539 464 rmoveto
          149 -114 139 -274 29 vhcurveto
          252 17 205 98 195 vvcurveto
          177 -139 117 -336 24 vhcurveto
          47 222 -85 0 -46 -218 rlineto
          1 -19 -19 0 -20 hhcurveto
          -643 hlineto
          -23 -110 rlineto
          120 -23 17 -18 -19 -90 -189 -904 rcurveline
          -19 -86 -25 -20 -130 -23 -24 -110 rcurveline
          672 hlineto
          9 9 0 9 hhcurveto
          -47 -220 85 0 47 223 rlineto
          438 21 261 152 258 vvcurveto
          -632 823 rmoveto
          39 -1 rlineto
          27 -1 24 -4 22 -6 -96 -452 rcurveline
          -1 -14 -14 -1 -14 hhcurveto
          -74 hlineto
          354 253 rmoveto
          -110 -52 -83 -96 -37 vhcurveto
          83 392 rlineto
          43 -35 22 -55 -72 vvcurveto
          -380 -380 rmoveto
          71 -2 rlineto
          15 -1 14 -1 13 -3 -112 -526 rcurveline
          -3 -22 -23 -1 -25 hhcurveto
          -47 -1 rlineto
          403 304 rmoveto
          -131 -59 -104 -137 -45 vhcurveto
          101 478 rlineto
          61 -37 34 -67 -94 vvcurveto
          endchar
        </CharString>
        <CharString name="baht.tnum">
          -2 callgsubr
          160 -128 113 -306 22 vhcurveto
          47 221 -85 0 -46 -217 rlineto
          -10 -11 0 -11 hhcurveto
          -591 hlineto
          16 callgsubr
          621 0 -47 -220 85 0 47 221 rlineto
          410 16 248 152 265 vvcurveto
          -563 823 rmoveto
          37 -2 rlineto
          17 -1 16 -2 15 -4 -97 -456 rcurveline
          -1 -7 -8 0 -7 hhcurveto
          -65 hlineto
          317 278 rmoveto
          -115 -48 -96 -92 -43 vhcurveto
          85 397 rlineto
          36 -31 19 -47 -65 vvcurveto
          -344 -405 rmoveto
          49 -2 rlineto
          13 -1 12 -1 12 -2 -113 -529 rcurveline
          -1 -9 -10 0 -10 hhcurveto
          -59 -2 rlineto
          366 341 rmoveto
          -145 -63 -123 -125 -49 vhcurveto
          102 480 rlineto
          57 -33 29 -58 -72 vvcurveto
          endchar
        </CharString>
        <CharString name="bar">
          892 272 -284 rmoveto
          227 hlineto
          397 1868 rlineto
          -227 hlineto
          endchar
        </CharString>
        <CharString name="bdotaccent">
          1338 740 1569 rmoveto
          119 97 35 callgsubr
          649 -899 97 callgsubr
          193 callsubr
          endchar
        </CharString>
        <CharString name="bdotbelow">
          146 callsubr
          -343 -1149 -94 callsubr
          -1 hvcurveto
          97 -1 -79 78 -104 hhcurveto
          -112 59 callsubr
        </CharString>
</ttFont>
